<?xml version="1.0" standalone="no"?>
<!DOCTYPE svg PUBLIC "-//W3C//DTD SVG 1.1//EN" "http://www.w3.org/Graphics/SVG/1.1/DTD/svg11.dtd" >
<svg>
<metadata>
Created by FontForge 20120731 at Tue Apr 22 14:05:33 2014
 By John Merrick
Created by Ivan Drinchev. OFL license
</metadata>
<defs>
<font id="MonoSocialIconsFont" horiz-adv-x="850" >
  <font-face 
    font-family="MonoSocialIconsFont"
    font-weight="400"
    font-stretch="normal"
    units-per-em="1024"
    panose-1="2 0 5 3 0 0 0 2 0 4"
    ascent="819"
    descent="-205"
    x-height="547"
    cap-height="781"
    bbox="-39 -234 1055 859"
    underline-thickness="51"
    underline-position="-102"
    unicode-range="U+0020-E500"
  />
<missing-glyph horiz-adv-x="293" 
 />
    <glyph glyph-name="fivehundredpx" unicode="fivehundredpx" 
d="M605 354q44 0 62.5 -27t18.5 -64q0 -36 -18.5 -63.5t-62.5 -27.5q-22 0 -39 8t-29 19q-14 12 -25 28q-10 -16 -23 -28q-11 -11 -28.5 -19t-41.5 -8t-39 7.5t-23 16.5q-10 11 -14 25q-6 -14 -18 -25q-11 -9 -28.5 -16.5t-46.5 -7.5t-46 12t-26 27q-11 18 -15 40h52
q2 -10 7 -18q5 -7 12.5 -12.5t21.5 -5.5q17 0 32 15t15 33t-9.5 33.5t-31.5 15.5q-11 0 -18.5 -4t-12.5 -9q-6 -5 -10 -12h-52l29 146h139v-48h-104l-12 -55q5 5 13 9q7 3 16.5 6t23.5 3q20 0 33 -7.5t21 -16.5q10 -11 15 -24q4 15 14 27q8 10 23 18.5t39 8.5t41.5 -9.5
t28.5 -20.5q13 -13 23 -30q11 17 25 30q12 11 29 20.5t39 9.5zM425 221q11 0 21.5 6.5t18.5 14.5q10 9 18 21q-8 11 -18 21q-8 8 -18.5 15t-21.5 7q-22 0 -34.5 -12.5t-12.5 -30.5t12.5 -30t34.5 -12zM599 221q22 0 34 12t12 30t-12 30.5t-34 12.5q-11 0 -21.5 -7t-18.5 -15
q-10 -10 -18 -21q8 -12 18 -21q8 -8 18.5 -14.5t21.5 -6.5z" />
    <glyph glyph-name="aboutme" unicode="aboutme" 
d="M163 195v209h32v-29q11 16 27 24q16 10 37 10q25 0 39 -10q15 -9 21 -27q25 37 65 37q32 0 49 -17q17 -19 17 -53v-144h-36v132q0 21 -3 30q-5 11 -13 15q-9 6 -22 6q-22 0 -37 -15q-14 -13 -14 -46v-122h-36v136q0 23 -9 35t-29 12q-14 0 -28 -8q-14 -9 -18 -23
q-6 -15 -6 -43v-109h-36zM648 263l37 -5q-9 -32 -32 -50q-25 -17 -61 -17q-47 0 -74 28t-27 79q0 53 28 82q27 29 71 29q42 0 69 -29t27 -80v-9h-158q1 -35 20 -53q18 -18 44 -18q21 0 34 10t22 33zM530 320h118q-1 24 -13 39q-18 21 -45 21q-24 0 -41 -17q-18 -18 -19 -43z
" />
    <glyph glyph-name="addme" unicode="addme" 
d="M634 357v-105h-157v-156h-105v156h-157v105h157v157h105v-157h157v0z" />
    <glyph glyph-name="amazon" unicode="ama&#x7a;on" 
d="M636 141q-11 -10 -22 -15q-42 -26 -92 -39.5t-98 -13.5q-75 0 -141 27.5t-117 75.5q-5 4 -2.5 7.5t7.5 0.5q56 -33 122 -52t137 -19q45 0 91.5 8.5t92.5 27.5q3 2 6.5 3t6.5 3q8 3 12 -3t-3 -11zM684 189q-4 5 -25.5 7t-44.5 -5q-13 -5 -23 -12q-4 -3 -3.5 -5.5t4.5 -2.5
q5 1 10.5 1.5t11.5 1.5q14 1 27.5 0.5t18.5 -5.5q3 -3 1.5 -11.5t-4.5 -19t-6.5 -20.5t-6.5 -17q-2 -4 1 -5t7 2q17 15 25 39t9 39v3q0 6 -2 10zM572 255q-8 -8 -21 -19t-22 -19q-6 -4 -14 -1q-14 12 -19 19.5t-13 18.5q-25 -28 -52 -37q-20 -5 -40 -5q-35 0 -59.5 22.5
t-24.5 67.5q0 35 16.5 59t43.5 36q14 7 30.5 10.5t33.5 5.5q11 2 21.5 2.5t19.5 1.5v8q0 11 -0.5 22t-5.5 20q-5 8 -14 11.5t-18 3.5h-3q-15 -2 -26.5 -10t-15.5 -25q-2 -10 -10 -11l-55 7q-2 1 -5.5 3.5t-1.5 8.5q4 24 15.5 40.5t27 27t34 15.5t37.5 6h11q20 0 44 -6.5
t41 -22.5q20 -20 22 -45.5t2 -54.5v-91q0 -20 7 -31.5t15 -22.5q2 -4 2.5 -8t-3.5 -7zM472 358v12q-11 0 -21.5 -1t-19.5 -3q-18 -5 -30 -17.5t-12 -36.5q0 -20 8.5 -31.5t25.5 -11.5q2 0 4 0.5t4 0.5q20 5 31 27q8 15 9 29.5t1 31.5z" />
    <glyph glyph-name="aol" unicode="aol" 
d="M483 564q27 0 45.5 -18.5t18.5 -44.5t-18.5 -44t-45.5 -18q-26 0 -45 18t-19 44t19 44.5t45 18.5zM229 173l10 3q11 3 25.5 9t30 16.5t29.5 26t25 37.5q2 2 2.5 7t2.5 19q5 55 21.5 86.5t49.5 50.5l5 2l5 -3q17 -9 31 -12l8 -1v-13v-1q0 -2 1 -2q0 -6 1 -7l1 -3l4 -2
q18 -6 38 -6q18 0 33.5 4t26.5 9l9 4l27 -61l-8 -4q-28 -14 -50 -20.5t-42 -6.5q-10 0 -18.5 1t-17.5 2h-4q-2 0 -3 0.5t-2 0.5q-2 0 -3.5 -1t-2.5 -7q-1 -1 2 -3l1 -1l1 -1q2 0 3 -1q95 -47 145 -147l5 -8l-67 -38l-5 9q-5 8 -13.5 20t-23 25t-34.5 26t-47 25l-4 2
q-3 0 -4 -3l-7 -9q-11 -14 -23 -28.5t-29 -28t-40.5 -25t-56.5 -19.5l-9 -3z" />
    <glyph glyph-name="appstorealt" unicode="appstorealt" 
d="M425 561q54 0 101.5 -20.5t83 -56t56 -83t20.5 -101.5t-20.5 -102t-56 -83.5t-83 -56t-101.5 -20.5t-102 20.5t-83.5 56t-56 83.5t-20.5 102t20.5 101.5t56 83t83.5 56t102 20.5zM425 64q49 0 91.5 18.5t74.5 50.5t50.5 75t18.5 92t-18.5 91.5t-50.5 74.5t-74.5 50.5
t-91.5 18.5t-92 -18.5t-75 -50.5t-50.5 -74.5t-18.5 -91.5t18.5 -92t50.5 -75t75 -50.5t92 -18.5zM372 457h105v-183h78l-130 -131l-131 131h78v183z" />
    <glyph glyph-name="appstore" unicode="appstore" 
d="M417 419q5 -2 6 -7t-1 -9l-144 -250q-6 -11 -16 -4l-31 17q-4 3 -5.5 7.5t1.5 9.5l143 249q2 5 7 6t9 -1zM252 135q11 -6 0 -13l-39 -27q-5 -3 -7.5 -1.5t-1.5 6.5l5 47q2 11 12 6zM457 349l45 -105h-143l67 105h31zM229 244h-54q-5 0 -8.5 3t-3.5 8v85q0 5 3.5 7t8.5 2
h119zM674 349q12 0 12 -9v-85q0 -11 -12 -11h-52l-53 105h105zM590 257q6 -10 -1.5 -18t-13.5 -10q-7 -3 -12 -4.5t-14 3.5q-5 2 -17 26.5t-26.5 55t-27.5 60.5t-19 44t-16.5 37t-19.5 46t-13.5 40.5t1.5 20.5q4 2 13 -10t20 -30.5t23.5 -40t23.5 -38.5q11 -18 27 -46.5
t31 -57t26.5 -51t14.5 -27.5zM608 158q-5 -2 -10.5 -1t-7.5 6l-19 29q-3 5 -2 10t6 7l18 9q11 6 18 -6l14 -28q3 -5 1.5 -10.5t-6.5 -7.5zM614 150q20 11 29.5 2.5t12.5 -23.5q4 -18 2 -44q-2 5 -7.5 8t-12.5 6t-14.5 7t-12.5 11q-10 14 -5.5 22t8.5 11z" />
    <glyph glyph-name="apple" unicode="apple" 
d="M556 326q0 -27 10 -45t22 -29t22.5 -16l10.5 -5q-1 -2 -8.5 -22t-25.5 -45q-15 -22 -31.5 -39.5t-41.5 -18.5q-12 0 -21 2.5t-17.5 6.5t-18 7t-23.5 3t-23.5 -3t-18 -6.5t-17 -6.5t-20.5 -4q-23 -1 -42 18.5t-34 41.5t-28 51.5t-18.5 61.5t-2.5 64.5t19 59.5t42 42.5
t57 16.5q12 0 23.5 -3t21.5 -6.5t19 -7t16 -3.5t17 4t22 8t25.5 7t27.5 2q6 0 16.5 -1.5t23 -6.5t25 -14t23.5 -24q-1 -1 -9 -6.5t-18 -16.5t-17.5 -28t-7.5 -39zM495 501q-12 -15 -31.5 -25t-39.5 -8q-3 20 5.5 39.5t20.5 32.5q13 15 32.5 25t38.5 11q2 -21 -5.5 -40.5
t-20.5 -34.5z" />
    <glyph glyph-name="bebo" unicode="bebo" 
d="M448 92h-47q-38 0 -72 15.5t-59.5 41.5t-40 60.5t-14.5 72.5v235q0 20 16.5 33t36.5 13q19 0 35.5 -13t16.5 -33v-235q0 -38 21.5 -61.5t59.5 -23.5h47q19 0 36 6t29.5 16.5t20 24.5t7.5 31q0 34 -15 56.5t-32 22.5h-93q-19 0 -32.5 10t-13.5 29t13.5 29t32.5 10h93
q29 0 54.5 -13t44.5 -36t30 -54t11 -67q0 -35 -14.5 -66t-40 -54t-59.5 -36.5t-72 -13.5z" />
    <glyph glyph-name="behance" unicode="behance" 
d="M402 422q13 -19 13 -48t-13 -46q-4 -5 -9 -9t-13 -9q23 -9 33 -28q12 -18 12 -45t-13 -50q-9 -16 -20 -25q-13 -11 -33 -16q-9 -2 -19 -3t-21 -1h-130v314h139q53 -2 74 -34zM268 403v-78h48q10 0 17.5 3.5t13.5 7.5q11 8 11 30q0 11 -3.5 19t-11.5 11q-7 3 -15 5t-19 2
h-41zM268 273v-79h48q17 0 29 7q19 10 19 39q0 13 -4.5 19.5t-13.5 11.5q-5 2 -12.5 2h-16.5h-49zM608 367q20 -10 34 -33q6 -10 10 -20.5t6 -24.5q0 -4 0.5 -11t0.5 -14q0 -9 1 -18h-144q1 -20 6 -30.5t15 -17.5q5 -4 12.5 -6.5t15.5 -2.5q9 0 16 4t13 9q3 3 5.5 3.5
t4.5 14.5h53q-1 -14 -6 -23t-13 -20q-14 -16 -32.5 -25t-41.5 -9q-40 0 -70 27t-30 88q0 57 27 89q27 30 71 30q26 0 46 -10zM531 312q-5 -7 -8.5 -13t-5.5 -26h89q-1 20 -4 26.5t-10 12.5q-12 12 -30 12q-21 0 -31 -12zM608 403h-105v53h105v-53z" />
    <glyph glyph-name="bing" unicode="bing" 
d="M425 414q49 0 91.5 -13t74.5 -35.5t50.5 -53t18.5 -64.5q0 -35 -18.5 -65t-50.5 -53t-74.5 -36t-91.5 -13q-48 0 -90.5 12.5t-74 34.5t-50.5 51.5t-20 63.5h-1v309h79v-189q22 15 41.5 25t38 16t37.5 8t40 2zM425 137q31 0 58 9t47 24t32 35t12 43t-12 43t-32 35t-47 24
t-58 9t-58.5 -9t-47.5 -24t-32 -35t-12 -43t12 -43t32 -35t47.5 -24t58.5 -9zM524 249q0 -15 -8 -28t-21.5 -23t-31.5 -15.5t-38 -5.5q-21 0 -39 5.5t-31.5 15.5t-21 23t-7.5 28q0 31 28.5 52t70.5 21q41 0 70 -21t29 -52z" />
    <glyph glyph-name="blip" unicode="blip" 
d="M215 385q60 0 114 -23.5t94 -63.5t63.5 -93.5t23.5 -113.5h-86q0 42 -15.5 80.5t-44.5 67.5t-68 45t-81 16v85zM215 535q91 0 172 -35t142 -95.5t96 -141.5t35 -172h-85q0 74 -28.5 139.5t-77.5 114t-114.5 77t-139.5 28.5v85zM189 117l26 26v78l131 -130h-78l-26 -27z
" />
    <glyph glyph-name="blogger" unicode="blogger" 
d="M660 330l-1 -120q0 -31 -12 -58t-32 -47t-47 -31.5t-58 -11.5h-171q-31 0 -58 11.5t-47.5 31.5t-32.5 47t-12 58v173q0 31 12 58t32.5 47t47.5 32t58 12h104q14 -2 31 -8.5t33 -17t29.5 -25t21.5 -30.5q2 -5 4 -8t3.5 -8t3 -13t3.5 -21l3.5 -24.5t8.5 -16.5q4 -4 13.5 -5
t19.5 -1t19 -0.5t12 -3.5l7 -5l4 -8zM341 411q-12 0 -20.5 -8.5t-8.5 -20.5q0 -11 8.5 -19.5t20.5 -8.5h82q12 0 20.5 8.5t8.5 19.5q0 12 -8.5 20.5t-20.5 8.5h-82zM509 184q11 0 19.5 8.5t8.5 19.5q0 12 -8.5 20.5t-19.5 8.5h-168q-12 0 -20.5 -8.5t-8.5 -20.5
q0 -11 8.5 -19.5t20.5 -8.5h168z" />
    <glyph glyph-name="coroflot" unicode="coroflot" 
d="M528 306q40 0 68 -28t28 -68q0 -19 -7 -36t-19.5 -29.5t-29 -20.5t-35.5 -9q4 13 4 31q0 42 -23.5 75.5t-61.5 47.5q14 17 33.5 27t42.5 10zM406 249q21 0 40 -8t33 -22t22 -33t8 -40t-8 -40t-22 -33t-33 -22t-40 -8t-40 8t-33 22t-22 33t-8 40t8 40t22 33t33 22t40 8z
M375 163q10 0 16.5 6.5t6.5 16.5q0 9 -6.5 15.5t-16.5 6.5t-16.5 -6.5t-6.5 -15.5q0 -10 6.5 -16.5t16.5 -6.5zM364 270q1 33 -4.5 60.5t-15 46.5t-22.5 29t-28 9q-29 -3 -50 -1t-18 17q1 7 7 8.5t12.5 1.5t12.5 2t7 12q1 9 -0.5 16t-2 13t2.5 11t13 10q9 5 15.5 2.5
t10 -10.5t4.5 -19.5t0 -23.5q34 8 65.5 -5t56.5 -35.5t43.5 -47t27.5 -39.5q-5 -2 -9.5 -3t-9.5 -3q-25 39 -48 62t-43 35t-37 14.5t-29 1.5q22 -17 35.5 -40.5t21 -46.5t10 -42.5t2.5 -27.5q-18 -2 -30 -7z" />
    <glyph glyph-name="daytum" unicode="daytum" 
d="M255 58h-52v157h52v-157zM334 58h-53v261h53v-261zM412 58h-52v209h52v-209zM491 58h-53v366h53v-366zM569 58h-52v261h52v-261zM647 58h-52v418h52v-418zM647 503q0 -1 -1 -1h-442l-1 1v51q0 1 1 1h442l1 -1v-51z" />
    <glyph glyph-name="delicious" unicode="delicious" 
d="M634 300h-209v209h209v-209v0zM425 91h-210v209h210v-209v0z" />
    <glyph glyph-name="designbump" unicode="designbump" 
d="M398 388v52h-52l105 105l104 -105h-52v-156zM398 179v105h105zM398 127h53v-53h-53v53zM425 310h-53v-236h-104v236h-53l105 104zM634 153h-53v-79h-104v79h-52l104 104z" />
    <glyph glyph-name="designfloat" unicode="designfloat" 
d="M298 247q5 -20 13.5 -32t18.5 -19.5t21 -12.5t21 -10v-52q-29 6 -50 15.5t-36 24.5t-24.5 36t-15.5 50h52zM372 427q-20 -11 -42 -36.5t-32 -64.5h-52q12 58 39.5 99t86.5 54v-52zM552 326q-21 80 -101 101v52q59 -13 99.5 -53.5t53.5 -99.5h-52zM532 300
q0 -23 -8.5 -42.5t-23 -34t-34 -23t-41.5 -8.5q-23 0 -42.5 8.5t-34 23t-23 34t-8.5 42.5q0 22 8.5 41.5t23 34t34 23t42.5 8.5q22 0 41.5 -8.5t34 -23t23 -34t8.5 -41.5zM425 216q35 0 59 24.5t24 59.5t-24 59t-59 24t-59.5 -24t-24.5 -59t24.5 -59.5t59.5 -24.5zM425 535
q49 0 91.5 -18.5t74.5 -50.5t50.5 -74.5t18.5 -91.5t-18.5 -92t-50.5 -75t-74.5 -50.5t-91.5 -18.5t-92 18.5t-75 50.5t-50.5 75t-18.5 92t18.5 91.5t50.5 74.5t75 50.5t92 18.5zM425 88q44 0 82.5 16.5t67 45.5t45 67.5t16.5 82.5t-16.5 82.5t-45 67.5t-67 45.5t-82.5 16.5
t-82.5 -16.5t-67.5 -45.5t-45.5 -67.5t-16.5 -82.5t16.5 -82.5t45.5 -67.5t67.5 -45.5t82.5 -16.5zM451 173q19 5 35.5 10t29 12.5t22 19.5t14.5 32h52q-13 -59 -54 -86.5t-99 -39.5v52z" />
    <glyph glyph-name="deviantart" unicode="deviantart" 
d="M419 231l-216 -62q-16 39 -14 76q1 16 5.5 32.5t15 32t28 30t44.5 25.5l-27 56l67 7l23 -45h3q88 15 147.5 4t96.5 -31q43 -23 68 -56l-216 -62l-50 101q18 4 35 3t32 -3l21 -40l73 20q-27 17 -58 28q-27 9 -62 12t-75 -8zM334 259l-33 66q-23 -15 -31.5 -30t-10.5 -27
q-2 -14 3 -28z" />
    <glyph glyph-name="diggalt" unicode="diggalt" 
d="M242 470h52v-78v-183h-131v183h79v78zM242 261v78h-27v-78h27zM372 418h-52v52h52v-52v0zM372 209h-52v183h52v-183v0zM398 392h131v-183v-26v-53h-131v53h79v26h-79v183zM451 261h26v78h-26v-78zM555 392h131v-183v-26v-53h-131v53h79v26h-79v183zM608 261h26v78h-26
v-78z" />
    <glyph glyph-name="digg" unicode="digg" 
d="M686 417v-153h-52v-156h-231v156h-22h-43h-44v-26q27 -2 48.5 -20.5t21.5 -44.5v-16v-33q0 -7 -5 -11.5t-13 -4.5h-139q-8 0 -13 4.5t-5 11.5v49q0 13 7 24.5t18.5 20t25.5 14t28 6.5v26h-105v156q20 17 41 31q18 11 38.5 21t38.5 10q17 0 38 -10t38 -21q20 -14 41 -31
v-3h27v109h183v-109h78zM320 173q0 9 -7.5 15.5t-18.5 6.5h-35q-11 0 -18.5 -6.5t-7.5 -15.5v-22h87v22zM346 401q-19 17 -37 27.5t-28 10.5t-28 -10.5t-38 -27.5v-84h131v84zM477 395h78v79h-78v-79zM634 373h-26v-30h-183v26h-27v-52h53v-157h56v78h22v-78h52v157h53v56z
" />
    <glyph glyph-name="dribble" unicode="dribble" 
d="M425 63q-49 0 -92 18.5t-75 50.5t-50.5 75t-18.5 92q0 48 18.5 91t50.5 75t75 50.5t92 18.5q48 0 91 -18.5t75 -50.5t50.5 -75t18.5 -91q0 -49 -18.5 -92t-50.5 -75t-75 -50.5t-91 -18.5zM311 139q49 -36 114 -36q32 0 61 10q-6 73 -29 142q-45 -15 -82.5 -44.5
t-63.5 -71.5zM496 265q10 -32 17 -66t11 -69q36 21 60.5 54.5t32.5 75.5q-18 5 -35.5 7.5t-34.5 2.5q-23 0 -51 -5zM229 290q3 -72 52 -124q29 45 71 77t92 49q-4 13 -11 28q-43 -16 -87.5 -23.5t-89.5 -7.5h-12.5t-14.5 1zM547 309q36 0 74 -9q0 60 -35 109
q-54 -47 -117 -75q4 -8 7 -16t7 -16q16 4 32 5.5t32 1.5zM231 329q6 -1 12 -1h13q82 0 159 27q-34 63 -80 118q-42 -22 -69.5 -60t-34.5 -84zM374 488q23 -28 42.5 -57.5t35.5 -60.5q29 13 56 30.5t53 38.5q-28 27 -63 41.5t-73 14.5q-13 0 -26 -2t-25 -5z" />
    <glyph glyph-name="drupal" unicode="drupal" 
d="M529 478q5 -4 22 -16t35.5 -34.5t33 -55.5t14.5 -78t-17 -82t-45.5 -63t-66 -40.5t-79.5 -14.5t-80 15.5t-67 42.5t-46.5 64.5t-17.5 81.5t15 76.5t34 54t37 34t24 15.5q15 8 28 14t31 20q8 7 14.5 18.5t9.5 34.5q12 -14 25.5 -29t24.5 -23q17 -11 34.5 -17.5t36.5 -17.5
zM264 390q2 -1 13.5 1t37.5 16q26 15 39.5 26t27.5 26q8 8 10 12.5t2 6.5q0 3 -6 5q-4 2 0 3l7 3.5t7 4.5q2 1 7.5 6.5t6.5 13.5q0 16 -4 31q-3 -23 -9.5 -32t-16.5 -17q-15 -11 -28.5 -18t-16.5 -9q-5 -2 -14.5 -7.5t-21 -13.5t-23 -18.5t-19.5 -23.5q-5 -8 -2.5 -11.5
t3.5 -4.5zM531 140q2 2 2 4v4q-2 5 -7 1q-7 -5 -22 -10t-37 -5q-23 0 -34.5 4t-18.5 9q-1 1 -4 1t-7 -3q-2 -2 -2 -4.5t2 -4.5q16 -14 38 -15.5t41 0.5t33 9.5t16 9.5zM451 178q-8 -6 -3 -11q2 -4 13 5q6 5 11.5 8t17.5 3t16 -3.5t6 -7.5q4 -7 7 -5q6 1 4 9q-2 3 -4 8t-7 8
q-4 3 -9.5 3.5t-11.5 0.5q-5 0 -9 -0.5t-10 -2.5t-11.5 -6.5t-9.5 -8.5zM571 189q9 -1 15.5 4t14.5 16q8 12 12 28.5t4 27.5t-6 24t-23 13q-8 0 -20 -7t-24.5 -15t-24 -15.5t-20.5 -7.5q-11 0 -23 8.5t-26.5 18t-32 18t-37.5 8.5q-16 0 -29.5 -6t-24 -15.5t-16.5 -22
t-6 -25.5q-2 -30 20 -44q7 -5 16 -7.5t29 -2.5q17 0 36 8.5t36.5 19t33 19t25.5 8.5q8 0 17.5 -8.5t19.5 -18t19 -18t15 -8.5z" />
    <glyph glyph-name="ebay" unicode="ebay" 
d="M738 431l-84 -156v-82h-64v82l-19 39v40q0 20 -8.5 35t-40.5 20l-11 22h69l45 -101l49 101h64zM499 264q10 0 15.5 6t7 15t1.5 18.5v16.5q-9 -1 -16.5 -1.5t-13.5 -2.5t-9 -8t-3 -17q0 -9 3 -18t15 -9zM501 410h11t10 -1l49 -95v-44q0 -8 0.5 -16t1.5 -16h-46l-2 22
q-8 -12 -18.5 -18.5t-27.5 -6.5q-8 0 -11 1v22q0 18 -2 40t-14 35q12 10 31 12t40 1v13q0 11 -3 18t-17 7q-13 0 -15.5 -8t-2.5 -18h-48q0 30 18 41q15 11 46 11zM420 259q0 25 -2 41t-18 16q-15 0 -17.5 -16t-2.5 -41q0 -32 3.5 -46t16.5 -14t16.5 14t3.5 46zM433 289
q0 -20 8 -34.5t27 -18.5q-1 -12 -3 -23.5t-7 -21t-14 -15.5t-24 -6q-30 0 -41 22h-1v-18h-46v34q1 0 1 1q32 13 34 38h-35v17h36q2 23 -4 41t-32 29v80h48v-89h1q8 11 17 15t22 4q11 0 18.5 -3t13.5 -8q-19 -13 -19 -44zM239 322q-15 0 -23 -4t-11.5 -9t-4 -11.5t-0.5 -10.5
h80q0 5 -0.5 11t-4 11.5t-12 9t-24.5 3.5zM332 247v-39q-12 -5 -25 -8q-14 -3 -31 -5t-37 -2q-43 0 -68 6t-38.5 16.5t-17.5 25t-4 31.5q0 15 3.5 29t17 24t38.5 16t69 6q21 0 37.5 -1.5t29.5 -3.5q14 -3 26 -8v-70h-132q0 -7 0.5 -14.5t4.5 -14t12 -11t22 -4.5q24 0 31 8.5
t7 18.5h30h25z" />
    <glyph glyph-name="email" unicode="email" 
d="M315 298l-126 -90v180zM660 466l-235 -168l-236 168v61h471v-61zM660 388v-180l-126 90zM507 279l153 -110v-60h-471v60l153 110l83 -59z" />
    <glyph glyph-name="emberapp" unicode="emberapp" 
d="M593 249l14 16q-5 -21 -13.5 -42t-23.5 -39q-47 -61 -146 -64q-109 4 -162 104v5q2 18 7.5 45.5t25.5 53.5q17 23 39.5 43.5t44.5 39.5q21 17 38 32.5t27 30.5q19 -15 43 -35.5t45.5 -44.5t37 -49t17.5 -48zM626 387q-1 5 3 -15.5t4.5 -54.5t-6 -75t-28.5 -77t-64 -61.5
t-111 -27.5q-19 1 -47.5 6.5t-58.5 24t-57.5 54.5t-45.5 97q3 -4 7 -6q7 -5 14 -2q4 1 5 13.5t4 31.5t10 41.5t23 44.5q20 27 46.5 50t50.5 43.5t41.5 38.5t18.5 34q45 -33 82 -68q32 -30 59 -67t32 -72q6 8 10 16q4 7 6.5 15t1.5 16zM608 271q0 12 2 22.5t1 21.5l2 -1
l-20 -24l-6 48q-2 23 -17.5 48t-37 49t-45.5 45t-43 36q-10 -15 -27 -31t-38 -33q-22 -19 -44 -39t-39 -43q-20 -27 -25.5 -54.5t-7.5 -45.5q-2 -11 -2.5 -18.5t-5.5 -12.5v-1q-2 -2 -2 -3t-3 -3q3 -7 10.5 -13.5t7.5 -13.5q20 -52 61.5 -79.5t98.5 -29.5q50 2 83.5 18
t57.5 46q19 24 29 53t10 58z" />
    <glyph glyph-name="etsy" unicode="etsy" 
d="M346 496v-183h116q21 0 34.5 4t21.5 11q9 8 14 25.5t6 37.5h17v-183h-17q-4 38 -10 49q-6 13 -21 21q-15 9 -45 9h-116v-148q0 -18 2.5 -28.5t4.5 -14.5t5.5 -7.5t6.5 -5.5q8 -5 30 -5h83q20 0 35 2t25 5q9 3 18 9.5t18 15.5q11 12 22.5 32t22.5 40h15l-42 -131h-377v27
h18q8 0 16.5 -1t16.5 4q5 3 11.5 6t8.5 9t5 17t3 31v287q0 25 -4.5 37.5t-9.5 17.5q-6 8 -19 9t-28 1h-18v26h377l5 -105h-14q-4 20 -8 32t-9 20q-9 14 -27 22q-11 5 -51 5h-142z" />
    <glyph glyph-name="facebook" unicode="facebook" 
d="M491 409q-7 0 -17 -6.5t-10 -19.5v-26h79v-104h-79v-210h-104v210h-79v104h79v52q0 20 9 39t25.5 33.5t38.5 23.5t48 9h88v-105h-78z" />
    <glyph glyph-name="feedburner" unicode="feedburner" 
d="M607 239q25 -14 39 -30t14 -35q0 -21 -18.5 -39.5t-50.5 -32.5t-75 -22t-91 -8q-49 0 -92 8t-75 22t-50.5 32.5t-18.5 39.5q0 20 15.5 36.5t42.5 30.5q20 -66 64.5 -102.5t104.5 -37.5q31 0 61.5 11t56 29.5t45 44t28.5 53.5zM483 437q21 -12 40 -26t33.5 -33t23.5 -45
t9 -62q0 -32 -15 -62t-39 -54t-55.5 -38.5t-64.5 -14.5q-34 0 -63 15.5t-50 43.5t-33 67.5t-12 88.5q0 35 11 75t28.5 77t40.5 68t47 48q-11 -28 -8.5 -47.5t10.5 -36.5t17.5 -33t13 -36.5t-2.5 -47.5t-29 -65q24 -7 44.5 -1t34.5 22t19.5 40.5t-0.5 56.5zM415 136
q51 1 82.5 24t43.5 55.5t3.5 67t-39.5 58.5q-11 -47 -34 -79.5t-61 -31.5q-17 0 -33.5 10.5t-28 29.5t-16 45t2.5 56q-32 -53 -36 -96.5t10.5 -74.5t43 -48t62.5 -16z" />
    <glyph glyph-name="flickr" unicode="flickr" 
d="M660 299q0 -22 -8.5 -41t-22.5 -33.5t-33 -22.5t-41 -8q-21 0 -40 8t-33.5 22.5t-22.5 33.5t-8 41t8 41t22.5 33t33.5 22t40 8q22 0 41 -8t33 -22t22.5 -33t8.5 -41zM399 299q0 -22 -8.5 -41t-22.5 -33.5t-33 -22.5t-41 -8t-41 8t-33.5 22.5t-22.5 33.5t-8 41t8 41
t22.5 33t33.5 22t41 8t41 -8t33 -22t22.5 -33t8.5 -41z" />
    <glyph glyph-name="foodspotting" unicode="foodspotting" 
d="M242 267h-53v262h53v-262zM201 61v154h95v-26h-67v-36h58v-27h-58v-65h-28zM313 118q0 15 6 29q8 14 19 21t27 7q22 0 37 -16q15 -17 15 -42q0 -26 -15 -42q-15 -17 -37 -17q-11 0 -27 7q-11 7 -19 21q-6 13 -6 32zM340 117q0 -16 7 -26q7 -9 18 -9t17 9q7 8 7 26
q0 17 -7 25q-6 9 -17 9t-18 -9q-7 -11 -7 -25zM432 118q0 15 6 29q6 13 19 21q11 7 26 7q23 0 38 -16q15 -17 15 -42q0 -26 -15 -42q-15 -17 -37 -17q-8 0 -14 2t-13 5q-13 8 -19 21t-6 32zM459 117q0 -18 7 -26q7 -9 18 -9q9 0 17 9q7 8 7 26q0 17 -7 25q-8 9 -17 9
q-11 0 -18 -9q-7 -8 -7 -25zM649 61h-25v16q-7 -10 -15 -14q-8 -5 -17 -5q-17 0 -29 16q-13 16 -13 43q0 28 12 43t31 15q17 0 29 -15v55h27v-154zM578 119q0 -18 4 -26q5 -11 18 -11q10 0 16 8q6 9 6 26q0 19 -6 28t-16 9t-16 -9q-6 -8 -6 -25zM608 529q22 0 37 -15.5
t15 -36.5v-157q0 -22 -15 -37.5t-37 -15.5h-262q-21 0 -36.5 15.5t-15.5 37.5v157q0 21 15.5 36.5t36.5 15.5h53l26 52h104l26 -52h53zM477 294q22 0 41 8t33 22t22.5 33t8.5 41t-8.5 41t-22.5 33t-33 22.5t-41 8.5t-41 -8.5t-33.5 -22.5t-22.5 -33t-8 -41t8 -41t22.5 -33
t33.5 -22t41 -8zM529 398q0 -22 -15 -37t-37 -15t-37 15t-15 37t15 37t37 15t37 -15t15 -37z" />
    <glyph glyph-name="forrst" unicode="forrst" 
d="M640 85h-194v86l87 43v21l-87 -43v43l43 22v21l-43 -21v42h-43v-85l-65 21v-21l65 -22v-107h-194l216 471l215 -471v0z" />
    <glyph glyph-name="foursquare" unicode="foursquare" 
d="M660 505v-7v-16v-133v-21l-100 -80l15 -16l-150 -158l-130 137q-22 0 -41 9.5t-33.5 24.5t-23 35.5t-8.5 43.5q0 24 8.5 44.5t23.5 36t34.5 24.5t41.5 9q35 0 63 -21.5t39 -55.5l26 28l65 -67l153 164zM643 463l-222 -241l-38 68q6 15 6 34q0 20 -7 38t-19.5 31.5
t-29.5 21t-36 7.5t-36 -7.5t-29.5 -21t-19.5 -31.5t-7 -38t7 -37.5t19.5 -31t29.5 -21t36 -7.5q8 0 15.5 2t15.5 4l90 -86l225 187v129z" />
    <glyph glyph-name="friendsfeed" unicode="friendsfeed" 
d="M455 384q0 24 8 44.5t22 36t33 24.5t40 9h68v-76h-68q-10 0 -18.5 -10.5t-8.5 -27.5v-45h76v-76h-76v-183h-76v183h-2h-38h-38v-183h-77v183h-76v76h76v45q0 24 8 44.5t22 36t33 24.5t40 9h69v-76h-69q-10 0 -18 -10.5t-8 -27.5v-45h38h38h2v45z" />
    <glyph glyph-name="friendstar" unicode="friendstar" 
d="M647 394q9 -11 12 -32.5t-2 -49.5q-3 -19 -16 -46t-38 -52.5t-62 -44.5t-87 -20h-5q-63 0 -104.5 39.5t-58.5 116.5q-5 25 -21 39.5t-27 14.5h-49v49h67q19 0 35 -8t28.5 -20t21.5 -26t14 -26q2 -4 3 -7.5t3 -8.5q6 -15 8.5 -32t11 -32t26.5 -26t55 -14q35 -2 57.5 12
t36 35t19.5 43.5t8 37.5q6 32 13 48t30 18h3q11 0 18 -8zM426 307q-8 1 -13 5t-8 9q-8 13 -10.5 30.5t2.5 34.5q7 23 15.5 27t15.5 4q8 0 16 -8t14.5 -21.5t5.5 -28.5q-1 -20 -9 -36.5t-25 -16.5q-2 0 -4 1zM511 317q-5 0 -10 5t-8.5 14.5t-5.5 20t-2.5 21.5t-0.5 20
q2 23 7 33t16 12h2q7 0 14 -6t12 -15.5t8.5 -21.5t3.5 -25q0 -56 -35 -58h-1z" />
    <glyph glyph-name="gdgt" unicode="gdgt" 
d="M216 486l26 26h287l26 -26v-154l79 154v-157l-79 -131v-130l-26 -27h-261l-26 27v52h235v78h-235l-26 26v262zM294 277h183v157h-183v-157z" />
    <glyph glyph-name="github" unicode="github" 
d="M425 266q30 0 56 -9t45.5 -24t31 -35t11.5 -43t-11.5 -43t-31 -35t-45.5 -23.5t-56 -8.5t-56 8.5t-45.5 23.5t-31 35t-11.5 43q0 27 16 50t42 38q-5 11 -7.5 22.5t-2.5 23.5q0 26 11 51q-20 16 -32 39.5t-12 51.5q0 24 9 45.5t25 37.5t37.5 25.5t46.5 9.5q34 0 63 -20
l85 47v-79l-41 -22q7 -6 11.5 -19.5t4.5 -24.5q0 -24 -9.5 -45.5t-26 -37.5t-38 -25.5t-46.5 -9.5h-4q-2 0 -3 -8.5t-1 -15.5t1 -13t3 -11q3 0 6 0.5t6 0.5zM417 486q-23 0 -39.5 -16t-16.5 -39t16.5 -39t39.5 -16t39.5 16t16.5 39t-16.5 39t-39.5 16zM425 113
q27 0 45.5 12.5t18.5 29.5q0 18 -18.5 30.5t-45.5 12.5q-26 0 -45 -12.5t-19 -30.5q0 -17 19 -29.5t45 -12.5z" />
    <glyph glyph-name="googlebuzz" unicode="googlebu&#x7a;&#x7a;" 
d="M223 394q32 42 85.5 66t116.5 24q35 0 69.5 -8t63.5 -25l-200 -184zM264 92q-11 0 -19.5 1t-14.5 3q13 8 22.5 22t16.5 28l1 3l165 151l147 -140q-32 -23 -72.5 -35t-84.5 -12q-17 0 -33 1.5t-32 5.5l-5 1l-5 -2q-41 -27 -86 -27zM455 319l127 117q38 -26 58 -62t20 -75
q0 -70 -57 -121zM254 171q-65 54 -65 128q0 36 19 72l130 -123z" />
    <glyph glyph-name="googletalk" unicode="googletalk" 
d="M425 525q54 0 101.5 -15t83 -40.5t56 -59.5t20.5 -73q0 -55 -39.5 -99.5t-102.5 -67.5q52 23 80 63.5t28 91.5q0 38 -17 71.5t-47.5 59t-72 40.5t-89.5 15t-91 -14.5t-74.5 -40t-50 -59t-18.5 -70.5q0 -22 6 -41q20 -43 65 -76t105 -47h1q-3 -12 -7 -26q-5 -12 -12 -27
t-19 -31q41 3 71.5 16t50.5 27q24 17 40 37q-23 -47 -60.5 -69.5t-72.5 -29.5q-41 -9 -86 -4q28 18 44 44t24 47q-63 14 -107 51t-61 85q0 1 -2 5q-4 12 -6.5 24t-2.5 25q0 39 20.5 73t56 59.5t83.5 40.5t102 15zM410 477q42 0 79 -11.5t64 -31.5t43 -46.5t16 -56.5
q0 -43 -30 -77.5t-79 -52.5q34 22 54 53t20 68q0 29 -13.5 55.5t-36.5 47t-54.5 34t-68.5 17.5q2 1 6 1z" />
    <glyph glyph-name="gowallapin" unicode="gowallapin" 
d="M425 523q35 0 65.5 -13.5t53.5 -36.5t36.5 -53.5t13.5 -65.5q0 -30 -10 -57.5t-28 -49t-42 -37t-52 -21.5l-37 -144l-37 144q-29 6 -53 21.5t-41.5 37t-27.5 49t-10 57.5q0 35 13 65.5t36 53.5t54 36.5t66 13.5zM425 228q26 0 49 10t40 27t27 40t10 49t-10 49t-27 40
t-40 27t-49 10t-49 -10t-40 -27t-27 -40t-10 -49t10 -49t27 -40t40 -27t49 -10zM494 354q0 -29 -20 -49.5t-49 -20.5t-49.5 20.5t-20.5 49.5t20.5 49.5t49.5 20.5t49 -20.5t20 -49.5z" />
    <glyph glyph-name="gowalla" unicode="gowalla" 
d="M363 170q-5 -22 -5 -50t8 -52h-25q-7 26 -7 54t4 50q-9 2 -17.5 3t-15.5 3q0 -17 -5 -32q-3 -10 -13.5 -14.5t-21.5 -4.5q-18 0 -29 10.5t-11 27.5q0 29 23 49.5t56 44.5l11 7q17 12 19 28.5t-1 30.5q-21 -29 -39 -47t-33.5 -27.5t-27.5 -12.5t-20 -3q-24 0 -38 17
q-16 19 -11 45q3 17 15 34.5t28 33t32.5 29t27.5 21.5q-15 12 -32.5 28t-32 33.5t-23.5 35.5t-9 34q0 23 19 33q19 12 38 12q14 0 26 -6t22 -14q10 41 28 54.5t34 13.5h5q19 -2 31 -17q10 -13 13 -34t2.5 -45t-3.5 -50t-6 -48l-1 -5q120 -20 185.5 -74t84.5 -151
q3 -12 3 -24q4 -4 8 -7.5t8 -6.5q5 -5 9.5 -8.5t9.5 -8.5q-2 -15 -7 -26q-7 5 -14 11.5t-14 12.5l-1 1q-7 -38 -30 -59.5t-46 -31.5h-40l-15 13l26 5q1 0 13.5 3.5t27.5 13.5t27.5 28t13.5 47q-12 10 -22 13q-14 4 -32 7.5t-37 3.5q-51 0 -67 -33q-12 -24 -14.5 -51.5
t4.5 -49.5h-25q-7 26 -3.5 56t16.5 56q23 47 89 47q20 0 39.5 -3.5t35.5 -8.5l6 -2t7 -3q-17 91 -80 140.5t-182 66.5l-12 1l4 31q3 18 6 41.5t4 46t-1 41t-10 28.5q-4 6 -13 8q-10 1 -17.5 -5t-13 -16t-8.5 -21.5t-5 -21.5l11 -11q39 -41 33 -66q-1 -5 -4.5 -11t-13.5 -11
q-8 -3 -15 -3q-20 0 -30 16.5t-10 36.5q0 4 0.5 15t2.5 26q-18 17 -33.5 22.5t-35.5 -6.5q-7 -4 -7 -13q0 -11 9.5 -27t24 -33t32.5 -33t35 -27l17 -10l-17 -11q-10 -7 -27 -19.5t-34 -28.5t-30 -32.5t-16 -31.5q-2 -14 5 -24q8 -8 20 -8q4 0 14.5 2.5t25 12.5t33 29.5
t40.5 54.5l11 18l10 -19q5 -9 9 -23.5t3.5 -30t-7.5 -31t-23 -27.5l-11 -8q-11 -8 -21 -15t-18 -14l15 -3q1 0 16 -3.5t33 -5.5q1 4 5 12q8 17 22.5 25.5t26.5 8.5q20 0 25 -17q3 -8 2 -15.5t-5 -14.5q-12 -20 -39 -24q-10 -2 -17 -2zM370 198q0 -2 -1 -2h7q15 3 22 13
q3 4 1 9h-2q-5 0 -13.5 -4.5t-13.5 -15.5zM292 501q0 -10 4 -19t11 -9q2 0 3 0.5t3 0.5l2.5 2.5l1.5 1.5q0 3 -4.5 13t-20.5 27v-17zM275 155q2 8 2 20.5v18.5v13q-27 -22 -27 -42q0 -13 15 -13q5 0 7 1t3 2z" />
    <glyph glyph-name="grooveshark" unicode="grooveshark" 
d="M425 560q54 0 101.5 -20.5t83 -56t56 -83t20.5 -101.5t-20.5 -102t-56 -83.5t-83 -56t-101.5 -20.5t-102 20.5t-83.5 56t-56 83.5t-20.5 102t20.5 101.5t56 83t83.5 56t102 20.5zM425 534q-49 0 -91.5 -18.5t-74.5 -50.5t-50.5 -74.5t-18.5 -91.5q0 -42 14 -82
q24 -2 54 5.5t49 24.5q20 18 29 41.5t12 50t2 55t0 57.5q54 -16 91.5 -44t75.5 -70q8 -8 20.5 -27.5t28 -41.5t33 -43.5t35.5 -34.5q12 25 19 52.5t7 56.5q0 49 -18.5 91.5t-50.5 74.5t-74.5 50.5t-91.5 18.5z" />
    <glyph glyph-name="heart" unicode="heart" 
d="M655 411q10 -31 1 -67.5t-28.5 -72t-46.5 -68.5t-55.5 -58.5t-53.5 -40.5t-41 -15q-15 0 -41.5 15t-56 40.5t-58.5 58.5t-50 68.5t-31 71.5t0 68q16 52 50 74t71 22q30 0 50.5 -12.5t33 -27.5t18.5 -27.5t8 -12.5t8 12.5t19 27.5t33.5 27.5t50.5 12.5q36 -1 70 -23
t49 -73z" />
    <glyph glyph-name="hyves" unicode="hyves" 
d="M559 531h33q4 0 9.5 -5t9.5 -12.5t6 -15t0 -12.5q-1 -4 -5.5 -6.5t-10 -5t-10.5 -4.5t-7 -5q-4 -4 -5.5 -12.5t-1.5 -18.5t0.5 -21t0.5 -20v-194q0 -8 -0.5 -21t2.5 -15q2 -3 9.5 -2.5t11.5 -0.5q9 -3 16.5 -16.5t0.5 -24.5q-2 -3 -9 -5.5t-14 -4.5q-14 -7 -36.5 -13.5
t-43.5 -4.5q-6 1 -12.5 5t-12.5 10t-10 12.5t-3 12.5q1 8 16 15q4 2 11.5 2t11.5 3q5 5 3.5 19.5t-2.5 25.5v24q0 6 0.5 13.5t-1.5 9.5t-8.5 2.5t-14 0t-15 -1.5t-10.5 -1q-27 -4 -45 -6.5t-41 -10.5q-7 -2 -19 -5t-17 -10q-2 -3 -2.5 -10t0 -15.5t1.5 -16.5t1 -13
q1 -5 0 -12.5t1 -11.5q3 -5 12.5 -4t11.5 0q8 -3 16 -12t6 -20q-1 -9 -11.5 -15.5t-25 -10.5t-30 -6t-26.5 -3q-8 -1 -12.5 -1t-10.5 2q-10 2 -20 12.5t-9 20.5q1 8 10 13t17 7q2 1 6 1.5t5 2.5q3 4 2.5 15.5t-2.5 20.5q-3 26 -4 56t-1 57q-1 32 -2 58t-1 59v21.5t-2 15.5
q-3 3 -10.5 3.5t-12.5 2.5q-9 4 -14 10.5t-10 17.5v9q8 14 26 19.5t39 9.5q15 3 30 5t27 1t21 -6.5t13 -17.5q2 -5 2.5 -12t-2.5 -12q-3 -4 -8.5 -6t-12 -3.5t-12 -3.5t-7.5 -5t-2 -12v-18q0 -28 -2 -50t0 -51q1 -4 2 -13.5t4 -11.5q5 -2 11 0t11 3q29 6 50 10.5t53 7.5
q4 1 10.5 1.5l13 1t12 1t7.5 2.5q6 5 4.5 16.5t-2.5 18.5q-2 22 -2 39t2 37l2.5 20t-3.5 16q-2 3 -10 3.5t-11 2.5q-11 5 -21.5 15.5t-5.5 26.5q2 4 7 7.5t10 5.5q17 8 35.5 11t38.5 7z" />
    <glyph glyph-name="icondock" unicode="icondock" 
d="M425 57q-12 0 -22 10l-141 155q-9 10 -14 12l-6 5l-3 -7q-2 -5 -7 -12.5t-11 -13.5t-10 -6q-5 0 -8.5 4t-4.5 15l-8 75q-2 13 6 21q7 8 20 8h4l77 -7q16 -2 19 -10q1 -2 0.5 -5t-5.5 -7q-13 -14 -27 -18l-7 -3l4 -6q2 -2 5.5 -5t8.5 -8l65 -56q8 -6 14 -6q11 0 11 17v150
l-3 1q-23 12 -36 33t-13 46q0 18 7 34.5t19.5 28.5t29.5 19t36 7t36 -7t29.5 -19t19.5 -28.5t7 -34.5q0 -24 -12 -44t-34 -33l-3 -1v-149q0 -17 12 -17q4 0 7.5 2t5.5 4l62 53q10 9 13 13l5 6l-8 3q-13 4 -27 18q-7 7 -4 12q2 8 18 10l78 7h3q13 0 20 -8q9 -9 7 -21l-8 -75
q-3 -19 -13 -19q-5 0 -10 6q-7 6 -12 13.5t-7 12.5l-2 7l-7 -5q-5 -2 -13 -12l-141 -155q-10 -10 -22 -10zM425 493q-23 0 -39.5 -16t-16.5 -38q0 -23 16.5 -38.5t39.5 -15.5t39 15.5t16 38.5q0 22 -16 38t-39 16z" />
    <glyph glyph-name="icq" unicode="icq" 
d="M651 281q14 -26 6 -58q-9 -31 -37 -46q-27 -14 -59 -4q-11 3 -22 9q6 -24 0 -45t-23 -32q-18 -11 -40 -5q-18 6 -38 27l-1 -4q-9 -32 -37 -46q-29 -14 -60 -5q-17 4 -31 15q-4 5 -7.5 10t-7.5 10q-15 29 -5 59l3 9l12 19q-23 -7 -47 -2q-13 2 -20 9q-5 2 -7.5 5.5
t-5.5 7.5q-10 19 -4 35q2 8 6 15t12 13l10 9l-5 1q-18 3 -30 15q-10 7 -16 17q-14 26 -2 53q11 28 39 43q29 15 59 8l16 -5l-5 7q-15 26 -10 56q4 28 26 41q19 10 40 4q25 -6 41 -31l6 -12l3 -5l1 5v1q0 15 12 26.5t26 19.5q28 13 60 6q31 -8 45 -32l2 -3q18 -28 7 -61
l-7 -17l22 5q8 1 16.5 1t16.5 -2q12 -4 17 -10.5t19 -16.5v-1q0 -9 3.5 -18.5t-0.5 -20.5q-10 -25 -44 -41q6 -3 12 -5.5t11 -6.5q6 -4 10 -9.5t8 -11.5zM485 336l-3 -3l1 -3l2 -4l83 10q6 1 11.5 2t10.5 4q25 10 32 28l1 7l-3 9q-6 12 -23 14q-20 2 -36 -5l-8 -3zM437 469
l1 -27l7 -75q10 -5 19 -11l61 73q3 5 5.5 9.5t4.5 10.5l2 14q0 13 -5 23q-9 18 -31 22q-19 8 -38 -3q-9 -5 -16 -12.5t-9 -17.5zM322 473q-1 -16 8 -35l3 -7l60 -64l10 3l-13 79q-1 6 -3.5 11t-4.5 10q-12 23 -31 28q-8 5 -15 0q-13 -8 -14 -25zM223 333q7 -15 26 -18l6 -1
l98 12q3 10 10 20l-59 42l-18 8q-20 4 -38 -6q-20 -8 -26 -28q-6 -16 1 -29zM311 229l20 17q6 5 12 11t14 12l-2 5l-5 13l-54 -10q-7 -1 -20 -8q-23 -10 -28 -27l-1 -6l2 -7q4 -8 21 -10q18 -2 35 7zM411 163q0 20 -3 38t-4 35q-5 0 -10.5 2.5t-10.5 4.5l-57 -66
q-7 -8 -10 -19l-3 -15q0 -6 2 -12t4 -11q8 -16 29 -22q20 -5 37 5q17 7 25 27l1 7v26zM389 269q13 -13 31 -13t31 13q8 6 11 14.5t3 17.5q0 17 -14 31q-12 12 -31 12q-17 0 -31 -12q-7 -8 -10.5 -15t-3.5 -16q0 -20 14 -32zM514 153q1 18 -8 35l-4 6l-17 22l-29 28l-9 -4
l-11 -4l10 -58l8 -22q12 -25 31 -29q9 -2 15 2q11 5 14 24zM632 244q0 18 -10 29q-8 14 -25 19l-7 1l-27 -1l-76 -7l-2 -8l-5 -10l71 -57q5 -8 18 -11q19 -7 38 3t23 29z" />
    <glyph glyph-name="identica" unicode="identica" 
d="M383 523q31 0 58.5 -12.5t48 -33.5t32.5 -49t12 -60t-12 -60.5t-32.5 -49.5t-48 -33t-58.5 -12q-34 0 -60 13l-107 -35l28 115q-12 28 -12 62q0 32 12 60t32.5 49t48 33.5t58.5 12.5zM385 261q21 0 39.5 8t32 22t21.5 33t8 41q0 21 -8 40t-21.5 33.5t-32 22.5t-39.5 8
t-39.5 -8t-32 -22.5t-21.5 -33.5t-8 -40q0 -22 7 -37l-23 -85l72 29q20 -11 45 -11zM533 331q21 0 39.5 -8t32 -22t21.5 -33t8 -41q0 -29 -15 -53.5t-39 -37.5l-23 -69l-45 60q-35 8 -57 35.5t-22 64.5q0 22 8 41t21.5 33t31.5 22t39 8zM558 182q13 7 20.5 19t7.5 28
q0 23 -15.5 38.5t-37.5 15.5t-37 -15.5t-15 -38.5q0 -20 12 -35t31 -18l20 -34z" />
    <glyph glyph-name="imessage" unicode="imessage" 
d="M425 534q49 0 91.5 -16t74.5 -43.5t50.5 -65t18.5 -79.5t-18.5 -79.5t-50.5 -65.5t-74.5 -44t-91.5 -16q-21 0 -41 3.5t-39 9.5q-31 -22 -79 -22q-18 0 -33 3q20 2 35 14.5t19 31.5q-45 28 -71 71t-26 94q0 42 18.5 79.5t50.5 65t74.5 43.5t91.5 16z" />
    <glyph glyph-name="itunes" unicode="itunes" 
d="M425 560q54 0 101.5 -20.5t83 -56t56 -83t20.5 -101.5t-20.5 -102t-56 -83.5t-83 -56t-101.5 -20.5t-102 20.5t-83.5 56t-56 83.5t-20.5 102t20.5 101.5t56 83t83.5 56t102 20.5zM425 63q49 0 91.5 18.5t74.5 50.5t50.5 75t18.5 92t-18.5 91.5t-50.5 74.5t-74.5 50.5
t-91.5 18.5t-91.5 -18.5t-74.5 -50.5t-50.5 -74.5t-18.5 -91.5t18.5 -92t50.5 -75t74.5 -50.5t91.5 -18.5zM529 223q2 -20 -10.5 -34t-31.5 -16t-33 10t-16 31q-1 19 11.5 34.5t31.5 17.5q6 1 14 0.5t8 -2.5v125l-131 -30v-165v3q2 -20 -10.5 -34t-31.5 -16t-33 10t-16 32
q-2 19 10.5 34.5t31.5 17.5q6 1 14.5 0.5t8.5 -2.5v180l183 37v-236v3z" />
    <glyph glyph-name="lastfm" unicode="lastfm" 
d="M473 228l-5 11l-45 102q-11 27 -36.5 44t-56.5 17q-21 0 -40 -8t-32.5 -22t-21.5 -32.5t-8 -39.5q0 -43 29.5 -72.5t72.5 -29.5q29 0 53 15t37 40l18 -42q-20 -24 -48 -38t-60 -14q-29 0 -54.5 11t-44.5 30t-30 45t-11 55t11 54.5t30 44.5t44.5 30t54.5 11
q44 0 77.5 -22.5t51.5 -64.5q1 -2 5.5 -12t11 -25t14 -33t15.5 -36q10 -22 21.5 -35t37.5 -14t42 12.5t16 33.5t-12.5 27.5t-35.5 15.5q-42 14 -63 30.5t-21 48.5t20.5 51.5t55.5 19.5q46 0 68 -41l-30 -15q-15 22 -40 22q-17 0 -27 -10t-10 -26q0 -21 17.5 -28.5
t44.5 -16.5q37 -12 54 -28.5t17 -50.5q0 -35 -27 -58.5t-67 -23.5q-37 0 -58 17.5t-35 49.5z" />
    <glyph glyph-name="linkedin" unicode="linkedin" 
d="M190 441h104v-340h-104v340zM589 420q31 -17 51 -51.5t20 -70.5v-197h-105v197q0 8 -6 18t-11 13q-8 5 -22 5t-22 -4l-43 -21v-208h-105v340h105v-16q31 14 70 13t68 -18zM242 572q22 0 37 -15t15 -37t-15 -37.5t-37 -15.5t-37 15.5t-15 37.5t15 37t37 15z" />
    <glyph glyph-name="meetup" unicode="meetup" 
d="M246 233q-9 25 -16 49t-12 48q-5 -8 -6 -18.5t-1 -21.5q-1 -12 -1.5 -24t-4.5 -20l-2 1q-4 0 -6.5 -0.5t-5.5 -0.5q-4 -1 -12 -1h-5q-2 4 -4.5 8t-4.5 8q-5 7 -9 13.5t-9 13.5q-2 -5 0 -13q1 -6 1.5 -11.5t-0.5 -13.5q-3 -2 -9.5 -4.5t-14.5 -2.5h-5q-7 23 -7.5 46.5
t0.5 51.5v21q6 2 12 3t13 1q4 0 6 -1q6 -8 11 -18t10 -21l6 -12t6 -11q6 23 11.5 48t18.5 42q0 -1 2 -1h1q7 0 10 -1q2 0 4.5 -0.5t5.5 -0.5h4q8 -17 12.5 -39t9.5 -45q4 -17 7.5 -34.5t9.5 -33.5q-1 1 -3 1q-3 0 -9 -2q-3 -1 -6.5 -2t-7.5 -2zM404 227q-15 0 -30 8t-18 22
q-1 63 36 93q17 -2 28 -11q0 -9 -1 -16.5t-2 -15.5q-2 -8 -3 -17t0 -21q-3 0 -6 -0.5t-7 -0.5q-5 0 -10 0.5t-10 1.5q-4 -7 -3 -13t4 -11q10 -12 22 -12t20 11q8 -3 9 -8q-10 -10 -29 -10zM393 318q-1 -2 -2 -5t-2 -5q-2 -5 -4.5 -11t-2.5 -14q2 -3 7 -3h4q3 8 3.5 19
t-1.5 19l-1 4zM319 223q-10 0 -17 3q-17 7 -21.5 25t-2.5 36q2 20 11.5 37t23.5 19h3q5 0 8.5 -1t6.5 -2l9 -3q3 -12 4 -31t-3 -34q-1 1 -6 1h-2q-15 0 -27 3q-6 -23 2 -35q5 -6 11 -8h3q5 0 13 2t12 2q6 0 11 -6q-8 -3 -18.5 -5.5t-20.5 -2.5zM308 289q1 0 1.5 -0.5
t1.5 -0.5t1.5 -0.5t2.5 -0.5h1l2 1q2 7 1.5 14.5t-2.5 15.5q-11 -12 -12 -28v-1h3zM672 148q-6 2 -11 2h-7h-10q-3 8 -4.5 19.5t-2.5 22.5q-2 15 -4.5 29t-10.5 24q2 1 8 3q1 1 4 1l2.5 22.5t4.5 27t7.5 26t11.5 21.5q15 19 35 19q15 0 35 -12q11 -22 8.5 -40.5t-7.5 -30.5
q-10 -20 -27.5 -34.5t-39.5 -19.5q-3 -54 8 -80zM699 343q-16 -16 -23 -40t-11 -47q13 4 23.5 15.5t15.5 25.5q3 8 4 20t-7 26l-1 1zM562 228q-12 0 -19 9q-19 21 -13 87q7 -1 11.5 -3.5t9.5 -4.5q2 -2 6 -4v-9.5t1 -11.5q0 -24 3 -48q18 7 21.5 28.5t4.5 41.5v8q0 -1 2 -1
h2q7 0 12.5 -3.5t10.5 -7.5q2 -17 -2.5 -27.5t-10.5 -20.5q-2 -2 -2.5 -4.5t-2.5 -4.5q-5 -4 -7.5 -8t-6.5 -9l-2 -3q-8 -4 -18 -4zM464 220q1 11 0.5 20.5t-1.5 19.5q-1 6 -1.5 12.5t-0.5 13.5l-6 1q-8 1 -15 1.5t-12 3.5q0 7 3 10q1 3 8 3q2 0 4 -0.5t4 -0.5h9q2 11 1 23
t-3 25q-3 22 -4.5 43.5t4.5 40.5q1 -1 3 -1h1q11 0 17.5 -4t10.5 -9q-3 -16 -3 -33.5t1 -35.5q2 -13 2 -24.5t-1 -21.5v-2h3q4 0 4.5 3t0.5 5q0 4 2 4q6 -2 10 -5t8 -8q2 -2 4 -4.5t4 -4.5q-3 -2 -9 -3t-12 -1q-7 0 -15 -2q-1 -19 0 -38v-29q-3 -1 -6.5 -1h-6.5
q-2 0 -4 -0.5t-4 -0.5z" />
    <glyph glyph-name="metacafe" unicode="metacafe" 
d="M548 137l-69 -53l27 86l-69 52h85l26 80l27 -80h85l-69 -52l26 -86zM486 165q-2 -6 -8 -24.5t-13 -38.5l-275 198h274l84 255l106 -314h-67q-2 0 -8.5 18t-13.5 40q-8 26 -17 59q-9 -33 -17 -59q-7 -22 -13 -40t-8 -18h-125q25 -18 45 -34q17 -14 33.5 -26t22.5 -16z" />
    <glyph glyph-name="mixx" unicode="mixx" 
d="M565 264q0 -3 0.5 -6t0.5 -6q0 -32 -12 -59.5t-32 -48t-47.5 -32.5t-58.5 -12q-45 0 -81 24.5t-54 63.5q14 -47 52.5 -77t88.5 -30q30 0 57 11.5t47 32t31.5 47.5t11.5 58q0 19 -4 34zM428 139q-31 -5 -59 3t-48 25q17 -20 41 -31t53 -11q42 0 73.5 23.5t42.5 58.5
q-14 -26 -41 -44.5t-62 -23.5zM425 182q-17 -7 -34.5 -8t-31.5 3q9 -5 20.5 -8.5t24.5 -3.5q32 0 54.5 19.5t23.5 47.5q-8 -16 -22.5 -29t-34.5 -21zM407 221q-2 0 -6 5.5t-8 16.5l-99 277q-3 9 2 19q4 9 14 12q3 1 8 1q18 0 23 -19l67 -285q3 -11 2.5 -18.5t-2.5 -8.5h-1z
" />
    <glyph glyph-name="mobileme" unicode="mobileme" 
d="M625 304q21 -7 41 -22t20 -46q0 -15 -7 -32.5t-18.5 -32.5t-27.5 -24.5t-34 -9.5h-348q-18 0 -34 8.5t-28 22.5t-19 32t-7 36q0 19 8.5 32.5t21 22.5t27 13t26.5 4q9 0 13 -1v5q0 34 21.5 58t51.5 24q16 0 29.5 -7t24.5 -19q11 36 44 59.5t75 23.5q25 0 48 -9.5
t39.5 -25.5t26.5 -37.5t10 -45.5q0 -8 -1 -15t-3 -14z" />
    <glyph glyph-name="mrwong" unicode="mrwong" 
d="M526 205q8 -5 16 -10.5t14 -16.5t9 -29.5t1 -48.5q-1 -18 -6 -28t-10 -10.5t-9.5 8.5t-4.5 28q-1 43 -9.5 61t-26.5 19q-7 0 -19 0.5t-27 0.5v-51.5t-1 -34.5q0 -12 -5 -18.5t-10.5 -7.5t-10 3t-4.5 13v97h-33t-20 -1q-12 -2 -25.5 -23t-10.5 -64q1 -16 -3.5 -23.5
t-10.5 -7.5t-10.5 8t-4.5 24q-1 15 0 29q1 12 2.5 24.5t4.5 20.5q6 16 26 31.5t51 16.5h34v64q-20 2 -38.5 11.5t-23.5 31.5q-2 12 -3.5 28t-3.5 35q-15 0 -30.5 -1t-29.5 -1h-24.5t-14.5 1q-5 1 -6 6.5t0.5 11.5t5.5 11t10 5q14 2 39 1.5t48 -0.5q-2 30 -1.5 55t1.5 30
q2 11 6 20t12 7t14.5 -11t3.5 -35q-1 -11 -2 -29t-2 -38h8h88v87q0 10 9 17t16 -7q2 -4 3.5 -14t2.5 -23.5t1.5 -29t0.5 -30.5q23 0 40 -0.5t22 -1.5q14 -1 23.5 -3.5t9.5 -11.5q0 -5 -4.5 -7.5t-12 -4t-16 -2t-14.5 -0.5h-17.5t-29.5 -1q0 -14 -0.5 -24.5t-0.5 -15.5
q-2 -20 -11.5 -38.5t-30.5 -24.5q-7 -2 -19 -4q0 -10 0.5 -27t0.5 -37q24 -1 44.5 -3t28.5 -7zM384 385q1 -23 5 -41t12 -23q10 -6 23.5 -7t25.5 1.5t21 9t9 16.5v45q-27 0 -53 -0.5t-43 -0.5zM212 201q-17 -4 -20.5 0.5t-1.5 11.5q3 8 12 19q24 10 45 19q18 8 34.5 15
t24.5 10q7 3 17.5 6t18 4t10 -3t-6.5 -14q-8 -11 -23.5 -21.5t-34.5 -19.5t-38.5 -16t-36.5 -11zM660 227q1 -7 -2.5 -9t-9 -1.5t-12.5 2t-13 2.5t-17 5.5t-23 10t-22.5 10t-14.5 5.5l-10 2.5t-11.5 4.5t-8 7.5t-0.5 11.5q4 11 16.5 10.5t40.5 -11.5q14 -6 29 -12.5
t27.5 -12.5t21 -12t9.5 -13z" />
    <glyph glyph-name="msn" unicode="msn" 
d="M522 130q-17 12 -32 35q-1 11 -2.5 25t-6.5 31q11 -6 30.5 -12t48.5 -6q8 0 15.5 0.5t15.5 1.5q26 4 45.5 20.5t33.5 41.5q3 -21 0 -43t-10 -42.5t-17.5 -37.5t-20.5 -29q-12 -14 -20 -17.5t-13 -3.5q-11 0 -27 9.5t-40 26.5zM422 258q-13 29 -19 53t-8 41q-2 7 -2 12.5
v9.5v1q0 2 0.5 3t0.5 3q1 3 2 3q2 0 6 -4.5t12 -16.5t18.5 -33t24.5 -53q15 -37 20 -67.5t6 -46.5v-8q-8 5 -24.5 30t-36.5 73zM589 218q-8 -1 -14.5 -1.5t-14.5 -0.5q-38 0 -58.5 10t-24.5 13q-3 10 -6.5 19.5t-7.5 20.5q-8 20 -16 36l-15 30q35 20 82 20q24 0 47.5 -5.5
t43.5 -14.5t35 -21t21 -26q2 -2 2.5 -5t2.5 -6q-14 -28 -32.5 -46.5t-44.5 -22.5zM391 184q-12 0 -27.5 5t-34.5 18q-5 22 -3 45t16 44q14 20 26.5 27.5t22.5 9.5q4 -17 10 -37t15 -41q4 -11 8 -20t9 -18q-5 -10 -12.5 -19t-17.5 -12q-4 -2 -12 -2zM389 346q-12 -2 -27 -11
t-31 -32q-13 -20 -16.5 -42t-0.5 -43q-29 22 -63 65q-41 55 -61.5 90t-29 56t-8 29.5t1.5 10.5q1 3 10 3q12 0 29.5 -5.5t37.5 -14t40 -19.5t38 -22q21 -14 41.5 -28t37.5 -34q0 -2 1 -3zM697 426q-2 -31 -7.5 -62.5t-16.5 -59.5q-8 16 -23.5 29.5t-37 23.5t-47 15.5
t-51.5 5.5q-49 0 -89 -21q-2 4 -4 6q9 31 32 63.5t51 59.5t57.5 46.5t52.5 24.5q5 1 8.5 1.5t7.5 0.5q21 0 37 -16q16 -17 24 -48.5t6 -68.5zM474 148q1 -11 -0.5 -25t-3.5 -27t-5 -22t-6 -11q-1 -1 -4 -1q-13 0 -27.5 10t-28 23.5t-25 27.5t-17.5 23q-13 16 -22 42
q31 -18 56 -18q9 0 17 3q11 5 18.5 13t13.5 18q9 -17 17.5 -29t15.5 -19q0 -2 0.5 -4t0.5 -4z" />
    <glyph glyph-name="myspace" unicode="myspace" 
d="M279 431q-17 0 -29 12t-12 29t12 29t29 12t29 -12t12 -29t-12 -29t-29 -12zM383 418q-23 0 -38.5 15.5t-15.5 38.5t15.5 38.5t38.5 15.5t38.5 -15.5t15.5 -38.5t-15.5 -38.5t-38.5 -15.5zM520 401q-29 0 -50 21t-21 50t21 49.5t50 20.5t49.5 -20.5t20.5 -49.5t-20.5 -50
t-49.5 -21zM522 374q20 0 38 -7.5t31.5 -20.5t21.5 -30.5t8 -37.5v-180h-209v105h-104v78h-79v81q0 20 15 35t36 15q17 0 30.5 -10.5t17.5 -27.5q21 26 56 26q25 0 44 -15.5t26 -38.5q13 13 30.5 20.5t37.5 7.5z" />
    <glyph glyph-name="newsvine" unicode="newsvine" 
d="M451 37h-52v110l-63 47q-8 -5 -17 -5q-16 0 -26.5 10.5t-10.5 26.5q0 15 10.5 26t26.5 11q15 0 25.5 -11t10.5 -26q0 -2 -0.5 -3t-0.5 -3l45 -34v110l-63 47q-8 -5 -17 -5q-16 0 -26.5 10.5t-10.5 26.5q0 15 10.5 26t26.5 11q15 0 25.5 -11t10.5 -26q0 -2 -0.5 -3
t-0.5 -3l45 -34v104l-64 46q-7 -4 -16 -4q-16 0 -26.5 10.5t-10.5 26.5q0 15 10.5 26t26.5 11q15 0 25.5 -11t10.5 -26q0 -2 -0.5 -3.5t-0.5 -3.5l45 -33v82h52v-156l44 33q0 2 -0.5 2.5t-0.5 2.5q0 15 10.5 26t26.5 11q15 0 26 -11t11 -26t-10.5 -26t-26.5 -11q-10 0 -18 5
l-62 -45v-103l44 33q0 1 -0.5 2t-0.5 2q0 16 10.5 26.5t26.5 10.5q15 0 26 -10.5t11 -26.5q0 -15 -10.5 -26t-26.5 -11q-10 0 -19 6l-61 -46v-109l44 33q0 1 -0.5 2t-0.5 2q0 15 10.5 26t26.5 11q15 0 26 -11t11 -26t-10.5 -26t-26.5 -11q-10 0 -19 6l-61 -45v-37z" />
    <glyph glyph-name="paypal" unicode="paypal" 
d="M480 399h-62l-27 -123h20l22 99h62q16 0 28 -9q-4 14 -15 23.5t-28 9.5zM635 419q15 -18 22 -43.5t-1 -60.5q-7 -33 -23.5 -61.5t-40.5 -49t-53 -32.5t-62 -12h-90l-30 -132h-127l5 25h107l30 132h91q32 0 61.5 11.5t53 32.5t40 49t23.5 61q5 26 3.5 44.5t-9.5 35.5z
M500 523q24 0 48 -9.5t41.5 -28t25.5 -47t0 -66.5q-7 -33 -23.5 -60t-40 -46t-53 -29.5t-61.5 -10.5h-90l-31 -124h-127l96 421h215zM496 387q7 25 -6 43.5t-36 18.5h-62l-27 -124h59q24 0 45.5 18.5t26.5 43.5z" />
    <glyph glyph-name="photobucket" unicode="photobucket" 
d="M660 456q11 0 18.5 -8t7.5 -19v-261q0 -11 -7.5 -18.5t-18.5 -7.5h-78h-27h-36q-43 -26 -94 -26q-53 0 -94 26h-141q-11 0 -19 7.5t-8 18.5v261q0 11 8 19t19 8q0 11 7.5 18.5t18.5 7.5h52q11 0 18.5 -7.5t7.5 -18.5h26h11q20 12 44 19t50 7t49.5 -7t44.5 -19h141z
M297 168q-26 25 -40.5 59t-14.5 72t14.5 71.5t40.5 58.5h-3h-26h-52h-26v-261h26h81zM404 143q5 -1 10.5 -1h10.5h10.5t10.5 1q2 1 5 1l10 2t10 3q12 3 19 7q1 1 2 1t2 1q5 2 9 4.5t8 5.5q32 21 51.5 55t19.5 76q0 41 -19.5 75t-51.5 55q-4 3 -8 5.5t-9 4.5q-2 2 -4 2
q-5 2 -9.5 4t-9.5 4q-8 2 -20 4q-2 0 -2.5 0.5t-2.5 0.5q-5 1 -10.5 1.5t-10.5 0.5t-10.5 -0.5t-10.5 -1.5q-2 0 -3 -0.5t-2 -0.5q-5 -1 -10 -1.5t-10 -2.5l-10 -4l-10 -4q-1 0 -3 -2q-5 -2 -9 -4.5t-9 -5.5q-32 -21 -51 -55t-19 -75q0 -42 19 -76t51 -55q5 -3 9 -5.5
t9 -4.5q1 -1 1.5 -1t1.5 -1q9 -4 20 -7q11 -4 20 -5q3 0 5 -1zM660 429h-26h-71h-10q26 -25 40.5 -58.5t14.5 -71.5t-14.5 -72t-40.5 -59h2h8h11h8h52h26v261zM529 299q0 44 -30 74t-74 30v26q27 0 50.5 -10t41.5 -28t28 -41.5t10 -50.5h-26z" />
    <glyph glyph-name="picasa" unicode="picasa" 
d="M531 536v-175q0 2 -14 16t-35.5 33.5t-47 42t-47.5 42t-37 33t-17 14.5q45 17 91 17q28 0 57.5 -6t49.5 -17zM295 74v225q-29 -27 -53 -48q-20 -18 -37 -34t-18 -17q16 -39 42.5 -71.5t65.5 -54.5zM164 297q0 -17 2.5 -34t7.5 -34q2 1 19.5 17t43 39.5t54.5 50t54 49.5
t42.5 38.5t18.5 16.5q-2 1 -17 15t-33 30.5t-33 30t-16 14.5q-66 -34 -104.5 -96t-38.5 -137zM321 193v-135q40 -18 81 -22h48q68 7 124.5 43t86.5 114h-340zM557 521v-302h116q7 20 9.5 40t2.5 42q0 69 -34.5 126.5t-93.5 93.5z" />
    <glyph glyph-name="pinterest" unicode="pinterest" 
d="M407 159q-4 3 -7 9.5t-8 2.5q-9 -36 -21 -75t-29 -68h-32v1q-3 15 -1.5 39t3.5 38q3 18 9 38.5t13 41.5t11.5 42t4.5 39q0 16 -5 32.5t-2 33.5q2 16 13.5 30t26 21t28.5 3.5t22 -21.5q9 -21 2.5 -44t-14.5 -45t-11 -41t13 -34q7 -6 21 -9.5t28 -0.5q22 4 38 21t25.5 40
t12 50.5t-1.5 53t-15.5 46t-29.5 31.5q-40 23 -80 19t-71.5 -25t-49.5 -54.5t-14 -70.5q1 -14 8 -25.5t11.5 -22t4 -21t-13.5 -22.5q-37 14 -52.5 40t-14.5 68q0 44 19.5 79t52 58.5t75 34t88.5 5.5q30 -3 57 -15.5t48 -31.5t34.5 -43.5t16.5 -50.5q3 -24 0 -49.5t-11 -50.5
t-21 -46t-31 -36q-12 -10 -31 -18t-40 -11t-42 -0.5t-37 14.5z" />
    <glyph glyph-name="podcast" unicode="podcast" 
d="M425 456q-48 0 -90 -15t-73.5 -41.5t-50.5 -63.5t-21 -81v9q0 45 18.5 84.5t50.5 69.5t74.5 47t91.5 17t91.5 -17t74.5 -47t50.5 -69.5t18.5 -84.5v-9q-2 44 -21 81t-50.5 63.5t-73.5 41.5t-90 15zM425 377q-30 0 -56.5 -9t-46.5 -24.5t-32 -38t-14 -49.5v8
q0 28 11.5 53.5t32 44.5t47.5 30t58 11t58 -11t47 -30t32 -44.5t12 -53.5q0 -5 -1 -8q-2 27 -14 49.5t-32 38t-46 24.5t-56 9zM425 257q-20 0 -33.5 12.5t-13.5 30.5t13.5 30.5t33.5 12.5q19 0 32.5 -12.5t13.5 -30.5t-13.5 -30.5t-32.5 -12.5zM425 64q-29 0 -49 34.5
t-20 83.5q0 25 5.5 38.5t15 20t22 7.5t26.5 1t26.5 -1t22 -7.5t15 -20t5.5 -38.5q0 -49 -20 -83.5t-49 -34.5z" />
    <glyph glyph-name="posterous" unicode="posterous" 
d="M250 34v395q0 35 -1 64t-2 56h54l4 -65h5l3 2q41 71 132 71q35 0 64 -14t50 -38.5t32.5 -59t11.5 -76.5q0 -52 -15 -90t-39 -62.5t-54.5 -36.5t-61.5 -12q-38 0 -67.5 15.5t-46.5 42.5l-1 2h-6l-1 -4v-190h-61zM424 510q-39 0 -69 -24.5t-40 -63.5q-4 -16 -4 -28v-66
q0 -17 3 -29q10 -38 39.5 -61t67.5 -23q54 0 86.5 40.5t32.5 109.5q0 32 -8.5 58.5t-24 46t-37 30t-46.5 10.5z" />
    <glyph glyph-name="qik" unicode="qik" 
d="M587 298q5 -8 9.5 -17t10.5 -17.5t13.5 -14.5t19.5 -9q-1 -9 -8.5 -15t-17 -9t-20 -2t-18.5 7q-7 4 -12.5 14t-10.5 18q-6 9 -11 17.5t-10 16.5q-3 -17 -5.5 -35.5t-6.5 -36.5q-11 0 -21 0.5t-17.5 3.5t-11.5 9t-3 17q0 5 3.5 27.5t8 50t9 54.5t6.5 42q0 2 1 2
q24 2 39.5 -2.5t13.5 -27.5q-2 -20 -6.5 -44t-6.5 -42q9 7 16 16q7 8 14 15.5t15 15.5q4 4 8.5 8t9.5 6q12 5 28.5 3t33.5 -1q-4 -5 -14.5 -14.5t-22 -20t-22 -20.5t-14.5 -15zM446 429q16 -3 19 -15q5 -13 -2 -21.5t-16 -12.5q-12 -5 -25 -1.5t-15 15.5q-5 16 4.5 23.5
t23.5 11.5h11zM403 364q17 0 31.5 -1t19.5 -11q3 -7 2 -16.5t-2 -17.5q-4 -26 -8 -52.5t-8 -49.5q-15 -1 -29.5 0t-20.5 9q-4 6 -3.5 16t2.5 19q4 26 8 52.5t8 49.5v2zM309 373q30 -2 47 -20t15 -52q-2 -17 -5 -33t-5 -33q-3 -17 -5.5 -33t-4.5 -34h-26h-1q-12 0 -17.5 6.5
t-6.5 15.5t0.5 20t3.5 20q-5 -3 -9 -7.5t-10 -6.5q-5 -2 -9 -3l-8 -2q-38 -4 -59 16.5t-19 51.5q1 20 8 34.5t18 26.5q14 16 37 25.5t56 7.5zM297 259q6 5 11 14.5t6.5 20t-0.5 20t-9 14.5q-4 2 -10.5 3.5t-11.5 0.5q-9 -1 -17 -6q-6 -5 -10.5 -14t-6.5 -19.5t0 -20.5
t10 -15q9 -5 20.5 -4t17.5 6z" />
    <glyph glyph-name="quora" unicode="quora" 
d="M634 311q-2 -56 -29 -102t-71 -75q11 -15 21 -22.5t18 -10.5q9 -4 16 -2v-37q-15 -7 -31 -9q-14 -2 -29.5 2.5t-29.5 21.5q-13 16 -22 31q-29 -9 -60 -9q-43 0 -80.5 16.5t-64.5 45.5t-42.5 67.5t-13.5 82.5q1 44 19 82.5t47.5 67.5t68 45.5t81.5 16.5t81 -16.5t65 -45.5
t42 -67.5t14 -82.5zM537 315q1 32 -6.5 60.5t-21.5 49.5t-33.5 33.5t-41.5 12.5q-23 0 -43 -12.5t-35.5 -33.5t-25 -49.5t-10.5 -60.5t6.5 -60.5t21.5 -49.5t33 -33.5t42 -12.5q16 0 26 5q-2 5 -4.5 9t-4.5 8q-6 8 -12.5 11.5t-12.5 4.5q-7 1 -13 -1v37q16 6 33 5
q14 -1 31 -9t31 -30q17 22 27.5 51.5t12.5 64.5z" />
    <glyph glyph-name="reddit" unicode="reddit" 
d="M525 505q0 12 5 22l-89 21q-7 0 -9 -2q-5 -3 -5 -8l-18 -118q0 -12 10 -14h2q9 0 11 10l15 106zM574 441q-26 0 -44 19t-18 45t18 45t44 19t43.5 -19t17.5 -45t-17.5 -45t-43.5 -19zM574 543q-15 0 -25.5 -11t-10.5 -27t10.5 -27t25.5 -11t25.5 11t10.5 27t-10.5 27
t-25.5 11zM619 411q-18 0 -33 -8.5t-24 -22.5q5 -3 10.5 -6.5t10.5 -7.5q5 8 14.5 13.5t21.5 5.5q17 0 29.5 -11.5t12.5 -28.5q0 -15 -9.5 -26t-23.5 -14l4 -12t3 -13q22 5 36.5 23t14.5 42q0 28 -19.5 47t-47.5 19zM214 307q-11 5 -18.5 15t-7.5 23q0 17 12.5 28.5
t29.5 11.5q20 0 33 -16l21 15q-9 12 -23 19.5t-31 7.5q-28 0 -47.5 -19t-19.5 -47q0 -22 12 -38.5t32 -24.5q2 14 7 25zM421 98q-47 0 -88.5 13t-72.5 36t-49 53t-18 65q0 34 18 64.5t49 53t72.5 35.5t88.5 13t88.5 -13t72 -35.5t48.5 -53t18 -64.5q0 -35 -18 -65t-48.5 -53
t-72 -36t-88.5 -13zM421 405q-42 0 -79 -11t-64.5 -30t-43.5 -44.5t-16 -54.5t16 -54.5t43.5 -44.5t64.5 -30t79 -11t78.5 11t64 30t43.5 44.5t16 54.5t-16 54.5t-43.5 44.5t-64 30t-78.5 11zM500 218q-9 -9 -28 -15q-11 -3 -23 -5t-26 -2t-25.5 2t-22.5 5q-21 7 -28 15
q-9 9 -18 0q-4 -4 -4 -9.5t4 -9.5q7 -8 17 -13t22 -9t26 -5.5t29 -1.5q34 0 56 7q25 8 39 22q4 4 4 9.5t-4 9.5q-9 9 -18 0zM371 304q0 -13 -8.5 -21.5t-20.5 -8.5t-21 8.5t-9 21.5t9 21.5t21 8.5t20.5 -8.5t8.5 -21.5zM535 304q0 -13 -8.5 -21.5t-20.5 -8.5t-21 8.5
t-9 21.5t9 21.5t21 8.5t20.5 -8.5t8.5 -21.5z" />
    <glyph glyph-name="retweet" unicode="retweet" 
d="M346 457h236q11 0 18.5 -6t7.5 -17v-160h78l-131 -131l-130 131h78v104h-78zM268 143q-10 0 -18 8t-8 18v157h-79l131 131l131 -131h-79v-105h79l78 -78h-235z" />
    <glyph glyph-name="rss" unicode="rss" 
d="M242 169q22 0 37 -15.5t15 -36.5q0 -22 -15 -37.5t-37 -15.5t-37 15.5t-15 37.5q0 21 15 36.5t37 15.5zM190 535q97 0 182.5 -37t149.5 -101t101 -150t37 -183h-98q0 77 -29.5 145t-80 118.5t-118 80t-144.5 29.5v98zM190 352q59 0 111.5 -22.5t91.5 -61.5t61.5 -91.5
t22.5 -112.5h-96q0 40 -15 75t-41 61t-61 41t-74 15v96z" />
    <glyph glyph-name="scribd" unicode="scribd" 
d="M483 158q0 -27 14 -52q-3 -3 -6 -6.5t-6 -6.5q-40 -41 -100 -41q-57 0 -101 32q-45 34 -67 97l1 1q-2 8 -2 14q0 23 15 38.5t37 15.5t37 -15.5t15 -38.5t-16 -39q31 -37 79 -37q34 0 57 21q22 21 22 53q0 19 -12 39q-6 9 -13 17t-16 14q-16 12 -56 29q-39 17 -59 30
q-11 7 -19.5 15t-16.5 17t-13 18.5t-9 18.5q-3 9 -5 19t-2 21q0 50 40 86q39 36 95 36q36 0 76 -17q30 -13 54 -40q18 -16 18 -40q0 -23 -15 -39t-37 -16t-37 16t-15 39q0 13 4 22q-16 8 -42 8q-35 0 -55 -16q-21 -15 -21 -40q0 -21 19 -38q18 -16 62 -36q45 -20 68 -36
q13 -8 22.5 -17.5t17.5 -19.5q17 -21 24 -43q0 -2 1 -3q-17 -14 -27 -34.5t-10 -45.5zM634 158q0 -26 -17.5 -44t-42.5 -18q-26 0 -43.5 18t-17.5 44t17.5 44.5t43.5 18.5q25 0 42.5 -18.5t17.5 -44.5z" />
    <glyph glyph-name="sharethis" unicode="sharethis" 
d="M577 231q35 0 59 -24.5t24 -59.5q0 -34 -24 -58.5t-59 -24.5t-59 24.5t-24 58.5q0 4 1 5l-169 85q-23 -20 -53 -20q-35 0 -59 24t-24 59t24 59t59 24q15 0 28.5 -5.5t24.5 -14.5l169 84q-1 2 -1 5q0 35 24 59t59 24t59 -24t24 -59t-24 -59t-59 -24q-30 0 -53 20l-169 -85
q0 -1 0.5 -2t0.5 -2q0 -2 -0.5 -2.5t-0.5 -2.5l169 -84q23 20 53 20z" />
    <glyph glyph-name="skype" unicode="skype" 
d="M380 541q64 6 107.5 -8t76.5 -43q19 -17 24.5 -33.5t2 -30t-13.5 -23t-22 -10.5q-12 -2 -25 9.5t-29.5 25.5t-37 26t-47.5 13q-27 0 -48.5 -12.5t-29 -29t2 -33.5t43.5 -25t68 -15.5t63.5 -19t53 -30.5t36.5 -50q13 -32 4.5 -63t-31 -56t-56 -41.5t-70.5 -18.5t-65 1
t-50 10.5t-39.5 19.5t-33.5 27q-18 17 -24 34t-3 31.5t13 24t25 10.5q14 1 26 -6.5t22 -17t18 -19.5t16 -15t25 -11.5t37.5 -9t41.5 2.5t36 23q17 20 13.5 35t-18.5 26t-37 17.5t-43 9.5q-29 4 -60.5 14.5t-56.5 28t-40 41.5t-12 56t15.5 56.5t31 41t42 26t48.5 11.5z" />
    <glyph glyph-name="slashdot" unicode="slashdot" 
d="M529 505l-183 -418h-104l183 418h104zM542 217q28 0 47 -19t19 -46t-19 -46t-47 -19q-27 0 -46 19t-19 46t19 46t46 19z" />
    <glyph glyph-name="slideshare" unicode="slideshare" 
d="M504 100q-21 0 -35.5 5.5t-23.5 13t-12.5 15t-3.5 12.5v155q0 8 16.5 12t31.5 4h83q4 0 18.5 4.5t31.5 11t32.5 14.5t22.5 16q10 11 16 11q2 0 4 -2q1 -2 1 -8t-8 -22q-11 -23 -31.5 -35.5t-43.5 -24.5q-7 -3 -13.5 -6t-13.5 -7l-1 -1v-87q0 -4 -3 -17t-11 -27.5
t-22 -25.5t-35 -11zM505 349q-23 0 -39.5 17t-16.5 41q0 25 16.5 42t39.5 17t39.5 -17t16.5 -42q0 -24 -16.5 -41t-39.5 -17zM361 114q-10 0 -24 6.5t-26.5 16.5t-21.5 22t-9 22v95h-2q-22 8 -40 18q-16 8 -31 17.5t-21 17.5l-5 5q-11 14 -15 21.5t-1 15.5q0 1 1 1
q5 0 14.5 -5.5t20.5 -12.5q14 -9 29 -17.5t27 -11.5q22 -5 53.5 -8t54.5 -3h8h3q17 0 27.5 -6.5t19.5 -15.5q8 -7 22.5 -15t31.5 -8q18 0 30 12q19 17 28 17l2 -1q1 -2 1 -6.5t-5 -15.5q-8 -18 -33 -33.5t-54 -15.5q-18 0 -34 8l-3 2v-90q0 -10 -14 -21t-34 -11zM352 349
q-23 0 -40 17t-17 41q0 25 17 42t40 17t39.5 -17t16.5 -42q0 -24 -16.5 -41t-39.5 -17z" />
    <glyph glyph-name="smugmug" unicode="smugmug" 
d="M378 519q0 -14 -13.5 -24.5t-33.5 -10.5t-34 10.5t-14 24.5q0 15 14 25.5t34 10.5t33.5 -10.5t13.5 -25.5zM543 555q-20 0 -33.5 -10.5t-13.5 -25.5q0 -14 13.5 -24.5t33.5 -10.5t33.5 10.5t13.5 24.5q0 15 -13.5 25.5t-33.5 10.5zM634 413h-403q-4 -1 -8 -4t-7.5 -8
t-8.5 -14q-21 -44 -26 -96.5t13.5 -99t63 -77.5t122.5 -31q52 0 93.5 19t73.5 48.5t55.5 65t38 68t21.5 57.5t7 34q0 13 -5.5 20.5t-12.5 11.5q-8 4 -17 6zM380 130q-16 0 -34.5 2.5t-36.5 9t-34 18t-27 29.5q-12 20 -17 43.5t-4 47.5t7.5 46t15.5 40h370q-3 -12 -11 -34
t-21.5 -48t-33 -53.5t-45 -50t-58 -36.5t-71.5 -14z" />
    <glyph glyph-name="soundcloud" unicode="soundcloud" 
d="M165 252q0 26 21 44v-87q-21 16 -21 43zM208 307q4 1 7.5 1.5t8.5 0.5h5v-114h-5q-5 0 -8.5 0.5t-7.5 1.5v110zM256 300q3 22 17 39v-144h-22v107q1 0 5 -2zM295 359q8 6 21 11v-175h-21v164zM338 374h8q10 0 14 -1v-178h-22v179zM394 361q4 7 10 13v-179h-33v176
q14 -3 23 -10zM414 385q15 13 34 20.5t40 7.5q43 0 74 -28.5t36 -69.5q6 2 11.5 3.5t13.5 1.5q26 0 43.5 -18.5t17.5 -44.5q0 -24 -15 -42t-48 -20h-207v190z" />
    <glyph glyph-name="spotify" unicode="spotify" 
d="M427 236q43 0 82 -11.5t72.5 -32t60 -49.5t44.5 -64q-29 -27 -68 -27h-46q-24 34 -62 54t-83 20t-82.5 -20t-61.5 -54h-65q-30 0 -55 17q17 37 44 67.5t61.5 52.5t74.5 34.5t84 12.5zM245 268q-4 11 0 16.5t7 7.5q38 17 79.5 27t86.5 10q44 0 85 -8.5t78 -27.5
q6 -2 10 -9.5t0 -15.5q-7 -16 -24 -8q-34 15 -71.5 23.5t-77.5 8.5q-81 0 -152 -34q-4 -2 -10.5 -1t-10.5 11zM656 465q0 -12 -8.5 -20.5t-20.5 -8.5q-2 0 -3 0.5t-3 0.5q-48 19 -98.5 29t-104.5 10t-104.5 -10t-98.5 -29q-2 0 -3 -0.5t-3 -0.5q-12 0 -20 8.5t-8 20.5
q0 16 13 24q53 20 108.5 31t115.5 11q59 0 114.5 -11t107.5 -31q16 -7 16 -24zM617 379q7 -7 7 -14l-4 -12q-6 -8 -16 -8q-2 0 -2.5 0.5t-2.5 0.5q-42 18 -87 28t-94 10q-95 0 -180 -37q-2 -1 -6 -1q-10 0 -16 8l-4 11q0 7 7 14q46 20 95.5 31t103.5 11t103.5 -11t95.5 -31z
" />
    <glyph glyph-name="squidoo" unicode="squidoo" 
d="M658 231q5 -36 -6 -67.5t-31.5 -55t-46.5 -37.5t-51 -14q-48 0 -83.5 17t-54.5 64q-7 17 -7 36t-2.5 34.5t-12.5 26t-37 9.5q-34 -2 -71.5 -4t-65.5 6v55q0 -4 5.5 -6.5t11.5 -3.5q17 -2 40.5 0.5t45.5 6.5q26 4 52 10q-32 12 -58 31q-23 17 -45 43t-31 64
q-3 11 -5.5 20.5t-5.5 17.5q10 16 25 28q5 -15 8.5 -30t9 -28.5t14.5 -25t25 -18.5q21 -9 38.5 -14.5t31.5 -8.5q15 -4 28 -4q-1 21 -5 40q-4 17 -12 33.5t-25 25.5q-14 8 -31 19t-33 27q3 0 6 -1t7 -1h41q32 -13 53.5 -32t35 -38t20 -35t6.5 -24q18 14 30 30q11 13 16.5 29
t-2.5 31t-20 27t-26 12h54q16 -7 26 -19t14.5 -26.5t2.5 -30.5t-9 -29q-20 -36 -24.5 -58.5t20.5 -23.5q12 -1 32.5 -4.5t41.5 -14.5t38 -32t22 -57zM605 174q7 19 6.5 38t-7.5 35.5t-20 28.5t-31 18t-36 4t-34.5 -11t-29 -24t-19.5 -34q-7 -20 -6.5 -39t7.5 -35.5t20 -28.5
t31 -18t36 -3.5t34.5 11.5t29 23.5t19.5 34.5zM551 243q13 -4 21.5 -15.5t8.5 -26.5q0 -18 -11 -30.5t-28 -12.5t-28.5 12.5t-11.5 30.5q0 8 3 16q9 -1 18 -0.5t15 5.5q8 5 13 21z" />
    <glyph glyph-name="stackoverflow" unicode="stackoverflow" 
d="M529 270v-235h-314v235h-52v-288h418v288h-52v0zM640 395l-89 190l48 22l88 -190l-47 -22v0zM578 347l-129 165l41 32l129 -165l-41 -32v0zM528 286l-162 132l33 40l162 -131l-33 -41v0zM494 216l-188 91l23 47l188 -91l-23 -47v0zM476 139l-203 47l11 51l204 -47
l-12 -51v0zM476 61h-209v52h209v-52v0z" />
    <glyph glyph-name="star" unicode="star" 
d="M202 361q-18 20 -11 35t34 15h117l55 116q11 25 27.5 25t27.5 -25l56 -116h116q28 0 34.5 -15t-11.5 -35l-1 -1l-88 -108l45 -131q9 -26 -2.5 -35.5t-35.5 2.5l-140 70l-140 -70q-25 -12 -36 -2.5t-2 35.5l45 131l-89 108l-1 1v0z" />
    <glyph glyph-name="stumbleupon" unicode="stumbleupon" 
d="M584 131h-34q-18 0 -35.5 8.5t-32 23t-23 32.5t-8.5 36v121q0 9 -2 11q-1 0 -4 1q-6 2 -17 2h-143q-8 -6 -11 -16q2 -2 6 -5.5t13 -8.5l65 -26q26 -15 43.5 -43.5t17.5 -54.5q0 -16 -7 -30.5t-19 -26t-28 -18t-34 -6.5h-168v78h168q3 0 5 1.5t4 3.5q-2 5 -7 13.5
t-13 14.5l-65 25q-8 5 -18.5 12t-19.5 17t-15.5 22.5t-6.5 29.5q0 15 6.5 31.5t18.5 31t28 24t35 9.5h145q34 0 54 -10.5t30.5 -25t13.5 -30.5t3 -26v-121q1 -5 9 -13t13 -9h33q5 2 13.5 11t10.5 15v262h78v-263q0 -18 -9 -36.5t-24 -33t-33 -24t-36 -9.5z" />
    <glyph glyph-name="technorati" unicode="technorati" 
d="M425 501q49 0 91.5 -16t74.5 -43t50.5 -64t18.5 -79t-18.5 -78.5t-50.5 -63.5t-74.5 -43t-91.5 -16q-43 0 -80 12l-111 -80l17 134q-29 27 -45 61.5t-16 73.5q0 42 18.5 79t50.5 64t74.5 43t91.5 16zM425 187q30 0 56.5 9t46 24t31 35.5t11.5 43.5t-11.5 43.5t-31 35.5
t-46 24t-56.5 9t-57 -9t-46.5 -24t-31 -35.5t-11.5 -43.5t11.5 -43.5t31 -35.5t46.5 -24t57 -9z" />
    <glyph glyph-name="tumblr" unicode="tumblr" 
d="M451 546v-105h104v-78h-104v-130q0 -21 -1 -33t1 -18q7 -14 18 -21q16 -9 38 -9q37 0 75 23v-74q-17 -7 -31 -12t-27 -8q-27 -6 -56 -6q-17 0 -29 2t-25 7q-14 4 -25.5 9.5t-19.5 13.5q-17 16 -20 35.5t-3 45.5v175h-78v57q15 5 30 11t26 15q23 18 34 40q13 25 17 60h76z
" />
    <glyph glyph-name="twitterbird" unicode="twitterbird" 
d="M673 462q-22 -32 -51 -52v-14q0 -50 -19 -101.5t-55.5 -93t-90.5 -68t-124 -26.5q-44 0 -83 12t-73 34q6 -1 12 -1.5t12 -0.5q36 0 68.5 12t58.5 32q-34 1 -59.5 20.5t-35.5 50.5q5 -2 9.5 -2h9.5q14 0 26 3q-35 8 -58 35.5t-23 64.5v1q11 -5 22 -8.5t24 -3.5
q-20 14 -32.5 36t-12.5 48q0 28 14 51q38 -46 92 -74.5t117 -31.5q-3 12 -3 23q0 21 8 39.5t22 32.5t32.5 22t39.5 8q22 0 41 -8.5t33 -23.5q18 3 34 9.5t31 15.5q-12 -37 -45 -57q32 5 59 16z" />
    <glyph glyph-name="twitter" unicode="twitter" 
d="M608 117q0 -20 -16.5 -36.5t-36.5 -16.5h-156q-30 0 -58 10t-50 29.5t-35.5 49t-13.5 68.5v262q0 20 16 36t36 16t36 -16t16 -36v-79h209q20 0 36.5 -16t16.5 -36t-16.5 -36t-36.5 -16h-209v-79q0 -20 16.5 -36t35.5 -16h157q20 0 36.5 -16t16.5 -36z" />
    <glyph glyph-name="viddler" unicode="viddler" 
d="M546 514q24 0 44.5 -9t36 -25t24.5 -37t9 -46t-9 -46.5t-24.5 -37t-36 -24.5t-44.5 -9h-91l56 -183h-191v56l-130 -41v159l130 -37v46h-26q-20 0 -38 9t-32 24t-22.5 36t-8.5 45q0 25 10.5 46.5t28 38t40 26t46.5 9.5q21 0 40 -8.5t34 -23t25 -33t13 -38.5h4
q3 20 13 38.5t25 33t34 23t40 8.5zM318 361q14 0 23 10t9 24t-9 23.5t-23 9.5t-23 -9.5t-9 -23.5t9 -24t23 -10zM549 361q14 0 23 10t9 24t-9 23.5t-23 9.5t-23 -9.5t-9 -23.5t9 -24t23 -10z" />
    <glyph glyph-name="vimeo" unicode="vimeo" 
d="M189 351q23 26 47 47q20 18 45 34t48 21q24 4 37.5 -11t21 -39t11.5 -53t10 -51q11 -43 20 -66.5t19 -23.5t27.5 22t37.5 59q10 18 10.5 34.5t-7.5 26.5t-23 11.5t-35 -10.5q5 31 24 53.5t43 35.5t50.5 16t46.5 -6t30.5 -31t4.5 -57q-10 -53 -39 -101t-63 -86
t-66.5 -64.5t-49.5 -36.5q-17 -11 -32 -10t-28 8t-23 18.5t-16 22.5q-4 8 -11 27t-14.5 43t-16 50.5t-16 49t-13.5 38t-9 19.5q-5 5 -14 4t-17 -5q-10 -4 -21 -13l-19 24v0z" />
    <glyph glyph-name="virb" unicode="virb" 
d="M176 461h101l81 -236l79 236h105l-131 -366h-104zM673 408q0 -21 -15.5 -36.5t-37.5 -15.5t-37 15.5t-15 36.5q0 22 15 37.5t37 15.5t37.5 -15.5t15.5 -37.5z" />
    <glyph glyph-name="www" unicode="www" 
d="M364 467l62 -223l63 223h45h107v-23l-55 -115q17 -6 31.5 -16t23.5 -25q8 -15 13.5 -32.5t5.5 -37.5q0 -25 -5.5 -46t-18.5 -38q-26 -33 -65 -33q-31 0 -52 20q-23 19 -33 54l35 15q5 -10 9.5 -18t11.5 -14q12 -12 30 -12t30 21q13 20 13 51q0 17 -3.5 33t-10.5 25
q-8 11 -19.5 19t-28.5 8h-30v9l73 114h-73h-4l-88 -306h-5l-64 226l-65 -226h-4l-103 347h45l62 -223l42 150l-20 73h45z" />
    <glyph glyph-name="wikipedia" unicode="wikipedia" 
d="M367 399q-2 5 -4 9t-3 7t-2 5q-6 13 -9.5 20t-6.5 11t-6.5 5.5t-9.5 2.5q-6 0 -6 3v11l1 2h93l3 -1v-11q0 -4 -5 -4l-7 -1q-13 -2 -12 -8.5t9 -25.5l108 -244l4 -1l95 251q6 14 -1 21q-4 3 -7.5 5t-11.5 2l-9 1q-2 0 -3 1t-1 3v11l1 1h108l1 -1v-11q0 -4 -4 -4
q-22 -2 -32 -10q-5 -5 -9 -11.5t-6 -14.5l-48 -120q-10 -24 -20 -49.5t-19.5 -49t-17.5 -43.5t-14 -34q-16 -37 -32 0q-8 18 -21 50.5t-27 64.5q-16 37 -33 79zM540 475h-88l-1 -1v-11q0 -2 1 -3t3 -1l5 -1q14 0 17 -5q2 -3 2.5 -7.5t-4.5 -15.5l-114 -251l-3 1
q-23 55 -43 103q-9 21 -18 42.5t-17 41.5t-15 37t-11 29q-4 9 -4 15q0 10 16 10l12 1q5 0 5 4v10l-1 1h-51h-67l-1 -1v-11q0 -3 7 -3q20 -2 25 -7q2 -3 5.5 -9.5t7.5 -17.5q11 -30 27.5 -69t33.5 -80t33.5 -80.5t28.5 -69.5q7 -17 15 -18t18 19q8 18 23 50t29 64
q17 37 35 79l49 103q5 8 8.5 15t5.5 10q5 7 8.5 8.5t14.5 2.5q4 0 4 4v11z" />
    <glyph glyph-name="windows" unicode="windows" 
d="M352 136q-17 11 -37.5 19.5t-48.5 8.5q-35 0 -76 -16l41 143l6 2l6 2q11 4 28 8t36 6q3 1 9 1q29 0 63 -17q5 -2 8.5 -5t8.5 -5q-3 -10 -8.5 -29t-12 -41t-13 -43t-10.5 -34zM476 84q-12 0 -25 3.5t-25 8.5t-21.5 9.5t-13.5 7.5l41 144q15 -11 38.5 -19.5t56.5 -8.5
q38 0 77 13l-40 -138q-47 -20 -88 -20zM407 331q-16 10 -36 18.5t-47 8.5q-35 0 -79 -16l41 142q22 9 41.5 13t37.5 5q20 0 35 -4q14 -3 28.5 -10.5t21.5 -11.5zM537 276q-50 0 -91 28l42 145q15 -11 38.5 -19.5t55.5 -8.5q37 0 78 15l-41 -140h-1v-1q-41 -19 -81 -19z" />
    <glyph glyph-name="wordpress" unicode="wordpress" 
d="M190 301q0 50 20 96l112 -308q-59 29 -95.5 85.5t-36.5 126.5zM584 313q0 -31 -18 -76l-24 -79l-85 253q5 0 10 0.5t9 0.5t8 1q10 2 9 11t-10 9q-12 -1 -23 -2q-10 -1 -20.5 -1h-19.5h-19.5t-20.5 1l-22 2q-10 0 -10.5 -9.5t8.5 -10.5q4 -1 8 -1t8 -0.5t9 -0.5l37 -100
l-52 -155l-85 255q5 0 10 0.5t9 0.5t8 1q9 2 8.5 11t-10.5 9l-22 -2q-10 -1 -21 -1h-20h-15q32 48 83.5 77t113.5 29q46 0 86.5 -16.5t72.5 -45.5h-3q-17 0 -28.5 -12.5t-11.5 -28.5q0 -15 7 -28t16 -28q7 -11 13.5 -26.5t6.5 -37.5zM501 82q1 -1 1 -1.5t1 -1.5
q-39 -14 -78 -14q-17 0 -34 2.5t-33 7.5l71 205zM631 414q29 -52 29 -113q0 -66 -32 -119.5t-85 -84.5l72 208q10 26 14 46.5t4 37.5q0 7 -0.5 13t-1.5 12z" />
    <glyph glyph-name="xing" unicode="xing" 
d="M594 49h-104l-105 183l157 288h105l-157 -288zM202 180l78 131l-52 104h105l52 -104l-78 -131h-105v0z" />
    <glyph glyph-name="yahoobuzz" unicode="yahoobu&#x7a;&#x7a;" 
d="M425 355q32 0 60.5 -12.5t50 -33.5t34 -49.5t12.5 -61.5q0 -32 -12.5 -60.5t-34 -50t-50 -34t-60.5 -12.5q-33 0 -61.5 12.5t-49.5 34t-33.5 50t-12.5 60.5v314h78v-235v-79q0 -32 23.5 -55t55.5 -23t55 23t23 55q0 33 -23 56t-55 23h-52v78h52v0z" />
    <glyph glyph-name="yahoo" unicode="yahoo" 
d="M585 381q-5 -2 -26 -18.5t-45 -37.5t-44 -41.5t-23 -29.5q-1 -3 -1 -18t0.5 -32t1 -32.5t1.5 -19.5q3 -1 13.5 -1h22.5h23t15 -1l-2 -25q-4 0 -17.5 0.5t-31.5 0.5h-37.5h-34.5q-8 0 -22.5 -0.5t-30.5 -1t-31 -0.5h-23l4 24q4 0 13.5 0.5t20 1t20 2.5t13.5 7q2 2 3 16
t1 30.5t-0.5 31.5t-1.5 20q-1 3 -9.5 16t-21 31t-28 38.5t-30 39.5t-26.5 33.5t-19 21.5h-69v26h236v-2v-6v-18h-73q12 -20 25.5 -40.5t26.5 -39t24.5 -35t18.5 -26.5l94 89h-55l-8 26h208l-19 -19q-1 0 -1 1l-6 -8h-37q-4 0 -7 -2t-5 -2zM618 346q3 0 13 -1.5t21.5 -2.5
t21.5 -2t12 -1l-36 -154l-32 3v158zM633 161l18 -1l-5 -37l-17 2l-16 1v38z" />
    <glyph glyph-name="yelp" unicode="yelp" 
d="M293 483q-3 4 -6 7.5t-3.5 7.5t3.5 10t16 15q9 7 22 12t26 7.5t25 3t19 -0.5q30 -6 30 -28l1 -170q1 -10 -3.5 -17.5t-11.5 -9.5q-7 -1 -15 4.5t-13 13.5zM471 291q-4 8 -2.5 18t8.5 18l50 60q7 8 17 8t21 -8q5 -5 11.5 -12.5t12.5 -16t10.5 -16.5t6.5 -12q3 -8 1 -20
t-14 -14l-88 -17q-10 -2 -19.5 1.5t-14.5 10.5zM479 196q-5 9 -6 17.5t3 11.5t13 3t19 -2l79 -23q10 -2 15 -12t1 -23q-2 -6 -8 -16l-12 -20q-7 -11 -16 -24q-5 -9 -19.5 -10t-19.5 8zM383 195q6 8 15.5 12.5t16.5 4.5q7 -1 11.5 -8.5t4.5 -17.5l-2 -105q-1 -11 -13.5 -18.5
t-21.5 -3.5l-66 22q-9 4 -12 17.5t4 21.5zM368 289q10 -4 16 -12t5 -16q-2 -8 -9 -16t-16 -12l-91 -31q-9 -4 -18.5 2.5t-11.5 17.5q-1 5 -1 17.5v26.5q0 16 1 35q3 14 12 21.5t18 3.5z" />
    <glyph glyph-name="youtube" unicode="youtube" 
d="M214 546h43l28 -97h3l27 97h43l-50 -142v-100h-43v96zM361 442q0 21 16 33q15 12 41 12q25 0 39 -13q15 -14 15 -33v-93q0 -23 -14 -35q-16 -14 -41 -14t-41 14q-15 13 -15 36v93zM401 346q0 -8 4 -12q2 -2 4.5 -3t7.5 -1q7 0 12 5q4 3 4 11v97q0 6 -4 9q-4 4 -12 4
t-12 -4q-4 -3 -4 -9v-97zM613 483v-179h-39v20q-9 -11 -22 -17q-11 -6 -22 -6q-12 0 -20 8q-7 10 -7 24v150h39v-137q0 -8 2 -9q3 -3 8 -3q3 0 11 3q8 6 11 10v136h39zM307 299h-117v-31h39v-188h38v188h40v31zM385 119q-4 -6 -11 -9q-5 -3 -9 -3q-3 0 -7 2q-2 4 -2 9v124
h-34v-136q0 -14 6 -21q6 -8 18 -8q10 0 19 6q11 5 20 15v-18h34v162h-34v-123zM534 234q-10 10 -25 10q-8 0 -16 -4q-5 -2 -14 -11v70h-34v-219h34v12q3 -4 6.5 -6.5t7.5 -4.5q9 -3 18 -3q15 0 23 9q8 8 8 26v90q0 20 -8 31zM507 118q0 -8 -3 -11q-3 -4 -9 -4q-2 0 -8 2
q-3 1 -8 6v101q3 3 7 5q2 1 7 1q7 0 11 -4q3 -5 3 -13v-83zM660 157v41q0 22 -12 36q-14 12 -36 12q-24 0 -37 -13q-15 -14 -15 -35v-72q0 -22 13 -37q14 -14 36 -14q25 0 38 13q13 12 13 38v8h-35v-8q0 -14 -3 -18q-4 -4 -12 -4t-12 5q-3 4 -3 17v31h65zM595 199q0 10 4 14
q3 5 11 5q7 0 12 -5q3 -5 3 -14v-17h-30v17z" />
    <glyph glyph-name="circlefivehundredpx" unicode="circlefivehundredpx" 
d="M598 304q22 0 34 -12t12 -31q0 -18 -12 -30t-34 -12q-11 0 -21.5 6.5t-18.5 14.5q-10 9 -18 21q8 11 18 21q8 8 18.5 15t21.5 7zM423 304q11 0 21.5 -7t18.5 -15q10 -10 18 -21q-8 -12 -18 -21q-8 -8 -18.5 -14.5t-21.5 -6.5q-22 0 -34 12t-12 30q0 19 12 31t34 12z
M424 719q87 0 163.5 -33t133.5 -90t90 -133t33 -163t-33 -163.5t-90 -133.5t-133.5 -90t-163.5 -33t-163 33t-133 90t-90 133.5t-33 163.5t33 163t90 133t133 90t163 33zM605 169q44 0 62.5 27t18.5 64t-19 64.5t-62 27.5q-22 0 -39 -10t-29 -21q-14 -13 -25 -30
q-10 17 -23 30q-11 11 -29 21t-42 10t-39 -8.5t-23 -19.5q-10 -12 -13 -27q-6 13 -16 24q-8 9 -21 16.5t-33 7.5q-14 0 -23.5 -3t-16.5 -6q-8 -4 -13 -9l12 55h105v49h-140l-29 -147h52q4 7 10 12q5 5 12.5 9t18.5 4q22 0 31.5 -15.5t9.5 -33.5t-14.5 -33.5t-32.5 -15.5
q-14 0 -21 5.5t-12 12.5q-5 8 -7 19h-53q4 -22 15 -40q9 -15 26.5 -27t46.5 -12q28 0 46 7.5t29 16.5q12 11 18 24q3 -13 13 -24q8 -9 23 -16.5t39 -7.5t42 8t29 19q13 12 23 28q11 -16 25 -28q12 -11 29 -19t39 -8z" />
    <glyph glyph-name="circleaboutme" unicode="circleaboutme" 
d="M591 381q27 0 45 -21q12 -15 13 -40h-118q1 27 18 44q19 17 42 17zM425 720q87 0 163.5 -33t133.5 -90t90 -133.5t33 -163.5t-33 -163.5t-90 -133.5t-133.5 -90t-163.5 -33t-163.5 33t-133.5 90t-90 133.5t-33 163.5t33 163.5t90 133.5t133.5 90t163.5 33zM450 339
q0 37 -17 53q-17 18 -49 18q-39 0 -65 -37q-6 18 -21 27q-17 10 -39 10t-38 -10q-17 -9 -27 -24v29h-32v-209h36v108q0 29 6 44q6 16 19 23q13 8 28 8q20 0 29 -12q8 -13 8 -35v-136h36v121q0 32 15 47t38 15q12 0 21 -6q8 -6 13 -15q3 -9 3 -30v-132h36v143zM687 301
q0 51 -27 80t-69 29q-43 0 -72 -29q-27 -30 -27 -82t27 -80t74 -28q37 0 61 18q23 17 32 49l-37 5q-7 -21 -22 -33q-13 -10 -34 -10q-28 0 -44 18q-19 20 -20 53h158v10z" />
    <glyph glyph-name="circleaddme" unicode="circleaddme" 
d="M425 720q87 0 163 -33t133 -89.5t90 -133t33 -163.5t-33 -163t-90 -133t-133 -90t-163 -33t-163.5 33t-133 90t-89.5 133t-33 163t33 163.5t89.5 133t133 89.5t163.5 33zM634 354h-157v157h-105v-157h-157v-105h157v-157h105v157h157v105z" />
    <glyph glyph-name="circleamazon" unicode="circleama&#x7a;on" 
d="M388 304q0 24 12.5 36.5t29.5 17.5q17 4 42 4v-12q0 -17 -1 -31.5t-10 -29.5q-9 -22 -31 -27q-2 0 -4 -0.5t-4 -0.5q-16 0 -25 12t-9 31zM424 719q87 0 163 -33t133 -89.5t90 -132.5t33 -163t-33 -163t-90 -133t-133 -90t-163 -33t-163 33t-132.5 90t-89.5 133t-33 163
t33 163t89.5 132.5t132.5 89.5t163 33zM465 459q6 -9 6.5 -20t0.5 -22v-8q-10 -1 -20.5 -1.5t-21.5 -2.5q-17 -2 -33 -5.5t-30 -10.5q-27 -12 -43.5 -36t-16.5 -59q0 -45 24 -67.5t59 -22.5q22 0 40 5q14 5 26.5 13.5t26.5 23.5q8 -11 13 -18.5t19 -19.5q8 -3 14 1
q8 8 21 19t21 19q4 3 3.5 7t-2.5 8q-8 11 -14.5 22.5t-6.5 31.5v91q0 29 -2 54.5t-22 45.5q-17 16 -41 22.5t-44 6.5h-12q-18 -1 -36.5 -6t-34.5 -15.5t-27.5 -27t-15.5 -40.5q-2 -6 1.5 -8.5t6.5 -3.5l55 -7q7 1 9 11q4 17 16 25.5t26 10.5h4q20 0 31 -16zM636 133
q7 5 3 11t-12 3q-3 -2 -6.5 -3t-6.5 -3q-46 -18 -92.5 -27t-91.5 -9q-71 0 -137 19t-122 52q-5 3 -7.5 -0.5t2.5 -7.5q51 -48 117 -75t141 -27q47 0 97.5 13t92.5 39q5 4 11 7.5t11 7.5zM686 171q0 6 -2 10q-4 5 -25.5 7t-44.5 -5q-12 -4 -23 -12q-4 -2 -3.5 -5t4.5 -3
q10 2 22 3q14 2 27.5 1t17.5 -6q3 -3 2 -11.5t-4 -19t-6.5 -20.5t-6.5 -16q-2 -5 1 -6t6 2q18 16 26 39.5t9 38.5v3z" />
    <glyph glyph-name="circleaol" unicode="circleaol" 
d="M424 717q87 0 163 -33t133 -89.5t90 -132.5t33 -163t-33 -163t-90 -133t-133 -90t-163 -33t-163 33t-132.5 90t-89.5 133t-33 163t33 163t89.5 132.5t132.5 89.5t163 33zM482 534q-26 0 -44.5 -18.5t-18.5 -44.5t18.5 -44t44.5 -18q27 0 45.5 18t18.5 44t-18.5 44.5
t-45.5 18.5zM620 110l-4 8q-52 101 -146 147q-1 1 -2 1l-1 1l-2 1q-2 2 -2 3q2 6 3.5 7t3.5 1h8q9 -2 17.5 -3t18.5 -1q20 0 42.5 6.5t50.5 20.5l8 5l-28 60l-9 -4q-10 -5 -25.5 -9t-33.5 -4q-22 0 -38 6l-4 2l-1 3q-1 1 -1 3t-1 4v3v13l-8 1q-13 3 -32 12l-5 3l-5 -2
q-33 -19 -49 -50.5t-21 -85.5q-2 -14 -3 -19.5t-2 -7.5q-11 -22 -25.5 -37.5t-29.5 -26t-29.5 -16.5t-25.5 -9l-11 -3l30 -80l9 3q33 8 56.5 19.5t40.5 25t29 28t23 28.5l7 10q2 2 4 2l4 -2q27 -12 47 -25t34.5 -26t23 -25t13.5 -20l5 -9z" />
    <glyph glyph-name="circleappstorealt" unicode="circleappstorealt" 
d="M424 537q49 0 92 -18.5t75 -50.5t50.5 -75t18.5 -92t-18.5 -91.5t-50.5 -74.5t-75 -50.5t-92 -18.5t-91.5 18.5t-74.5 50.5t-50.5 74.5t-18.5 91.5t18.5 92t50.5 75t74.5 50.5t91.5 18.5zM555 275h-78v183h-105v-183h-78l130 -131zM424 720q87 0 163 -33t133 -90t90 -133
t33 -163t-33 -163t-90 -132.5t-133 -89.5t-163 -33t-163 33t-132.5 89.5t-89.5 132.5t-33 163t33 163t89.5 133t132.5 90t163 33zM424 40q54 0 102 20.5t83.5 56t56 83t20.5 101.5t-20.5 102t-56 83.5t-83.5 56t-102 20.5t-101.5 -20.5t-83 -56t-56 -83.5t-20.5 -102
t20.5 -101.5t56 -83t83 -56t101.5 -20.5z" />
    <glyph glyph-name="circleappstore" unicode="circleappstore" 
d="M424 718q87 0 163 -33t133 -89.5t90 -132.5t33 -163t-33 -163t-90 -133t-133 -90t-163 -33t-163 33t-132.5 90t-89.5 133t-33 163t33 163t89.5 132.5t132.5 89.5t163 33zM163 259q0 -12 12 -12h53l66 105h-119q-12 0 -12 -9v-84zM252 125q5 3 4.5 7t-4.5 6l-31 18
q-10 5 -12 -6l-5 -47q-1 -5 1.5 -6.5t6.5 1.5zM262 152q4 -3 9 -2t7 6l143 250q3 4 2 9t-6 7l-31 18q-11 5 -16 -5l-144 -249q-5 -10 5 -17zM501 247l-44 105h-32l-66 -105h142zM549 231q9 -5 14 -3.5t11 4.5q6 2 13.5 10t2.5 19q-3 5 -15 27t-27 50.5t-30.5 57t-26.5 46.5
q-11 17 -23.5 38.5t-23.5 40t-20 30.5t-13 10q-6 -3 -1.5 -20.5t13.5 -40.5t19.5 -46t16.5 -37t19 -44t27 -60.5t26.5 -55t17.5 -26.5zM589 166q7 -11 18 -5l13 8q5 2 6 7.5t-1 10.5l-15 28q-2 5 -7 6.5t-10 -0.5l-18 -9q-5 -2 -6 -7t2 -10zM658 88q2 26 -2 44
q-4 15 -13.5 23.5t-29.5 -2.5q-3 -3 -7.5 -11t5.5 -22q5 -7 12.5 -11t14.5 -7t12.5 -6t7.5 -8zM686 343q0 5 -3.5 7t-8.5 2h-105l53 -105h52q5 0 8.5 3.5t3.5 8.5v84z" />
    <glyph glyph-name="circlebebo" unicode="circlebebo" 
d="M425 721q87 0 163.5 -33t133.5 -90t90 -133.5t33 -163.5t-33 -163.5t-90 -133.5t-133.5 -90t-163.5 -33t-163.5 33t-133.5 90t-90 133.5t-33 163.5t33 163.5t90 133.5t133.5 90t163.5 33zM474 65q39 0 73 13.5t59.5 36.5t40 54t14.5 67q0 35 -11 66t-30 54t-44.5 36.5
t-54.5 13.5h-93q-20 0 -33.5 -10t-13.5 -29t13.5 -29.5t33.5 -10.5h93q17 0 32 -22t15 -56q0 -33 -27.5 -56t-66.5 -23h-46q-39 0 -60.5 23.5t-21.5 61.5v237q0 19 -16.5 32t-35.5 13q-20 0 -36.5 -13t-16.5 -32v-237q0 -38 14.5 -72t40 -60.5t59.5 -42t73 -15.5h46z" />
    <glyph glyph-name="circlebehance" unicode="circlebehance" 
d="M562 326q19 0 31 -12q6 -6 9.5 -13t4.5 -27h-90q2 20 5.5 26.5t8.5 12.5q12 13 31 13zM347 338q-6 -4 -13.5 -8t-17.5 -4h-48v79h41q11 0 19 -2.5t15 -4.5q15 -8 15 -31q0 -22 -11 -29zM346 272q9 -5 13.5 -11.5t4.5 -18.5q0 -30 -19 -40q-11 -6 -29 -6h-48v78h49
q10 0 17 0.5t12 -2.5zM425 719q87 0 163 -33t133 -89.5t90 -133t33 -163.5t-33 -163t-90 -133t-133 -90t-163 -33t-163.5 33t-133 90t-89.5 133t-33 163t33 163.5t89.5 133t133 89.5t163.5 33zM412 188q13 22 13 50q0 26 -11 46q-12 19 -34 28q14 7 22 18q14 17 14 46
q0 28 -14 48q-21 33 -74 33h-139v-314h130q11 0 21 1t19 3q18 4 33 16q13 12 20 25zM503 405h105v52h-105v-52zM660 248v5.5v12.5t-0.5 14t-0.5 11q-4 25 -16 44q-7 12 -15.5 20t-18.5 13q-22 11 -47 11q-43 0 -71 -31q-27 -30 -27 -88q0 -61 30 -89q29 -26 70 -26
q48 0 74 34q9 10 13.5 19t6.5 24h-53q-2 -15 -5 -15.5t-6 -2.5q-5 -5 -12.5 -9t-16.5 -4q-16 0 -28 9q-10 7 -15 17.5t-6 30.5h144z" />
    <glyph glyph-name="circlebing" unicode="circlebing" 
d="M425 719q87 0 163 -33t133 -89.5t90 -133t33 -163.5t-33 -163t-90 -133t-133 -90t-163 -33t-163 33t-133 90t-90 133t-33 163t33 163.5t90 133t133 89.5t163 33zM425 65q49 0 91.5 13t74.5 35.5t50.5 52.5t18.5 65q0 34 -18.5 64.5t-50.5 53.5t-74.5 36t-91.5 13
q-21 0 -40 -2t-37.5 -8t-38 -16t-41.5 -25v189h-79v-309h1q1 -34 20 -63.5t50.5 -51.5t74 -34.5t90.5 -12.5zM425 342q31 0 58.5 -8.5t47.5 -23.5t32 -35.5t12 -43.5t-12 -43t-32 -35t-47.5 -24t-58.5 -9t-58.5 9t-47.5 24t-32 35t-12 43t12 43.5t32 35.5t47.5 23.5
t58.5 8.5zM425 160q21 0 39 6t31.5 15.5t21 23t7.5 28.5t-7.5 28.5t-21 23t-31.5 15.5t-39 6t-39 -6t-31.5 -15.5t-21 -23t-7.5 -28.5t7.5 -28.5t21 -23t31.5 -15.5t39 -6z" />
    <glyph glyph-name="circleblip" unicode="circleblip" 
d="M425 720q87 0 163 -33t133 -89.5t90 -133t33 -163.5t-33 -163t-90 -133t-133 -90t-163 -33t-163 33t-133 90t-90 133t-33 163t33 163.5t90 133t133 89.5t163 33zM346 92l-131 131v-79l-26 -26l53 -52l26 26h78zM510 92q0 60 -23.5 113.5t-63.5 93.5t-93.5 63.5
t-114.5 23.5v-85q42 0 81 -15.5t68 -44.5t45 -68t16 -81h85zM660 92q0 91 -35 172t-95.5 142t-141.5 96t-173 35v-85q74 0 139.5 -28.5t114.5 -77.5t77.5 -114.5t28.5 -139.5h85z" />
    <glyph glyph-name="circleblogger" unicode="circleblogger" 
d="M369 361q-11 0 -19.5 8t-8.5 20q0 11 8.5 19.5t19.5 8.5h83q12 0 20 -8.5t8 -19.5q0 -12 -8 -20t-20 -8h-83zM537 247q12 0 20 -8t8 -20q0 -11 -8 -19.5t-20 -8.5h-168q-11 0 -19.5 8.5t-8.5 19.5q0 12 8.5 20t19.5 8h168zM424 716q87 0 163 -33t132.5 -89.5t89.5 -132.5
t33 -162q0 -87 -33 -163t-89.5 -132.5t-132.5 -89t-163 -32.5q-86 0 -162 32.5t-132.5 89t-89.5 132.5t-33 163q0 86 33 162t89.5 132.5t132.5 89.5t162 33zM688 337l-1 6l-4 9l-7 5q-3 3 -11.5 3t-19 0.5t-20 1.5t-13.5 5q-6 6 -8 16t-4 24q-2 13 -3.5 21t-3 13t-3 8.5
t-3.5 8.5q-8 16 -21.5 30t-29.5 24.5t-33 17t-31 8.5h-104q-31 0 -58 -11.5t-47.5 -31.5t-32 -47t-11.5 -58v-173q0 -30 11.5 -57t32 -47.5t47.5 -32t58 -11.5h170q31 0 58 11.5t47 32t32 47.5t12 57z" />
    <glyph glyph-name="circlecoroflot" unicode="circlecoroflot" 
d="M425 718q87 0 163 -33t132.5 -89.5t89.5 -132.5t33 -163q0 -86 -33 -162t-89.5 -133t-132.5 -90t-163 -33t-163 33t-132.5 90t-89.5 133t-33 162q0 87 33 163t89.5 132.5t132.5 89.5t163 33zM226 456q-3 -15 18 -17t51 0q14 1 27 -8.5t22.5 -28.5t15 -46.5t4.5 -60.5
q13 4 30 6q0 8 -2.5 27.5t-10 43t-21 47t-35.5 40.5q12 1 29 -2t37 -15t43 -35t48 -62q9 5 19 6q-9 15 -27.5 39.5t-43.5 47t-56.5 36t-65.5 4.5q1 12 0 23.5t-4.5 19.5t-9.5 11t-15 -2q-11 -6 -13.5 -11t-2 -11t2 -13t0.5 -16q-2 -9 -7.5 -11.5t-12.5 -2.5t-13 -1t-7 -8z
M406 68q21 0 40 8t33 22t22 33t8 40t-8 40t-22 33t-33 22t-40 8t-40 -8t-33 -22t-22 -33t-8 -40t8 -40t22 -33t33 -22t40 -8zM533 140q19 1 35.5 8.5t29 20.5t19.5 30t7 36q0 40 -28 68t-68 28q-23 0 -42.5 -10.5t-33.5 -27.5q38 -14 61.5 -47t23.5 -75q0 -18 -4 -31z
M375 233q10 0 16.5 -6.5t6.5 -16.5q0 -9 -6.5 -15.5t-16.5 -6.5q-9 0 -15.5 6.5t-6.5 15.5q0 10 6.5 16.5t15.5 6.5z" />
    <glyph glyph-name="circledaytum" unicode="circledaytum" 
d="M424 717q87 0 163 -33t132.5 -89.5t89.5 -132.5t33 -162q0 -87 -33 -163t-89.5 -132.5t-132.5 -89t-163 -32.5q-86 0 -162 32.5t-132.5 89t-89.5 132.5t-33 163q0 86 33 162t89.5 132.5t132.5 89.5t162 33zM268 195h-52v-156h52v156zM346 300h-52v-261h52v261zM424 248
h-52v-209h52v209zM503 404h-53v-365h53v365zM581 300h-52v-261h52v261zM659 456h-52v-417h52v417zM659 535h-443v-53h443v53z" />
    <glyph glyph-name="circledelicious" unicode="circledelicious" 
d="M425 720q87 0 163.5 -33t133 -90t89.5 -133.5t33 -163.5t-33 -163.5t-89.5 -133.5t-133 -90t-163.5 -33t-163.5 33t-133.5 90t-90 133.5t-33 163.5t33 163.5t90 133.5t133.5 90t163.5 33zM635 510h-210v-210h-210v-210h210v210h210v210z" />
    <glyph glyph-name="circledesignbump" unicode="circledesignbump" 
d="M425 720q87 0 163.5 -33t133.5 -90t90 -133.5t33 -163.5t-33 -163.5t-90 -133.5t-133.5 -90t-163.5 -33t-163.5 33t-133.5 90t-90 133.5t-33 163.5t33 163.5t90 133.5t133.5 90t163.5 33zM346 432h53v-53l105 -105h-105v-105l105 105v158h52l-105 105zM372 300h53
l-105 105l-105 -105h52v-236h105v236zM451 117h-52v-53h52v53zM635 143l-105 105l-105 -105h52v-79h105v79h53z" />
    <glyph glyph-name="circledesignfloat" unicode="circledesignfloat" 
d="M425 385q35 0 59 -24.5t24 -59.5t-24 -59t-59 -24t-59.5 24t-24.5 59t24.5 59.5t59.5 24.5zM425 513q44 0 82.5 -16.5t67.5 -45.5t45.5 -67.5t16.5 -82.5t-16.5 -82.5t-45.5 -67.5t-67.5 -45.5t-82.5 -16.5t-82.5 16.5t-67.5 45.5t-45.5 67.5t-16.5 82.5t16.5 82.5
t45.5 67.5t67.5 45.5t82.5 16.5zM373 480q-59 -12 -87 -53t-40 -100h52q10 40 32.5 65.5t42.5 36.5v51zM373 174q-10 5 -21 10t-21.5 13t-19 20t-13.5 32h-52q12 -59 40 -87t87 -40v52zM317 301q0 -22 9 -41.5t23.5 -34t34 -23t41.5 -8.5t41.5 8.5t34 23t23 34t8.5 41.5
t-8.5 42t-23 34.5t-34 23t-41.5 8.5t-41.5 -8.5t-34 -23t-23.5 -34.5t-9 -42zM451 122q29 6 54.5 15.5t45.5 24.5t33.5 36t19.5 51h-52q-5 -20 -14 -32t-22 -20t-29.5 -13t-35.5 -10v-52zM604 327q-12 60 -53 100.5t-100 52.5v-51q39 -11 65 -36.5t36 -65.5h52zM425 720
q87 0 163 -33t133 -89.5t90 -133t33 -163.5t-33 -163t-90 -133t-133 -90t-163 -33t-163 33t-133 90t-90 133t-33 163t33 163.5t90 133t133 89.5t163 33zM425 66q49 0 91.5 18.5t74.5 50.5t50.5 74.5t18.5 91.5t-18.5 92t-50.5 75t-74.5 50.5t-91.5 18.5t-92 -18.5t-75 -50.5
t-50.5 -75t-18.5 -92t18.5 -91.5t50.5 -74.5t75 -50.5t92 -18.5z" />
    <glyph glyph-name="circledeviantart" unicode="circledeviantart" 
d="M282 231q-5 14 -3 28q2 12 11 27t32 30l32 -66zM425 718q87 0 163 -33t133 -90t90 -133t33 -163t-33 -163.5t-90 -133.5t-133 -90t-163 -33t-163.5 33t-133.5 90t-90 133.5t-33 163.5t33 163t90 133t133.5 90t163.5 33zM681 291q-25 33 -68 56q-37 20 -96.5 31t-147.5 -4
h-4l-23 46l-67 -8l27 -56q-27 -11 -44.5 -25.5t-28 -30.5t-15 -32.5t-5.5 -32.5q-2 -37 14 -76l217 62l-59 121q40 11 75.5 8t62.5 -12q32 -11 58 -28l-74 -20l-21 40q-15 2 -32 2.5t-35 -2.5l50 -101z" />
    <glyph glyph-name="circlediggalt" unicode="circlediggalt" 
d="M633 247h-26v79h26v-79zM424 718q87 0 163 -33t133 -89.5t90 -132.5t33 -163t-33 -163t-90 -133t-133 -90t-163 -33t-163 33t-132.5 90t-89.5 133t-33 163t33 163t89.5 132.5t132.5 89.5t163 33zM294 457h-53v-79h-78v-183h131v183v79zM372 378h-52v-183h52v183zM372 457
h-52v-53h52v53zM529 378h-131v-183h79v-26h-79v-52h131v52v26v183zM686 378h-131v-183h78v-26h-78v-52h131v52v26v183zM215 326h26v-79h-26v79zM477 247h-27v79h27v-79z" />
    <glyph glyph-name="circledigg" unicode="circledigg" 
d="M294 179q11 0 18.5 -6.5t7.5 -15.5v-22h-87v22q0 9 7.5 15.5t18.5 6.5h35zM555 379h-78v79h78v-79zM607 357h26v-56h-52v-157h-52v78h-22v-78h-57v157h-52v52h26v-26h183v30zM424 719q87 0 163 -33t133 -89.5t90 -132.5t33 -163t-33 -163t-90 -133t-133 -90t-163 -33
t-163 33t-132.5 90t-89.5 133t-33 163t33 163t89.5 132.5t132.5 89.5t163 33zM686 401h-79v109h-183v-109h-26v3q-21 17 -41 31q-18 11 -38.5 21t-37.5 10q-18 0 -38.5 -10t-38.5 -21q-21 -14 -41 -31v-156h104v-26q-14 -1 -27.5 -6t-25 -14t-18.5 -20.5t-7 -24.5v-49
q0 -7 5 -11.5t12 -4.5h140q7 0 12 4.5t5 11.5v33v16q0 26 -21 44.5t-48 20.5v26h43h44h21v-156h231v156h53v153zM215 385q19 17 37.5 27.5t28.5 10.5q9 0 27.5 -10.5t37.5 -27.5v-84h-131v84z" />
    <glyph glyph-name="circledribble" unicode="circledribble" 
d="M424 718q87 0 163 -33t133 -89.5t90 -132.5t33 -163t-33 -163t-90 -133t-133 -90t-163 -33t-163 33t-132.5 90t-89.5 133t-33 163t33 163t89.5 132.5t132.5 89.5t163 33zM424 64q49 0 92 18.5t75 50.5t50.5 75t18.5 92t-18.5 91.5t-50.5 74.5t-75 50.5t-92 18.5
q-48 0 -91 -18.5t-75 -50.5t-50.5 -74.5t-18.5 -91.5t18.5 -92t50.5 -75t75 -50.5t91 -18.5zM444 293q-51 -17 -92.5 -49t-71.5 -77q-47 52 -52 124q8 -1 14.5 -1h13.5q92 0 176 31l6 -14zM469 336q63 28 117 74q34 -49 34 -109q-38 9 -74 9q-33 0 -64 -7q-3 8 -6 16.5
t-7 16.5zM310 140q26 42 64 71.5t83 44.5q11 -34 18 -69.5t11 -72.5q-29 -10 -62 -10q-63 0 -114 36zM495 266q28 5 51 5q37 0 70 -10q-8 -41 -32 -75t-60 -55q-7 68 -29 135zM561 440q-26 -21 -53 -38.5t-56 -30.5q-17 31 -36.5 60.5t-42.5 57.5q24 7 51 7q39 0 74 -14.5
t63 -41.5zM415 356q-77 -27 -159 -27h-13.5t-11.5 1q7 46 34 84t69 60q47 -54 81 -118z" />
    <glyph glyph-name="circledrupal" unicode="circledrupal" 
d="M425 719q87 0 163 -33t133 -89.5t90 -133t33 -163.5t-33 -163t-90 -133t-133 -90t-163 -33t-163.5 33t-133 90t-89.5 133t-33 163t33 163.5t89.5 133t133 89.5t163.5 33zM427 65q42 0 79.5 14t66 40.5t45 63t16.5 81.5t-14.5 78.5t-32.5 55.5t-35 34.5t-23 15.5
q-18 11 -35.5 18t-34.5 18q-11 8 -25 22.5t-26 29.5q-2 -23 -9 -34.5t-15 -18.5q-18 -14 -31 -20.5t-28 -14.5q-6 -3 -24 -15t-37 -34t-34 -54.5t-15 -76.5t17.5 -81t47 -64t67.5 -42.5t80 -15.5zM380 280q20 0 37.5 -8t32 -17.5t27 -18t22.5 -8.5q9 0 20.5 7t24 15.5
t24.5 15.5t20 7q17 0 23 -13.5t6 -24.5t-3.5 -27t-11.5 -28t-14.5 -17t-16.5 -4q-6 0 -15 8.5t-19 18t-19.5 18t-17.5 8.5q-10 0 -25.5 -8.5t-33 -19t-36.5 -19t-36 -8.5q-20 0 -29 2.5t-16 7.5q-21 15 -20 44q0 27 22 48t54 21zM382 429q-14 -14 -27.5 -25t-39.5 -26
t-37.5 -16.5t-13.5 -0.5q-1 1 -3.5 4t2.5 11q8 13 19.5 23.5t23 19t21 14t14.5 7.5q3 2 16.5 9t29.5 18q9 8 15.5 17t9.5 32q2 -8 3.5 -15t0.5 -16q-1 -8 -6.5 -13.5l-7.5 -7.5l-14 -7q-3 -3 0 -3q6 -2 6 -6q0 -2 -2 -6.5t-10 -12.5zM461 142q-6 -5 -8.5 -6.5t-4.5 1.5
q-4 5 3 12q4 3 9.5 7.5t11.5 7.5q6 2 10 2h10q5 0 10.5 -0.5t9.5 -3.5q5 -2 7 -7t4 -9q2 -6 -4 -9q-2 -2 -3 -1t-4 6q-2 5 -6 8.5t-16 3.5t-17.5 -3.5t-11.5 -8.5zM526 120q4 3 7 -2v-3.5t-2 -4.5q-2 -2 -16 -9.5t-33 -9.5q-18 -2 -40.5 -0.5t-37.5 15.5q-3 2 -2.5 5t2.5 4
q4 4 7 4q2 0 3 -1q7 -6 18.5 -9.5t34.5 -3.5q22 0 37 5t22 10z" />
    <glyph glyph-name="circleebay" unicode="circleebay" 
d="M367 247q-1 -24 -34 -39h-1v39h35zM452 333q-18 -14 -18 -45q0 -19 7.5 -33.5t26.5 -19.5v23q0 18 -1.5 39.5t-14.5 35.5zM400 315q16 0 18 -15.5t2 -41.5q0 -32 -3 -46t-17 -14q-13 0 -16.5 14t-3.5 46q0 26 2.5 41.5t17.5 15.5zM425 719q87 0 163 -33t133 -89.5
t90 -133t33 -163.5t-33 -163t-90 -133t-133 -90t-163 -33t-163 33t-133 90t-90 133t-33 163t33 163.5t90 133t133 89.5t163 33zM739 431h-64l-49 -101l-46 101h-69l12 -22q-5 0 -10.5 0.5t-11.5 0.5q-31 0 -45 -11q-19 -11 -19 -41h48q0 10 2.5 18t16.5 8q13 0 16 -7t3 -18
v-13q-20 0 -39 -1.5t-32 -11.5q-11 11 -32 11q-25 0 -39 -19h-1v88h-48v-79q-5 2 -11.5 3.5t-14.5 3.5q-26 6 -67 6q-44 0 -69 -6t-38.5 -16.5t-17 -24t-3.5 -28.5q0 -18 4 -32.5t17.5 -25t38.5 -16t68 -5.5q20 0 36.5 2t30.5 4q16 3 26 9v-35h46v18h1q12 -22 41 -22
q15 0 24 6t14 15.5t7 21t3 23.5q4 -1 12 -1q30 0 45 26h1l2 -23h45q-1 8 -1.5 16t-0.5 16v45l20 -39v-83h63v83zM523 409q32 -5 40 -20.5t8 -35.5v-39zM481 290q0 11 3 17t9 8.5t13.5 3t16.5 0.5q0 -7 0.5 -16.5t-1.5 -18t-7 -14.5t-16 -6q-12 0 -15 8.5t-3 17.5zM239 220
q-14 0 -22 4.5t-12 11t-4.5 14t-0.5 14.5h132v-17h-26h-29q0 -10 -7 -18.5t-31 -8.5zM332 264v70q26 -11 32.5 -29t4.5 -41h-37zM239 321q16 0 24.5 -3.5t12 -8.5t4 -11t0.5 -11h-80q0 4 0.5 10t4 11.5t11.5 9t23 3.5z" />
    <glyph glyph-name="circleemail" unicode="circleemail" 
d="M425 721q87 0 163.5 -33t133.5 -90t90 -133.5t33 -163.5t-33 -163.5t-90 -133.5t-133.5 -90t-163.5 -33t-163.5 33t-133.5 90t-90 133.5t-33 163.5t33 163.5t90 133.5t133.5 90t163.5 33zM189 192l126 90l-126 90v-180zM661 152l-154 110l-82 -59l-83 59l-153 -110v-61
h472v61zM661 372l-126 -90l126 -90v180zM661 511h-472v-61l236 -168l236 168v61z" />
    <glyph glyph-name="circleemberapp" unicode="circleemberapp" 
d="M611 301q0 -10 -1.5 -20.5t-1.5 -21.5q0 -29 -9.5 -58t-29.5 -54q-24 -30 -58 -46t-83 -18q-57 3 -99 30t-62 80q0 6 -7 12.5t-10 14.5q2 2 2.5 3t2.5 3h-1q5 5 6 13t2 19q2 18 7.5 45.5t25.5 54.5q17 23 39.5 43.5t44.5 38.5q21 18 38 33.5t27 30.5q19 -15 43 -36
t45.5 -45t37 -49t17.5 -48l6 -48zM570 172q15 18 23.5 39t13.5 42l-14 -17l-6 49q-2 23 -17.5 48t-37 49t-45.5 45t-43 36q-10 -15 -27 -31t-38 -33q-22 -19 -44.5 -39.5t-39.5 -43.5q-20 -26 -25.5 -53.5t-7.5 -45.5q-1 -2 -1 -6q53 -99 163 -103q99 3 146 64zM424 719
q87 0 163.5 -33t133.5 -90t90 -133t33 -163t-33 -163.5t-90 -133.5t-133.5 -90t-163.5 -33t-163 33t-133 90t-90 133.5t-33 163.5t33 163t90 133t133 90t163 33zM423 64q70 2 112 27.5t64 61.5t29 77t6 75t-5 54.5t-3 15.5q1 -8 -1.5 -16t-6.5 -15q-4 -8 -10 -16
q-5 35 -32 72.5t-59 67.5q-37 35 -82 68q-1 -16 -18.5 -34t-41.5 -39t-51 -44t-46 -50q-17 -22 -24 -45t-10 -41.5t-4 -31t-4 -13.5q-6 -2 -14 2q-4 2 -7 5q18 -61 45.5 -96.5t57.5 -54t58 -24t47 -6.5z" />
    <glyph glyph-name="circleetsy" unicode="circleetsy" 
d="M424 720q87 0 163.5 -33t134 -90t90.5 -133.5t33 -163.5t-33 -163.5t-90.5 -134t-134 -90.5t-163.5 -33t-163.5 33t-133.5 90.5t-90 134t-33 163.5t33 163.5t90 133.5t133.5 90t163.5 33zM634 195h-14q-12 -20 -23.5 -40.5t-22.5 -32.5q-9 -9 -17.5 -15.5t-18.5 -9.5
t-25 -5t-36 -2h-83q-21 0 -29 5q-9 5 -12 13q-2 4 -4.5 15t-2.5 28v149h116q30 0 45 -9q14 -7 21 -22q5 -9 11 -48h17v184h-17q-2 -20 -7 -37.5t-14 -26.5q-8 -7 -21.5 -11t-34.5 -4h-116v184h142q40 0 51 -5q20 -8 28 -22q9 -15 16 -52h15l-6 105h-378v-26h18q15 0 28 -1
t19 -9q5 -5 9.5 -17.5t4.5 -37.5v-289q0 -20 -3 -31t-5 -17t-8.5 -9t-11.5 -7q-8 -4 -16.5 -3t-16.5 1h-18v-27h378z" />
    <glyph glyph-name="circlefacebook" unicode="circlefacebook" 
d="M424 718q87 0 163.5 -33t133.5 -90t90 -133t33 -163t-33 -163.5t-90 -133.5t-133.5 -90t-163.5 -33t-163 33t-133 90t-90 133.5t-33 163.5t33 163t90 133t133 90t163 33zM582 535h-89q-26 0 -48 -9t-38.5 -24t-25.5 -34t-9 -38v-53h-79v-104h79v-210h105v210h78v104h-78
v27q0 12 9.5 19t16.5 7h79v105z" />
    <glyph glyph-name="circlefeedburner" unicode="circlefeedburner" 
d="M425 720q87 0 163.5 -33t133.5 -90t90 -133.5t33 -163.5t-33 -163.5t-90 -133.5t-133.5 -90t-163.5 -33t-163.5 33t-133.5 90t-90 133.5t-33 163.5t33 163.5t90 133.5t133.5 90t163.5 33zM384 558q-24 -17 -47 -48t-41 -68.5t-29 -77.5t-11 -75q0 -50 12 -89.5
t33.5 -67.5t50.5 -43.5t63 -15.5q33 0 64.5 14.5t56 38.5t39.5 54t15 62q0 36 -9 62.5t-24 45.5t-34 33t-39 26q6 -32 0 -57t-20 -41t-34.5 -22t-44.5 1q23 39 29 66t2.5 47.5t-13 36.5t-17.5 33t-10.5 37t8.5 48zM425 43q49 0 92 8t75 22t50.5 32.5t18.5 39.5q0 19 -14 35
t-39 30q-9 -28 -28.5 -53.5t-45 -44t-56 -29.5t-62.5 -11q-60 0 -105 37t-65 103q-27 -14 -42 -30.5t-15 -36.5q0 -21 18.5 -39.5t50.5 -32.5t75 -22t92 -8zM415 106q-34 0 -62.5 17t-43 48.5t-11 75t35.5 95.5q-6 -30 -1.5 -56t16 -45t28 -29.5t33.5 -10.5q38 -1 61.5 31.5
t34.5 80.5q31 -24 39.5 -59t-3.5 -67.5t-44 -56t-83 -24.5z" />
    <glyph glyph-name="circleflickr" unicode="circleflickr" 
d="M424 718q87 0 163 -33t133 -89.5t90 -132.5t33 -163t-33 -163t-90 -133t-133 -90t-163 -33t-163 33t-132.5 90t-89.5 133t-33 163t33 163t89.5 132.5t132.5 89.5t163 33zM294 195q21 0 40 8t33.5 22.5t22.5 33.5t8 41t-8 41t-22.5 33t-33.5 22t-40 8q-22 0 -41 -8
t-33.5 -22t-22.5 -33t-8 -41t8 -41t22.5 -33.5t33.5 -22.5t41 -8zM555 195q22 0 41 8t33 22.5t22.5 33.5t8.5 41t-8.5 41t-22.5 33t-33 22t-41 8t-41 -8t-33.5 -22t-22.5 -33t-8 -41t8 -41t22.5 -33.5t33.5 -22.5t41 -8z" />
    <glyph glyph-name="circlefoodspotting" unicode="circlefoodspotting" 
d="M600 133q8 0 16 -9q6 -9 6 -28q0 -18 -7 -26q-6 -8 -15 -8q-12 0 -18 11q-5 10 -5 26q0 18 7 25q6 9 16 9zM477 483q21 0 40 -8.5t33.5 -22.5t22.5 -33t8 -41t-8 -41t-22.5 -33t-33.5 -22t-40 -8q-22 0 -41 8t-33.5 22t-22.5 33t-8 41t8 41t22.5 33t33.5 22.5t41 8.5z
M477 326q22 0 37 15t15 37t-15 37.5t-37 15.5t-37.5 -15.5t-15.5 -37.5t15.5 -37t37.5 -15zM424 718q87 0 163 -33t133 -89.5t90 -132.5t33 -163t-33 -163t-90 -133t-133 -90t-163 -33t-163 33t-132.5 90t-89.5 133t-33 163t33 163t89.5 132.5t132.5 89.5t163 33zM189 248
h52v261h-52v-261zM296 195h-96v-154h28v65h58v27h-58v36h68v26zM402 55q14 15 14 42t-14 42q-15 16 -38 16q-16 0 -27 -7q-12 -8 -18 -21q-7 -16 -7 -29q0 -16 7 -32q6 -13 19 -21q14 -7 27 -7q22 0 37 17zM520 55q15 16 15 42q0 25 -15 42q-13 16 -37 16q-16 0 -27 -7
q-12 -8 -18 -21q-7 -13 -7 -29q0 -19 7 -32q6 -14 19 -21q14 -7 26 -7q23 0 37 17zM648 195h-26v-55q-12 15 -29 15q-19 0 -31 -15q-12 -14 -12 -43q0 -28 12 -43q14 -16 30 -16q9 0 17 5q8 4 15 14v-16h24v154zM660 457q0 21 -15.5 36.5t-37.5 15.5h-52l-26 52h-105
l-26 -52h-52q-22 0 -37 -15.5t-15 -36.5v-157q0 -22 15 -37t37 -15h261q22 0 37.5 15t15.5 37v157zM364 131q10 0 18 -9q7 -8 7 -25q0 -18 -7 -26q-8 -9 -18 -9t-17 9q-7 8 -7 26q0 17 7 25q7 9 17 9zM483 131q10 0 18 -9q7 -11 7 -25q0 -16 -7 -26q-8 -9 -18 -9
q-11 0 -17 9q-8 10 -8 26q0 15 8 25q6 9 17 9z" />
    <glyph glyph-name="circleforrst" unicode="circleforrst" 
d="M424 717q87 0 163 -33t133 -89.5t90 -132.5t33 -163t-33 -163t-90 -133t-133 -90t-163 -33t-163 33t-132.5 90t-89.5 133t-33 163t33 163t89.5 132.5t132.5 89.5t163 33zM640 63l-216 471l-215 -471h194v107l-65 22v21l65 -21v85h43v-42l43 21v-21l-43 -22v-43l86 43v-21
l-86 -43v-86h194z" />
    <glyph glyph-name="circlefoursquare" unicode="circlefoursquare" 
d="M423 215l206 224v-89l-206 -189l-92 98l-8 -3q-14 -6 -26 -6q-33 0 -56.5 25t-23.5 60t23.5 59.5t56.5 24.5q16 0 30.5 -6.5t25 -18t17 -27t6.5 -32.5q0 -16 -6 -31l-2 -6zM424 718q87 0 163 -33t133 -89.5t90 -132.5t33 -163t-33 -163t-90 -133t-133 -90t-163 -33
t-163 33t-132.5 90t-89.5 133t-33 163t33 163t89.5 132.5t132.5 89.5t163 33zM660 515l-18 -19l-153 -164l-64 67l-27 -28q-11 34 -38.5 55.5t-62.5 21.5q-23 0 -42.5 -9t-34 -24.5t-23 -36t-8.5 -43.5t8.5 -43.5t22.5 -36t33.5 -25t41.5 -9.5l130 -137l150 158l-16 16
l101 80v21v133v16v7z" />
    <glyph glyph-name="circlefriendsfeed" unicode="circlefriendsfeed" 
d="M424 719q87 0 163 -33t133 -89.5t90 -132.5t33 -163t-33 -163t-90 -133t-133 -90t-163 -33t-163 33t-132.5 90t-89.5 133t-33 163t33 163t89.5 132.5t132.5 89.5t163 33zM617 483h-69q-27 0 -49.5 -15t-36.5 -38v53h-69q-21 0 -39.5 -9t-32.5 -25t-22 -36.5t-8 -44.5v-45
h-76v-76h76v-183h76v183h38h38h2v-183h76v183h76v76h-76v45q0 17 8.5 27.5t18.5 10.5h69v77zM452 406q-3 -9 -5 -18t-2 -20v-45h-2h-38h-38v45q0 17 8.5 27.5t17.5 10.5h59z" />
    <glyph glyph-name="circlefriendstar" unicode="circlefriendstar" 
d="M424 717q87 0 163 -33t133 -89.5t90 -132.5t33 -163t-33 -163t-90 -133t-133 -90t-163 -33t-163 33t-132.5 90t-89.5 133t-33 163t33 163t89.5 132.5t132.5 89.5t163 33zM484 364q-1 -17 2.5 -41t13.5 -34q5 -5 11 -5q36 0 36 57q0 13 -3.5 25t-8.5 22t-12 16t-14 6h-3
q-19 -3 -22 -46zM396 352q-5 -16 -2.5 -34t11.5 -30q3 -5 8 -9.5t13 -5.5h4q17 0 25 16t9 36q0 15 -6 28.5t-14 21.5t-16 8q-7 0 -16 -4t-16 -27zM657 278q5 28 2 50t-12 32q-8 9 -19 9h-2q-23 -2 -30 -18.5t-13 -48.5q-3 -15 -9 -37.5t-19.5 -43t-36 -34.5t-56.5 -12
q-37 2 -55 13t-26.5 26t-11 32t-8.5 32q-2 5 -3 9t-3 8q-5 12 -14 25.5t-22 25.5t-29 20t-35 8h-66v-49h48q11 0 27 -14.5t22 -39.5q17 -77 58.5 -116t104.5 -39h5q50 1 87 19.5t61.5 44t38 53t16.5 45.5z" />
    <glyph glyph-name="circlegdgt" unicode="circlegdgt" 
d="M424 718q87 0 163 -33t133 -89.5t90 -132.5t33 -163t-33 -163t-90 -133t-133 -90t-163 -33t-163 33t-132.5 90t-89.5 133t-33 163t33 163t89.5 132.5t132.5 89.5t163 33zM633 509l-78 -154v154l-26 26h-288l-26 -26v-261l26 -27h236v-78h-236v-52l26 -27h262l26 27v130
l78 131v157zM294 457h183v-157h-183v157z" />
    <glyph glyph-name="circlegithub" unicode="circlegithub" 
d="M424 718q87 0 163 -33t133 -89.5t90 -132.5t33 -163t-33 -163t-90 -133t-133 -90t-163 -33t-163 33t-132.5 90t-89.5 133t-33 163t33 163t89.5 132.5t132.5 89.5t163 33zM411 34q30 0 56 9t45.5 24t31 35t11.5 43q0 22 -11.5 42t-31 35t-45.5 24t-56 9q-3 0 -6 -0.5
t-5 -0.5q-5 12 -5 24q0 7 1 15.5t3 8.5h4q25 0 46.5 9.5t38 25.5t26 37.5t9.5 45.5q0 11 -4.5 24.5t-11.5 19.5l42 23v78l-86 -47q-29 20 -63 20q-25 0 -46.5 -9.5t-37.5 -25.5t-25 -37.5t-9 -45.5q0 -28 12 -51.5t32 -39.5q-11 -25 -11 -51q0 -12 2.5 -23.5t7.5 -22.5
q-26 -15 -42 -38t-16 -49q0 -23 11.5 -43t31 -35t45.5 -24t56 -9zM411 187q27 0 45.5 -12.5t18.5 -29.5q0 -18 -18.5 -30.5t-45.5 -12.5q-26 0 -45 12.5t-19 30.5q0 17 19 29.5t45 12.5zM403 365q-23 0 -39.5 16t-16.5 39t16.5 39t39.5 16t39.5 -16t16.5 -39t-16.5 -39
t-39.5 -16z" />
    <glyph glyph-name="circlegooglebuzz" unicode="circlegooglebu&#x7a;&#x7a;" 
d="M424 717q87 0 163 -33t133 -89.5t90 -132.5t33 -163t-33 -163t-90 -133t-133 -90t-163 -33t-163 33t-132.5 90t-89.5 133t-33 163t33 163t89.5 132.5t132.5 89.5t163 33zM424 508q-62 0 -115.5 -24t-85.5 -66l134 -128l201 185q-29 16 -63.5 24.5t-70.5 8.5zM208 394
q-19 -32 -19 -72q0 -36 16.5 -68.5t47.5 -58.5l84 77zM424 136q45 0 85 12.5t72 35.5l-147 140l-165 -152l-1 -2q-6 -14 -15.5 -28t-22.5 -23q5 -1 13.5 -2t19.5 -1q48 0 86 26l6 3l4 -1q17 -4 32.5 -6t32.5 -2zM603 201q57 52 57 121q0 40 -20.5 76t-57.5 62l-128 -118z
" />
    <glyph glyph-name="circlegoogletalk" unicode="circlegoogletalk" 
d="M424 719q87 0 163 -33t133 -89.5t90 -132.5t33 -163t-33 -163t-90 -133t-133 -90t-163 -33t-163 33t-132.5 90t-89.5 133t-33 163t33 163t89.5 132.5t132.5 89.5t163 33zM396 488q38 -5 71 -19t57 -35.5t37.5 -49t13.5 -57.5q0 -38 -20.5 -70t-55.5 -55q51 19 81.5 54.5
t30.5 79.5q0 31 -16.5 59t-44.5 48.5t-66.5 32.5t-81.5 12h-6zM543 181q64 23 103.5 67.5t39.5 99.5q0 39 -20.5 73t-56 59.5t-83.5 40.5t-102 15t-101.5 -16t-83 -42.5t-56 -62t-20.5 -74.5q0 -34 16 -64t41.5 -54t57.5 -41t63 -24q-7 -21 -23.5 -47t-44.5 -44q45 -5 86 4
q35 7 72.5 29.5t61.5 69.5q-14 -18 -36 -34q-19 -14 -48 -26t-70 -16q12 16 21 31t15 26q7 13 13 25q-30 7 -57.5 18t-51.5 26.5t-42 34t-28 40.5l-4 20t-2 21q0 37 16.5 69t45.5 55.5t70 36.5t89 13t89 -12.5t71 -35t46.5 -53.5t16.5 -69q0 -51 -25.5 -93t-78.5 -66z" />
    <glyph glyph-name="circlegowallapin" unicode="circlegowallapin" 
d="M424 717q87 0 163 -33t133 -89.5t90 -132.5t33 -163t-33 -163t-90 -133t-133 -90t-163 -33t-163 33t-132.5 90t-89.5 133t-33 163t33 163t89.5 132.5t132.5 89.5t163 33zM461 204q28 6 52.5 21.5t42 37.5t27.5 49t10 57q0 35 -13.5 65.5t-36.5 53.5t-53.5 36.5
t-65.5 13.5t-65.5 -13.5t-53.5 -36.5t-36 -53.5t-13 -65.5q0 -30 10 -57t27.5 -49t41.5 -37.5t52 -21.5l37 -144zM424 495q26 0 49 -10t40.5 -27t27.5 -40t10 -49t-10 -49t-27.5 -40t-40.5 -27t-49 -10t-49 10t-40 27t-27 40t-10 49t10 49t27 40t40 27t49 10zM424 299
q29 0 49.5 20.5t20.5 49.5t-20.5 49.5t-49.5 20.5t-49 -20.5t-20 -49.5t20 -49.5t49 -20.5z" />
    <glyph glyph-name="circlegowalla" unicode="circlegowalla" 
d="M277 139v-18.5t-2 -20.5q-1 -1 -3 -2t-7 -1q-16 0 -16 13q0 11 7.5 21t20.5 21v-13zM398 154q-7 -10 -22 -13h-7l1 2q5 11 13.5 15.5t13.5 4.5h2q2 -5 -1 -9zM425 717q87 0 163 -33t132.5 -89.5t89.5 -132.5t33 -163t-33 -163t-89.5 -133t-132.5 -90t-163 -33t-163 33
t-133 90t-90 133t-33 163t33 163t90 132.5t133 89.5t163 33zM679 79q5 11 7 26q-5 5 -9.5 8.5t-9.5 8.5q-5 4 -8.5 7t-7.5 7q0 6 -1 12l-2 12q-19 97 -84.5 151t-185.5 74v5q3 22 6.5 48t4 50t-3 45t-13.5 34q-11 15 -31 17h-4q-17 0 -34 -13t-28 -55q-10 8 -22 14t-26 6
q-19 0 -38 -12q-18 -10 -20 -33q0 -16 9.5 -34t24 -35.5t32 -33.5t32.5 -28q-12 -8 -28 -21.5t-32 -29t-28 -33t-15 -34.5q-5 -26 10 -45q15 -17 39 -17q8 0 20 3t27.5 12.5t33.5 27.5t38 47q4 -14 2 -30t-19 -29l-11 -7q-33 -24 -56 -44.5t-23 -49.5q0 -17 11 -27.5
t29 -10.5q11 0 21.5 4.5t13.5 14.5q5 15 5 32q7 -2 15.5 -3t17.5 -3q-4 -22 -4 -49.5t7 -53.5h25q-8 23 -8 51.5t4 50.5q8 -1 18 1q27 5 39 24q8 14 3 30q-5 17 -25 17q-12 0 -26.5 -8.5t-22.5 -25.5q-2 -3 -3 -5.5t-3 -6.5q-9 1 -17.5 2.5t-15.5 3.5q-8 2 -15 3l-15 3
q8 7 18 14t21 15l11 8q16 12 23 27.5t7 31t-4 30t-9 23.5l-9 19l-12 -18q-21 -35 -39.5 -54.5t-33 -29.5t-25 -12.5t-14.5 -2.5q-13 0 -20 9q-7 7 -5 23q3 15 16 31.5t30 32.5t34 28.5t27 19.5l16 11l-16 10q-17 12 -35 28t-32.5 33t-24 32.5t-9.5 26.5q0 9 7 13
q20 12 35.5 6.5t33.5 -22.5q-2 -15 -2.5 -26t-0.5 -15q0 -19 10 -36t30 -17q6 0 14 3q11 5 14.5 11t4.5 11q6 27 -33 66l-11 11q2 10 5 21.5t8.5 21.5t12.5 16t17 5q10 -2 14 -8q7 -10 9.5 -28.5t1.5 -41t-4 -46t-6 -41.5l-4 -30l12 -2q119 -17 181.5 -66.5t80.5 -140.5
q-4 2 -7 3l-6 2q-16 5 -35.5 8.5t-39.5 3.5q-66 0 -89 -47q-13 -26 -16.5 -56t3.5 -55h25q-7 21 -4.5 48.5t14.5 51.5q15 33 67 33q18 0 36.5 -3.5t32.5 -7.5q10 -3 22 -13q-1 -29 -13.5 -47t-27.5 -28t-27.5 -13.5t-13.5 -3.5l-26 -5l14 -12h41q23 9 46 30.5t29 59.5
q1 0 1 -0.5t1 -0.5q7 -6 13.5 -12.5t14.5 -11.5zM292 464q16 -17 20.5 -27.5t3.5 -13.5q0 -2 -4 -4q-2 0 -3 -0.5t-2 -0.5q-7 0 -11 9t-4 19v18z" />
    <glyph glyph-name="circleheart" unicode="circleheart" 
d="M424 718q87 0 163 -33t133 -89.5t90 -132.5t33 -163t-33 -163t-90 -133t-133 -90t-163 -33t-163 33t-132.5 90t-89.5 133t-33 163t33 163t89.5 132.5t132.5 89.5t163 33zM431 91q16 0 41 15t53.5 40.5t55.5 58.5t46.5 68.5t28 71.5t-0.5 68q-16 51 -49.5 73t-70.5 23
q-30 0 -50.5 -12.5t-33 -27.5t-19 -27.5t-8.5 -12.5t-8 12.5t-18 27.5t-32.5 27.5t-50.5 12.5q-37 0 -71.5 -22t-50.5 -74q-9 -32 0.5 -68t30.5 -71.5t50.5 -68.5t59 -58.5t55.5 -40.5t42 -15z" />
    <glyph glyph-name="circlehyves" unicode="circlehyves" 
d="M424 718q87 0 163 -33t133 -89.5t90 -132.5t33 -163t-33 -163t-90 -133t-133 -90t-163 -33t-163 33t-132.5 90t-89.5 133t-33 163t33 163t89.5 132.5t132.5 89.5t163 33zM617 123q4 6 3.5 12.5t-3.5 12.5t-7.5 10t-8.5 6t-11.5 1t-10.5 2q-2 2 -2 15v21v194
q0 19 -0.5 41.5t6.5 31.5q2 2 7 4t10.5 4.5t10 5t5.5 5.5q2 5 0 13t-5.5 15.5t-9 12.5t-9.5 5h-33q-20 -4 -39 -7t-36 -11q-5 -2 -10 -5.5t-6 -7.5q-5 -16 5 -26.5t21 -15.5q3 -2 11 -2.5t11 -3.5q4 -4 3 -16t-2 -20q-2 -20 -2.5 -37t2.5 -39q1 -7 2.5 -18.5t-4.5 -16.5
q-2 -2 -7.5 -2.5t-12 -1l-13 -1t-10.5 -1.5q-32 -3 -54 -7.5t-50 -10.5q-4 -1 -10.5 -2.5t-10.5 0.5q-3 1 -4.5 10.5t-1.5 13.5q-2 29 0 51t2 50v18t2 12t7.5 5t12 3.5t12 3.5t8.5 6q2 5 2 12t-2 12q-5 12 -14 17.5t-21 6.5t-26.5 -1t-29.5 -5q-22 -4 -40 -9.5t-26 -19.5v-9
q5 -11 10.5 -17t14.5 -11q5 -2 12.5 -2.5t9.5 -3.5t2 -15.5v-21.5q0 -33 1.5 -59t1.5 -58q1 -27 2 -57t4 -56q1 -9 2 -20.5t-2 -15.5q-2 -2 -5.5 -2.5t-6.5 -1.5q-8 -2 -16.5 -7t-9.5 -13q-2 -9 8 -20t20 -13q6 -2 10.5 -2t13.5 1q11 1 26.5 3t29.5 6t24.5 10.5t12.5 15.5
q1 11 -7 20t-15 12q-3 1 -12 0t-12 4q-2 4 -1.5 11.5t0.5 12.5q-2 11 -3.5 29.5t3.5 25.5t17 10t19 5q23 8 40.5 10.5l45.5 6.5q3 0 10 1t15 1.5t14.5 0t8.5 -2.5q1 -2 1 -9.5v-12.5q0 -8 -0.5 -13.5t0.5 -11.5q0 -11 2 -25.5t-3 -19.5q-4 -3 -11.5 -3t-12.5 -2
q-14 -7 -15 -15q-2 -12 12 -25t26 -14q20 -2 43 4t37 13q6 2 13 4.5t9 5.5z" />
    <glyph glyph-name="circleicondock" unicode="circleicondock" 
d="M424 500q23 0 39.5 -16t16.5 -38q0 -23 -16.5 -38.5t-39.5 -15.5t-39 15.5t-16 38.5q0 22 16 38t39 16zM424 718q87 0 163 -33t133 -89.5t90 -132.5t33 -163t-33 -163t-90 -133t-133 -90t-163 -33t-163 33t-132.5 90t-89.5 133t-33 163t33 163t89.5 132.5t132.5 89.5
t163 33zM659 301q2 13 -6 21q-7 8 -20 8h-4l-77 -7q-16 -2 -19 -10q-1 -2 -0.5 -5t5.5 -7q13 -14 27 -18l7 -3l-4 -6q-3 -5 -14 -13l-61 -52q-3 -2 -6.5 -4.5t-7.5 -2.5q-11 0 -11 17v149l3 1q21 13 33 33t12 44q0 18 -7 34.5t-19.5 28.5t-29.5 19t-36 7t-35.5 -7t-29 -19
t-20 -28.5t-7.5 -34.5q0 -25 13.5 -46t36.5 -32l3 -2v-150q0 -17 -11 -17q-8 0 -14 6l-66 56q-10 9 -13 13l-5 6l8 3q13 4 27 18q7 7 4 12q-2 8 -18 10l-78 7h-3q-13 0 -20 -8q-9 -9 -7 -21l8 -75q3 -18 13 -18q2 0 4.5 0.5t5.5 4.5q7 6 12 13.5t7 12.5l2 7l7 -4
q2 -2 5.5 -5t8.5 -8l140 -154q9 -11 22 -11q14 0 23 11l140 154q7 9 14 13l6 4l3 -7q2 -5 7 -12.5t11 -13.5q4 -4 6.5 -4.5t4.5 -0.5q4 0 7.5 4t4.5 14z" />
    <glyph glyph-name="circleicq" unicode="circleicq" 
d="M356 265q-8 -6 -13.5 -12t-11.5 -11l-21 -17l-5 -3q-18 -9 -35 -7q-16 2 -22 10l-2 7l1 6q7 17 28 27q13 7 20 8l55 10l4 -13zM248 311q-17 3 -26 18q-7 13 -1 29q8 20 26 28q19 10 38 6l19 -8l59 -42q-9 -12 -11 -20l-97 -12zM383 239q5 -2 10 -4.5t11 -2.5
q1 -17 3.5 -35t2.5 -38v-26v-7q-8 -20 -25 -27q-18 -10 -37 -5q-20 6 -30 22q-2 5 -4 11t-2 12l4 15q1 10 10 19zM329 434q-4 9 -6.5 17.5t-0.5 17.5q1 18 13 25q6 5 16 0q18 -5 30 -28q3 -5 5 -10t3 -11l14 -79l-10 -3l-60 64zM484 332l68 56l8 3q20 8 36 5q18 -1 24 -14
l3 -9l-2 -7q-6 -17 -31 -28q-10 -4 -23 -6l-83 -10l-1 5l-2 2zM437 438v27v6q6 19 25 30q19 10 39 3q21 -5 30 -22q6 -9 6 -23l-2 -14q-4 -11 -10 -20l-61 -73q-10 7 -20 11zM464 297q0 -20 -13 -32q-15 -13 -31 -13q-19 0 -32 13q-13 12 -13 32q0 18 13 31q14 12 32 12
q19 0 31 -12q13 -13 13 -31zM596 288q8 -2 14.5 -6.5t10.5 -12.5q10 -11 10 -29l-2 -13q-5 -20 -23 -29q-19 -10 -37 -3q-7 2 -11 4.5t-8 6.5l-71 58l5 9l2 8l77 7l27 1zM424 718q87 0 163 -33t133 -89.5t90 -132.5t33 -163t-33 -163t-90 -133t-133 -90t-163 -33t-163 33
t-132.5 90t-89.5 133t-33 163t33 163t89.5 132.5t132.5 89.5t163 33zM656 219q9 31 -6 58l-3 5q-4 6 -8.5 11.5t-10.5 9.5q-5 4 -11 6.5t-11 5.5q16 8 27 17.5t16 23.5q4 11 1 20.5t-3 18.5v1q-15 11 -19.5 17t-17.5 10q-8 2 -16 2t-16 -1l-23 -5l8 17q9 33 -7 61l-2 3
q-14 24 -46 32q-31 9 -59 -6q-14 -8 -26.5 -19.5t-12.5 -26.5v-1v-4l-3 4l-7 12q-16 25 -41 31q-20 5 -40 -4q-20 -13 -26 -41q-5 -30 11 -56l4 -7l-16 5q-29 7 -58 -8q-28 -13 -40 -43q-11 -29 3 -53q3 -5 7 -9.5t8 -7.5q12 -12 31 -15l4 -1l-10 -9q-14 -12 -18 -27
q-5 -19 5 -36q4 -7 12 -13q4 -3 9 -5.5t11 -2.5q23 -6 48 1l-13 -19l-3 -9q-10 -30 5 -59l8 -10l8 -10q12 -11 30 -15q32 -9 61 5q28 15 37 46v4q20 -22 39 -27q22 -6 39 5q18 10 24 32q4 21 0 46q10 -7 21 -10q33 -10 60 4q27 15 36 46zM505 184q5 -8 7.5 -16.5t0.5 -18.5
q-2 -18 -13 -24q-6 -4 -16 -2q-19 4 -30 29l-8 22l-11 58l12 4l9 4l28 -28l18 -22z" />
    <glyph glyph-name="circleidentica" unicode="circleidentica" 
d="M468 311q-12 -10 -18 -20q-14 -11 -30 -18t-35 -7q-24 0 -46 11l-71 -29l22 85q-7 19 -7 37q0 22 8 41t22 33t32.5 22t39.5 8t39.5 -8t32 -22t21.5 -33t8 -41q0 -17 -5 -31.5t-13 -27.5zM424 718q87 0 163 -33t133 -89.5t90 -132.5t33 -163t-33 -163t-90 -133t-133 -90
t-163 -33t-163 33t-132.5 90t-89.5 133t-33 163t33 163t89.5 132.5t132.5 89.5t163 33zM579 141q24 13 39 37.5t15 53.5q0 22 -8 41t-21.5 33t-31.5 22t-39 8q-2 0 -2.5 -0.5t-1.5 -0.5q4 16 4 38q0 32 -12 60.5t-32 49.5t-48 33t-59 12t-58.5 -12t-48 -33t-32.5 -49.5
t-12 -60.5q0 -31 13 -62l-29 -115l107 35q31 -13 60 -13q27 0 51 9q2 -35 24 -61.5t54 -33.5l46 -60zM533 288q22 0 37 -15.5t15 -38.5q0 -16 -7.5 -28t-19.5 -19l-15 -40l-20 34q-18 4 -30.5 18.5t-12.5 34.5q0 15 9 29q3 3 5.5 6t5.5 7q15 12 33 12z" />
    <glyph glyph-name="circleimessage" unicode="circleimessage" 
d="M424 716q87 0 163 -33t133 -89.5t90 -132.5t33 -163t-33 -163t-90 -133t-133 -90t-163 -33t-163 33t-132.5 90t-89.5 133t-33 163t33 163t89.5 132.5t132.5 89.5t163 33zM424 99q49 0 92 16t75 43.5t50.5 65t18.5 79.5t-18.5 79.5t-50.5 65t-75 43.5t-92 16t-91.5 -16
t-74.5 -43.5t-50.5 -65t-18.5 -79.5q0 -51 26 -94t71 -72q-3 -18 -18.5 -30.5t-35.5 -14.5q16 -3 34 -3q46 0 79 22q37 -12 79 -12z" />
    <glyph glyph-name="circleitunes" unicode="circleitunes" 
d="M424 719q87 0 163 -33t133 -89.5t90 -132.5t33 -163t-33 -163t-90 -133t-133 -90t-163 -33t-163 33t-132.5 90t-89.5 133t-33 163t33 163t89.5 132.5t132.5 89.5t163 33zM424 39q54 0 102 20.5t83.5 56t56 83.5t20.5 102t-20.5 101.5t-56 83t-83.5 56t-102 20.5
t-101.5 -20.5t-83 -56t-56 -83t-20.5 -101.5t20.5 -102t56 -83.5t83 -56t101.5 -20.5zM424 536q49 0 92 -18.5t75 -50.5t50.5 -74.5t18.5 -91.5t-18.5 -92t-50.5 -75t-75 -50.5t-92 -18.5t-91.5 18.5t-74.5 50.5t-50.5 75t-18.5 92t18.5 91.5t50.5 74.5t74.5 50.5t91.5 18.5
zM345 421h1v-180q0 2 -8.5 2.5t-14.5 -0.5q-19 -2 -31.5 -17.5t-10.5 -34.5q1 -20 15 -32t33 -10q18 2 30.5 15.5t11.5 31.5h1v165l131 30v-125q0 2 -8.5 2.5t-14.5 -0.5q-19 -2 -31.5 -17t-10.5 -35q2 -19 16 -31t33 -10q18 2 30 15.5t12 31.5v236z" />
    <glyph glyph-name="circlelastfm" unicode="circlelastfm" 
d="M424 717q87 0 163 -33t133 -89.5t90 -132.5t33 -163t-33 -163t-90 -133t-133 -90t-163 -33t-163 33t-132.5 90t-89.5 133t-33 163t33 163t89.5 132.5t132.5 89.5t163 33zM566 160q40 0 67 23.5t27 58.5q0 34 -17.5 51t-54.5 28q-27 9 -44.5 16.5t-17.5 29.5q0 15 10.5 25
t27.5 10q23 0 40 -22l30 15q-23 41 -68 41q-35 0 -55.5 -19.5t-20.5 -51.5t20.5 -48.5t62.5 -30.5q23 -8 36 -15.5t13 -27.5t-16.5 -33.5t-42.5 -12.5t-37.5 14t-20.5 35l-16 36t-14.5 33t-10.5 25.5t-5 12.5q-18 42 -51.5 64t-78.5 22q-29 0 -54.5 -11t-44.5 -30t-30 -44.5
t-11 -54.5t11 -54.5t30 -44.5t44.5 -30t54.5 -11q33 0 61 14t48 37l-18 42q-14 -25 -38 -40t-53 -15q-21 0 -39.5 8t-32.5 22t-22 32.5t-8 39.5t8 39.5t22 32.5t32.5 22t39.5 8q32 0 57 -17t36 -44l45 -102l5 -11q14 -32 35.5 -49.5t58.5 -17.5z" />
    <glyph glyph-name="circlelinkedin" unicode="circlelinkedin" 
d="M424 716q87 0 163 -33t133 -89.5t90 -132.5t33 -163t-33 -163t-90 -133t-133 -90t-163 -33t-163 33t-132.5 90t-89.5 133t-33 163t33 163t89.5 132.5t132.5 89.5t163 33zM294 402h-105v-340h105v340zM241 429q22 0 37.5 15t15.5 37t-15.5 37t-37.5 15t-37 -15t-15 -37
t15 -37t37 -15zM660 259q0 36 -20 70.5t-52 52.5q-29 16 -67.5 17t-70.5 -13v16h-104v-340h104v208l44 21q8 4 21.5 4t21.5 -5q6 -3 12 -13t6 -18v-197h105v197z" />
    <glyph glyph-name="circlemeetup" unicode="circlemeetup" 
d="M388 275q-5 0 -7 3q1 8 3 13.5t4 11.5q2 4 4 10l2 4l1 -4q2 -8 1.5 -19t-4.5 -19h-4zM704 291q-5 -14 -15.5 -25t-24.5 -15q5 23 11.5 47t23.5 39l1 2l1 -2q7 -13 6.5 -25.5t-3.5 -20.5zM311 282q-1 1 -4 1h-3v2q3 16 12 28q2 -8 2.5 -16t-0.5 -14l-2 -1h-1h-4zM424 718
q87 0 163 -33t133 -89.5t90 -132.5t33 -163t-33 -163t-90 -133t-133 -90t-163 -33t-163 33t-132.5 90t-89.5 133t-33 163t33 163t89.5 132.5t132.5 89.5t163 33zM271 233q-5 16 -9 33.5t-7 34.5l-10 44t-13 40h-4q-6 0 -10 1q-2 0 -4.5 0.5t-4.5 0.5h-1h-3
q-12 -17 -18 -41.5t-11 -48.5q-4 6 -6.5 12t-5.5 12q-5 10 -10.5 20.5t-11.5 18.5h-6q-14 0 -25 -4v-21q-1 -27 0 -51t7 -46q2 -1 5 -1q8 0 15 3t10 5q0 7 -0.5 12.5t-1.5 11.5q0 3 -0.5 6t1.5 7q10 -13 17 -26q2 -5 5 -9t5 -8h5q3 0 6 0.5t5 0.5q4 1 12 1l3 -1
q4 9 4.5 20.5t0.5 23.5q0 11 1 22t6 19q5 -25 12 -48.5t17 -48.5q3 0 6.5 1t7.5 2q3 2 8 2h3zM319 218q10 0 20 2.5t18 5.5q-3 6 -10 6q-5 0 -13 -2q-6 -3 -12 -3q-2 0 -3 1q-8 0 -11 7q-8 13 -2 35q5 -1 11.5 -2t14.5 -1h2h7q4 15 2.5 34t-4.5 31q-4 0 -8 2q-8 3 -15 3h-3
q-15 -2 -24 -19t-11 -36q-2 -18 2.5 -36.5t21.5 -25.5q4 -1 8 -1.5t9 -0.5zM404 221q19 0 29 10q-2 6 -10 8q-6 -11 -19 -11t-22 12q-8 11 -2 25l10 -2t10 -1q6 0 14 2q-1 11 -0.5 20t2.5 18q2 7 2.5 14.5t1.5 16.5q-14 11 -28 12q-39 -30 -36 -94q2 -14 17 -22t31 -8z
M499 285q7 1 13 1.5t9 3.5q-5 3 -9 9l-7.5 7.5t-9.5 5.5q-2 0 -2 -5q-1 -2 -1.5 -4.5t-3.5 -2.5h-3v1q1 10 0.5 21.5t-1.5 24.5q-1 18 -1.5 36t2.5 33q-4 5 -10.5 9.5t-17.5 4.5q-3 0 -3 1q-6 -19 -4.5 -41t3.5 -44q2 -13 3 -25t-1 -23q-6 0 -9 1h-7q-6 0 -9 -3q-2 -2 -2 -9
q5 -3 11.5 -4t14.5 -1l7 -1q0 -8 0.5 -14t0.5 -13q1 -9 1.5 -18.5t0.5 -20.5h7q5 1 14 1q0 8 -0.5 15t-0.5 14q0 10 -0.5 19t0.5 19q5 2 15 2zM601 255q6 10 10 20.5t2 27.5q-5 4 -10.5 8t-11.5 4h-2h-2l-1 -7q0 -10 -0.5 -21t-3 -21t-7.5 -17.5t-14 -10.5q-2 11 -2.5 23.5
t-1.5 24.5v20q-2 1 -3.5 2t-3.5 2q-5 3 -9 5t-12 3q-5 -67 13 -87q7 -8 20 -8q8 0 17 3l3 4q6 10 13 16zM730 277q6 12 8 30t-8 40q-10 7 -19 9.5t-17 2.5q-19 0 -34 -18q-8 -9 -12.5 -22t-7.5 -26.5t-4.5 -26.5t-2.5 -22q-1 -1 -3 -1q-7 -2 -8 -4q8 -9 10 -23.5t4 -28.5
q2 -12 3 -23t5 -19q2 -1 10 -1h7q7 0 10 -1q-5 14 -7.5 33t-0.5 46q22 5 40 20t27 35z" />
    <glyph glyph-name="circlemetacafe" unicode="circlemetacafe" 
d="M424 718q87 0 163 -33t133 -89.5t90 -132.5t33 -163t-33 -163t-90 -133t-133 -90t-163 -33t-163 33t-132.5 90t-89.5 133t-33 163t33 163t89.5 132.5t132.5 89.5t163 33zM465 82q6 20 12 38.5t8 24.5q-5 4 -22 16t-34 26q-21 16 -45 34h125q2 0 8.5 18t13.5 40
q8 26 17 59q9 -33 17 -59q7 -22 13.5 -40t8.5 -18h66l-105 314l-85 -255h-274zM591 150l69 52h-86l-26 80l-27 -80h-85l69 -52l-26 -86l69 54l69 -54z" />
    <glyph glyph-name="circlemixx" unicode="circlemixx" 
d="M424 719q87 0 163 -33t133 -89.5t90 -132.5t33 -163t-33 -163t-90 -133t-133 -90t-163 -33t-163 33t-132.5 90t-89.5 133t-33 163t33 163t89.5 132.5t132.5 89.5t163 33zM527 320q-14 -29 -40 -54.5t-63 -39.5q-32 -13 -63 -15t-58 6q18 -11 38.5 -17t43.5 -6q29 0 55 10
t45 27t30.5 40t11.5 49zM297 544q-6 -14 -2 -27l94 -227q5 -15 11.5 -23t8.5 -8l7 3q2 1 3.5 9t-2.5 25l-57 240q-3 11 -12 18.5t-20 7.5q-7 0 -11 -1q-14 -5 -20 -17zM430 146q-57 -8 -107.5 6t-87.5 46q29 -36 73.5 -57t97.5 -21q38 0 72 11.5t62 32t47.5 48t28.5 60.5
q-25 -48 -73.5 -82.5t-112.5 -43.5zM419 39q55 0 103.5 22t85 59.5t57.5 88t21 107.5q0 31 -8 63q1 -5 1 -11v-11q0 -59 -21.5 -110.5t-58 -89.5t-86 -60.5t-105.5 -22.5q-41 0 -78 12t-69 33.5t-57 51.5t-41 66q12 -43 36.5 -79t58.5 -62.5t75 -41.5t86 -15z" />
    <glyph glyph-name="circlemobileme" unicode="circlemobileme" 
d="M424 718q87 0 163 -33t133 -89.5t90 -132.5t33 -163t-33 -163t-90 -133t-133 -90t-163 -33t-163 33t-132.5 90t-89.5 133t-33 163t33 163t89.5 132.5t132.5 89.5t163 33zM599 143q18 0 34 9.5t27.5 24.5t18.5 32.5t7 32.5q0 31 -20 46t-42 22q4 12 4 29q0 24 -9.5 45.5
t-26.5 37.5t-39.5 25.5t-48.5 9.5q-42 0 -74.5 -23.5t-44.5 -59.5q-21 26 -53 26q-31 0 -52 -24t-21 -58v-5q-5 1 -13 1q-12 0 -26.5 -4t-27 -13t-21 -22.5t-8.5 -32.5q0 -18 7 -36t18.5 -32t27.5 -22.5t34 -8.5h349z" />
    <glyph glyph-name="circlemrwong" unicode="circlemrwong" 
d="M424 718q87 0 163 -33t133 -89.5t90 -132.5t33 -163t-33 -163t-90 -133t-133 -90t-163 -33t-163 33t-132.5 90t-89.5 133t-33 163t33 163t89.5 132.5t132.5 89.5t163 33zM201 236q-8 -11 -11 -19q-2 -7 1.5 -11.5t20.5 -0.5t36.5 11t38 16t34 19.5t24.5 21.5q9 10 6.5 14
t-10 3t-18 -4t-17.5 -6q-8 -3 -25 -10t-35 -15q-21 -9 -45 -19zM566 104q2 30 -1 48.5t-9 29.5t-14.5 16.5t-15.5 10.5q-9 5 -29.5 7t-43.5 3q0 20 -0.5 37t-1.5 27q5 1 10 1.5t9 2.5q22 6 31.5 24.5t10.5 38.5q1 5 1 15.5v24.5q17 1 30 1h18q6 0 14 0.5t15.5 2t12.5 4
t5 7.5q-1 10 -10 12t-23 4q-5 0 -22 0.5t-40 0.5q0 15 -1 30.5t-1.5 29t-2 23.5t-3.5 14q-8 14 -17 7t-9 -17q0 -5 0.5 -31.5t0.5 -55.5h-89h-7q1 20 2 38t2 29q2 26 -4.5 35t-14.5 11t-11.5 -7t-5.5 -20q-2 -5 -2 -30t1 -55q-23 0 -47.5 0.5t-38.5 -1.5q-6 0 -10 -5
t-5.5 -11t-0.5 -11.5t5 -6.5t14.5 -1h24.5t29.5 1t30.5 1q2 -18 3.5 -34.5t4.5 -28.5q5 -22 23 -31.5t38 -11.5v-64h-33q-32 -1 -52 -16.5t-25 -31.5q-3 -8 -4.5 -20t-2.5 -24q-1 -14 -1 -29q0 -17 4.5 -25t10.5 -8t10.5 8t3.5 24q-3 42 10.5 63t25.5 23q6 1 20.5 1h32.5
q1 -33 1 -61t-1 -36q0 -9 4.5 -13t10.5 -3t11 7.5t5 19.5v85q15 0 27.5 -0.5t19.5 -0.5q17 -1 26 -19t10 -61q0 -19 4.5 -28t9.5 -8.5t9.5 10.5t6.5 28zM622 226q6 -1 13 -3t12.5 -2.5t9 1.5t3.5 9q-1 7 -9.5 13.5t-21 12.5t-28 12t-29.5 12q-28 12 -40 12t-16 -11
q-2 -7 0.5 -11.5t7.5 -7.5t11 -4.5l10 -2.5t14.5 -5.5t22.5 -10t23 -9.5t17 -5zM479 345q0 -10 -9 -16.5t-21 -9t-25.5 -1.5t-22.5 7q-9 5 -12.5 23t-4.5 41q16 0 42.5 0.5t53.5 0.5q0 -15 -0.5 -27t-0.5 -18z" />
    <glyph glyph-name="circlemsn" unicode="circlemsn" 
d="M424 718q87 0 163 -33t133 -89.5t90 -132.5t33 -163t-33 -163t-90 -133t-133 -90t-163 -33t-163 33t-132.5 90t-89.5 133t-33 163t33 163t89.5 132.5t132.5 89.5t163 33zM251 273q16 -22 32 -38.5t31 -27.5q-3 21 0 43t17 42q15 23 30 32t27 11v3q-18 20 -38 34.5
t-42 28.5q-17 11 -37.5 21.5t-40 19t-37 14t-29.5 5.5q-10 0 -10 -2q-1 -2 -1.5 -11t8 -30t29 -56t61.5 -89zM342 285q-14 -21 -16 -44t3 -45q19 -13 34.5 -18t26.5 -5q9 0 12 2q10 3 18 12t13 19q-5 9 -9 18t-9 20q-18 43 -24 78q-11 -2 -23.5 -9.5t-25.5 -27.5zM459 52
q3 2 6 11t5 22t3.5 27t0.5 25q-1 2 -1 8q-15 13 -33 48q-6 -10 -14 -18t-19 -13q-5 -2 -17 -2q-25 0 -56 17q9 -26 22 -42q7 -9 18.5 -23t25 -27.5t28 -23.5t27.5 -10q2 0 4 1zM421 247q20 -48 36.5 -72.5t25.5 -29.5v8q-1 16 -6 46t-21 67q-14 32 -24.5 53t-18.5 34
q-7 11 -11.5 15.5t-6.5 5.5q0 -1 -0.5 -1.5t-0.5 -2.5q-1 -2 -1 -6v-1q-1 -4 -0.5 -9.5t1.5 -12.5q2 -17 8.5 -41t18.5 -53zM431 334q8 -14 15.5 -30t15.5 -36q5 -11 8 -20.5t6 -19.5q4 -3 24.5 -12.5t59.5 -9.5h14t15 1q26 4 44.5 22.5t31.5 46.5l-2 6t-2 5q-6 14 -21 26
t-35 21t-43.5 14.5t-47.5 5.5q-46 0 -83 -20zM622 104q10 12 20 29t17.5 37.5t10.5 42.5t0 43q-14 -25 -33.5 -41.5t-45.5 -20.5q-8 -1 -16 -1.5t-15 -0.5q-29 0 -48.5 6t-30.5 12q8 -37 8 -55q16 -24 33 -36q24 -17 40 -26.5t27 -9.5q5 0 12.5 3.5t20.5 17.5zM696 415
q2 37 -6 68.5t-24 48.5q-15 16 -37 16q-5 0 -15 -2q-23 -5 -52.5 -24.5t-58 -46.5t-51 -59.5t-31.5 -63.5q1 -2 2 -3t2 -3q40 21 89 21q26 0 51 -5.5t46.5 -15.5t37.5 -23.5t23 -29.5q11 28 16.5 59.5t7.5 62.5z" />
    <glyph glyph-name="circlemyspace" unicode="circlemyspace" 
d="M424 718q87 0 163 -33t133 -89.5t90 -132.5t33 -163t-33 -163t-90 -133t-133 -90t-163 -33t-163 33t-132.5 90t-89.5 133t-33 163t33 163t89.5 132.5t132.5 89.5t163 33zM506 535q-29 0 -50 -20.5t-21 -49.5t21 -50t50 -21t49.5 21t20.5 50t-20.5 49.5t-49.5 20.5z
M369 519q-23 0 -38.5 -16t-15.5 -38q0 -23 15.5 -39t38.5 -16t38.5 16t15.5 39q0 22 -15.5 38t-38.5 16zM265 506q-17 0 -29 -12t-12 -29t12 -29.5t29 -12.5t29 12.5t12 29.5t-12 29t-29 12zM607 271q0 20 -8 37.5t-21.5 30.5t-31.5 20.5t-38 7.5t-37.5 -7.5t-30.5 -20.5
q-7 23 -26 38t-44 15q-17 0 -31.5 -7t-24.5 -18q-4 16 -17.5 26.5t-31.5 10.5q-20 0 -35 -14.5t-15 -35.5v-80h79v-79h104v-104h209v180z" />
    <glyph glyph-name="circlenewsvine" unicode="circlenewsvine" 
d="M424 719q87 0 163 -33t133 -89.5t90 -132.5t33 -163t-33 -163t-90 -133t-133 -90t-163 -33t-163 33t-132.5 90t-89.5 133t-33 163t33 163t89.5 132.5t132.5 89.5t163 33zM450 264v103l62 45q10 -5 19 -5q15 0 25.5 11t10.5 26t-11 26t-26 11t-26 -11t-11 -26q0 -1 2 -5
l-45 -33v156h-52v-82l-45 33q2 4 2 7q0 15 -11 26t-26 11q-16 0 -26.5 -11t-10.5 -26q0 -16 11 -26.5t26 -10.5q9 0 17 4l63 -46v-103l-45 33q2 4 2 6q0 15 -11 26t-26 11q-16 0 -26.5 -11t-10.5 -26t11 -26t26 -11q9 0 17 5l63 -47v-109l-44 33q0 2 0.5 3t0.5 3
q0 15 -11 26t-26 11q-16 0 -26.5 -11t-10.5 -26q0 -16 11 -26.5t26 -10.5q9 0 17 5l63 -47v-110h52v37l62 45q7 -6 19 -6q15 0 25.5 11t10.5 26q0 16 -11 26.5t-26 10.5t-26 -10.5t-11 -26.5q0 -2 2 -4l-45 -33v110l62 45q7 -6 19 -6q15 0 25.5 11t10.5 26q0 16 -11 26.5
t-26 10.5t-26 -10.5t-11 -26.5q0 -2 2 -4z" />
    <glyph glyph-name="circlepaypal" unicode="circlepaypal" 
d="M492 411q-9 -20 -28 -34.5t-40 -14.5h-2l10 49h60zM401 362h-37l28 124h61q22 0 34.5 -16t9.5 -38q-10 4 -18 4h-62zM424 718q87 0 163 -33t133 -89.5t90 -132.5t33 -163t-33 -163t-90 -133t-133 -90t-163 -33t-163 33t-132.5 90t-89.5 133t-33 163t33 163t89.5 132.5
t132.5 89.5t163 33zM189 139h126l31 124h91q32 0 61 10.5t52.5 29.5t40 46t24.5 60q8 37 0 65.5t-25.5 47.5t-41.5 28.5t-48 9.5h-216zM656 352q8 35 1 60t-22 43q8 -16 9.5 -35t-3.5 -44q-8 -33 -24.5 -61.5t-40 -49.5t-52.5 -32.5t-62 -11.5h-90l-31 -132h-106l-5 -25h126
l31 133h90q33 0 62 11.5t52.5 32.5t40 49.5t24.5 61.5z" />
    <glyph glyph-name="circlephotobucket" unicode="circlephotobucket" 
d="M633 432h27v-262h-27h-52h-7h-12h-7h-3q26 25 40.5 59t14.5 72t-14.5 71.5t-40.5 59.5h10h71zM297 432q-26 -26 -41 -59.5t-15 -71.5t15 -72t41 -59h-82h-26v262h26h52h27h3zM511 432q32 -22 51 -56t19 -75q0 -42 -19 -76t-51 -55q-5 -3 -9 -5.5t-9 -4.5q-1 -1 -1.5 -1
t-1.5 -1q-9 -4 -20 -7q-11 -4 -20 -5h-5q-5 -1 -10.5 -1.5t-10.5 -0.5t-10.5 0.5t-10.5 1.5h-5q-8 1 -19 5h-1q-5 2 -9.5 3.5t-9.5 3.5l-4 2q-5 2 -9 4.5t-8 5.5q-32 21 -51.5 55t-19.5 76q0 41 19.5 75t51.5 56q4 2 8 4.5t9 5.5q2 0 2.5 0.5t1.5 0.5q10 5 19 8h1q7 2 19 4
q2 1 5 1q5 1 10.5 1.5t10.5 0.5t10.5 -0.5t10.5 -1.5q4 0 5 -1q5 -1 10 -1.5t10 -2.5l10 -4l10 -4q1 0 1.5 -0.5t1.5 -0.5q5 -3 9 -5.5t9 -4.5zM555 301q0 27 -10.5 51t-28 41.5t-41.5 28t-51 10.5v-27q22 0 41 -8t33 -22t22.5 -33t8.5 -41h26zM424 719q87 0 163 -33
t133 -89.5t90 -132.5t33 -163t-33 -163t-90 -133t-133 -90t-163 -33t-163 33t-132.5 90t-89.5 133t-33 163t33 163t89.5 132.5t132.5 89.5t163 33zM686 432q0 11 -7.5 18.5t-18.5 7.5h-142q-20 12 -44 19t-50 7t-49.5 -7t-43.5 -19h-11h-26q0 11 -8 18.5t-19 7.5h-52
q-11 0 -18.5 -7.5t-7.5 -18.5q-11 0 -18.5 -7.5t-7.5 -18.5v-262q0 -11 7.5 -18.5t18.5 -7.5h142q41 -26 93 -26q53 0 94 26h37h26h79q11 0 18.5 7.5t7.5 18.5v262z" />
    <glyph glyph-name="circlepicasa" unicode="circlepicasa" 
d="M425 719q87 0 163 -33t132.5 -89.5t89.5 -132.5t33 -163t-33 -163t-89.5 -133t-132.5 -90t-163 -33t-163 33t-133 90t-90 133t-33 163t33 163t90 132.5t133 89.5t163 33zM422 562q-45 0 -90 -17q2 -2 17 -15t37 -32.5t47 -42t46.5 -42t35.5 -33.5t14 -16v175
q-20 11 -49 17t-58 6zM163 300q0 -35 10 -68q2 2 19.5 18t42.5 39t54.5 49.5t54.5 49.5t42 38.5t18 16.5q-2 1 -17 15t-33 30.5t-33 30t-16 14.5q-66 -34 -104 -96t-38 -137zM294 302q-29 -27 -53 -48q-20 -18 -37 -34t-18 -17q16 -39 42.5 -71.5t65.5 -55.5v226zM448 39
q69 7 125 43t86 114h-339v-135q38 -17 80 -22h48zM671 222q8 20 10.5 40t2.5 42q0 69 -34.5 126.5t-94.5 93.5v-302h116z" />
    <glyph glyph-name="circlepinterest" unicode="circlepinterest" 
d="M425 719q87 0 163 -33t132.5 -89.5t89.5 -132.5t33 -163t-33 -163t-89.5 -133t-132.5 -90t-163 -33t-163 33t-133 90t-90 133t-33 163t33 163t90 132.5t133 89.5t163 33zM557 211q18 15 30.5 36t20.5 46t11 50.5t0 49.5q-3 26 -16 50.5t-34 43.5t-48 32t-57 16
q-46 5 -88.5 -6t-75 -34.5t-52.5 -58.5t-20 -79q0 -42 15 -68t53 -40q13 12 13.5 22.5t-4.5 21t-12 22t-8 25.5q-4 37 14.5 70.5t49.5 54.5t71 25t80 -19q19 -11 30 -31.5t15.5 -46t2 -53t-12 -50.5t-25.5 -40t-38 -21q-14 -3 -28.5 0.5t-20.5 9.5q-16 15 -13 34t11 41
t14.5 45t-2.5 44q-8 18 -22.5 21.5t-28.5 -3.5t-25.5 -21t-14.5 -30q-2 -17 3 -33.5t5 -32.5q0 -18 -5 -38.5t-11.5 -42t-13 -42t-9.5 -38.5q-2 -14 -3.5 -38t2.5 -39l-1 -1h33q17 29 29 68t21 75q5 5 7.5 -2t7.5 -10q15 -12 36 -14.5t42 0.5t40.5 11t31.5 18z" />
    <glyph glyph-name="circlepodcast" unicode="circlepodcast" 
d="M425 718q87 0 163 -33t132.5 -89.5t89.5 -132.5t33 -163t-33 -163t-89.5 -133t-132.5 -90t-163 -33t-163 33t-133 90t-90 133t-33 163t33 163t90 132.5t133 89.5t163 33zM424 64q32 0 54.5 28t22.5 84q0 28 -6.5 43t-17 22t-24.5 8t-29 1t-29 -1t-24.5 -8t-17 -22
t-6.5 -43q0 -56 22.5 -84t54.5 -28zM372 308q0 -20 15 -34.5t37 -14.5t37 14.5t15 34.5t-15 34t-37 14t-37 -14t-15 -34zM589 281q0 2 0.5 4.5t0.5 4.5q0 32 -13 62t-35.5 53.5t-52.5 37.5t-64 14q-35 0 -65 -14t-53 -37.5t-36 -53.5t-13 -62q0 -2 0.5 -4.5t0.5 -4.5
q2 30 15.5 53t36 38.5t52 23.5t62.5 8t62 -8t51 -23.5t35.5 -38.5t15.5 -53zM685 290q0 51 -20.5 95.5t-56 77.5t-83 52.5t-101.5 19.5t-101.5 -19.5t-83 -52.5t-56 -77.5t-20.5 -95.5v-10q2 49 23 87t56.5 63.5t82 39t99.5 13.5t99.5 -13.5t81.5 -39t56.5 -63.5t23.5 -87
v10z" />
    <glyph glyph-name="circleposterous" unicode="circleposterous" 
d="M425 719q87 0 163 -33t132.5 -89.5t89.5 -132.5t33 -163t-33 -163t-89.5 -133t-132.5 -90t-163 -33t-163 33t-133 90t-90 133t-33 163t33 163t90 132.5t133 89.5t163 33zM457 173q31 0 61.5 12t54.5 36.5t39 62.5t15 90q0 42 -11.5 76.5t-32.5 59t-50 38.5t-64 14
q-90 0 -132 -71l-3 -2h-5l-4 65h-54q1 -27 2 -56t1 -64v-395h61v190l1 4h6l1 -2q17 -27 47 -42.5t67 -15.5zM447 515q52 0 84.5 -40.5t32.5 -104.5q0 -69 -32.5 -109.5t-86.5 -40.5q-38 0 -67.5 23t-39.5 61q-3 12 -3 29v66q0 12 4 28q10 39 40 63.5t68 24.5z" />
    <glyph glyph-name="circleqik" unicode="circleqik" 
d="M283 333q5 1 11.5 0t10.5 -4q7 -5 9 -14.5t0.5 -20t-6.5 -20t-11 -14.5t-17.5 -6t-20.5 5q-8 5 -10 14.5t0 20t6.5 19.5t10.5 14t17 6zM425 718q87 0 163 -33t132.5 -89.5t89.5 -132.5t33 -163t-33 -163t-89.5 -133t-132.5 -90t-163 -33t-163 33t-133 90t-90 133t-33 163
t33 163t90 132.5t133 89.5t163 33zM360 236q3 17 6 33t5 33q2 34 -15 52t-47 20q-33 2 -56 -7.5t-37 -25.5q-11 -12 -18 -26.5t-9 -34.5q-2 -31 19 -51.5t59 -16.5q5 1 9 2t8 3q6 2 10.5 6.5t9.5 7.5q-2 -9 -3.5 -20t-0.5 -20t6.5 -15.5t17.5 -6.5h1h25q3 18 5.5 34.5
t4.5 32.5zM453 319q2 9 3 18t-3 16q-5 10 -19 11t-31 1q-1 0 -1 -2q-3 -23 -7 -49.5t-8 -52.5q-2 -9 -2.5 -19t3.5 -16q5 -8 20 -9t30 0q4 23 7.5 49.5t7.5 52.5zM446 381q10 4 17 12.5t2 22.5q-3 10 -19 15h-11q-14 -5 -23.5 -12.5t-5.5 -23.5q3 -12 16 -15.5t24 1.5z
M587 299q4 5 14.5 15t22 20.5t22 20.5t14.5 15q-17 -2 -34 0t-28 -3q-5 -2 -9.5 -6t-8.5 -7q-8 -8 -15 -16t-15 -16q-4 -5 -7.5 -8.5l-7.5 -7.5q2 18 6.5 42t6.5 44q1 22 -14 26.5t-39 3.5q-1 0 -1 -2q-2 -15 -6.5 -42t-9 -54.5t-8 -50t-3.5 -27.5q-1 -11 3 -17t11.5 -9
t17.5 -3.5t21 -0.5q4 18 6 36.5t6 35.5q5 -7 10 -16l10 -18q5 -8 11 -17.5t12 -14.5q8 -6 18.5 -7t20.5 2t17 9t9 15q-12 3 -20 9t-13.5 14.5t-10 17.5t-9.5 17z" />
    <glyph glyph-name="circlequora" unicode="circlequora" 
d="M425 718q87 0 163 -33t132.5 -89.5t89.5 -132.5t33 -163t-33 -163t-89.5 -133t-132.5 -90t-163 -33t-163 33t-133 90t-90 133t-33 163t33 163t90 132.5t133 89.5t163 33zM589 111q-7 -2 -16 2q-8 3 -18.5 10.5t-21.5 22.5q44 29 71.5 75t29.5 102q1 44 -14 82.5
t-42.5 67.5t-65 45.5t-80.5 16.5q-44 0 -82.5 -16.5t-67.5 -45.5t-47 -67.5t-19 -82.5q-2 -44 13 -82.5t42.5 -67.5t65 -45.5t80.5 -16.5q31 0 60 9q9 -15 22 -31q14 -17 29.5 -21.5t29.5 -2.5q16 2 31 9v37zM434 483q22 0 41 -12.5t33 -33.5t21.5 -49.5t6.5 -60.5
q-1 -35 -11.5 -64.5t-27.5 -51.5q-15 22 -31.5 30t-30.5 9q-17 1 -33 -5v-37q7 2 13 1q5 -1 11.5 -4.5t12.5 -11.5q3 -4 5.5 -8t4.5 -9q-15 -5 -26 -5q-23 0 -42 12.5t-33 33.5t-21.5 49.5t-6.5 60.5t10.5 60.5t25 49.5t35.5 33.5t43 12.5z" />
    <glyph glyph-name="circlereddit" unicode="circlereddit" 
d="M561 434q-15 0 -26 11t-11 27q0 15 11 26t26 11t25.5 -11t10.5 -26q0 -16 -10.5 -27t-25.5 -11zM240 344q-35 -27 -50 -64q-15 13 -15 31q0 17 12.5 29t29.5 12q13 0 23 -8zM425 717q87 0 163 -33t132.5 -89.5t89.5 -132.5t33 -163t-33 -163t-89.5 -133t-132.5 -90
t-163 -33t-163 33t-133 90t-90 133t-33 163t33 163t90 132.5t133 89.5t163 33zM633 251q17 8 28 24t11 36q0 28 -19.5 47.5t-47.5 19.5q-14 0 -26.5 -6t-21.5 -15q-28 17 -62.5 27.5t-73.5 12.5l13 92l65 -15v-2q0 -27 18 -45.5t44 -18.5t43.5 18.5t17.5 45.5
q0 26 -17.5 44.5t-43.5 18.5q-20 0 -35 -11t-22 -28l-77 18q-4 1 -9 -2q-4 -2 -4 -7l-16 -108q-39 -1 -73.5 -11t-62.5 -27q-19 19 -45 19q-28 0 -47.5 -19.5t-19.5 -47.5q0 -18 9 -33t23 -24q-3 -11 -3 -23q0 -35 18 -65t49 -52.5t72.5 -35.5t88.5 -13t88.5 13t72.5 35.5
t49 52.5t18 65q0 5 -0.5 10t-1.5 10zM407 362q40 0 76 -10.5t62.5 -28t42 -41.5t15.5 -51t-15.5 -50.5t-42 -41.5t-62.5 -28t-76 -10q-41 0 -76.5 10t-62 28t-42 41.5t-15.5 50.5t15.5 51t42 41.5t62 28t76.5 10.5zM299 270q0 -12 8.5 -21t20.5 -9q13 0 21.5 9t8.5 21
q0 13 -8.5 22t-21.5 9q-12 0 -20.5 -9t-8.5 -22zM505 166q9 9 0 18t-18 0t-29 -15t-48 -6q-29 0 -48 6q-20 6 -29 15t-18 0t0 -18q14 -15 40 -22q26 -8 55 -8t55 8q25 7 40 22zM492 240q13 0 21.5 9t8.5 21q0 13 -8.5 22t-21.5 9q-12 0 -20.5 -9t-8.5 -22q0 -12 8.5 -21
t20.5 -9zM605 352q18 0 30 -12t12 -29q0 -24 -21 -35q-13 36 -48 65q11 11 27 11z" />
    <glyph glyph-name="circleretweet" unicode="circleretweet" 
d="M425 718q87 0 163 -33t132.5 -89.5t89.5 -132.5t33 -163t-33 -163t-89.5 -133t-132.5 -90t-163 -33t-163 33t-133 90t-90 133t-33 163t33 163t90 132.5t133 89.5t163 33zM503 143l-78 78h-79v105h79l-131 131l-131 -131h79v-157q0 -10 8 -18t18 -8h235zM686 274h-78v160
q0 11 -8 17t-19 6h-235l79 -79h78v-104h-78l130 -131z" />
    <glyph glyph-name="circlerss" unicode="circlerss" 
d="M425 719q87 0 163 -33t132.5 -89.5t89.5 -132.5t33 -163t-33 -163t-89.5 -133t-132.5 -90t-163 -33t-163 33t-133 90t-90 133t-33 163t33 163t90 132.5t133 89.5t163 33zM242 65q21 0 36.5 15.5t15.5 37.5q0 21 -15.5 36.5t-36.5 15.5q-22 0 -37.5 -15.5t-15.5 -36.5
q0 -22 15.5 -37.5t37.5 -15.5zM477 65q0 60 -22.5 112.5t-61.5 91.5t-91.5 61.5t-112.5 22.5v-96q40 0 75 -15t61 -41t41 -61t15 -75h96zM660 65q0 97 -37 183t-101 150t-150 101t-183 37v-98q77 0 145 -29.5t118.5 -80t80 -118.5t29.5 -145h98z" />
    <glyph glyph-name="circlescribd" unicode="circlescribd" 
d="M425 717q87 0 163 -33t132.5 -89.5t89.5 -132.5t33 -163t-33 -163t-89.5 -133t-132.5 -90t-163 -33t-163 33t-133 90t-90 133t-33 163t33 163t90 132.5t133 89.5t163 33zM485 89q3 3 6 6.5t6 7.5q-14 23 -14 51q0 25 9.5 45.5t26.5 34.5v3q-7 22 -24 43q-16 20 -40 37
q-23 16 -68 36q-23 10 -38 19t-25 17q-18 16 -18 38q0 24 21 41q21 15 55 15q24 0 42 -8q-5 -12 -5 -22q0 -23 15.5 -38.5t37.5 -15.5t37 15.5t15 38.5q0 24 -18 40q-24 27 -55 40q-39 17 -75 17q-56 0 -96 -36q-39 -36 -39 -86q0 -22 7 -40q4 -9 9 -18.5t13 -18.5
q16 -19 36 -32q11 -7 25 -14.5t34 -15.5q19 -8 33 -15t23 -14q16 -12 29 -31q12 -20 12 -39q0 -32 -23 -53t-56 -21q-47 0 -79 37q16 16 16 39t-15 38.5t-37 15.5t-37.5 -15.5t-15.5 -38.5q0 -8 3 -14l-2 -1q24 -63 68 -97q44 -32 101 -32t100 41zM573 92q26 0 43.5 18
t17.5 44t-17.5 44.5t-43.5 18.5q-25 0 -42.5 -18.5t-17.5 -44.5t17.5 -44t42.5 -18z" />
    <glyph glyph-name="circlesharethis" unicode="circlesharethis" 
d="M425 717q87 0 163 -33t132.5 -89.5t89.5 -132.5t33 -163t-33 -163t-89.5 -133t-132.5 -90t-163 -33t-163 33t-133 90t-90 133t-33 163t33 163t90 132.5t133 89.5t163 33zM355 304l168 84q11 -9 24.5 -14.5t29.5 -5.5q35 0 59 24t24 59t-24 59t-59 24t-59 -24t-24 -59v-5
l-168 -84q-11 9 -24.5 14.5t-29.5 5.5q-35 0 -59 -24t-24 -59t24 -59t59 -24q31 0 54 20l168 -85v-4q0 -35 24 -59.5t59 -24.5t59 24.5t24 59.5q0 34 -24 58.5t-59 24.5q-16 0 -29.5 -5.5t-24.5 -14.5l-168 84v5v5z" />
    <glyph glyph-name="circleskype" unicode="circleskype" 
d="M425 717q87 0 163 -33t132.5 -89.5t89.5 -132.5t33 -163t-33 -163t-89.5 -133t-132.5 -90t-163 -33t-163 33t-133 90t-90 133t-33 163t33 163t90 132.5t133 89.5t163 33zM452 64q37 2 70.5 18.5t56 41.5t31 56t-4.5 63q-13 31 -36.5 50t-53.5 30.5t-63.5 19t-67.5 15.5
t-43.5 25t-2 33.5t29 29t48.5 12.5t47.5 -12.5t37 -26.5t29.5 -25.5t25 -9.5q12 1 22 10.5t13.5 23t-2 30t-24.5 33.5q-33 29 -76.5 43t-107.5 8q-25 -2 -48.5 -11.5t-42.5 -26t-31.5 -41t-15.5 -56.5t12.5 -56t40.5 -41.5t56.5 -28t60.5 -14.5q21 -3 43 -9.5t37 -17.5
t18.5 -26t-13.5 -35q-15 -18 -36 -23t-41.5 -2.5t-38 9t-24.5 11.5q-8 5 -16.5 15t-18 19.5t-21.5 17t-26 6.5q-15 -1 -25 -10.5t-13 -24t3 -31.5t24 -34q16 -15 33.5 -27t39.5 -19.5t50 -10.5t65 -1z" />
    <glyph glyph-name="circleslashdot" unicode="circleslashdot" 
d="M425 717q87 0 163 -33t132.5 -89.5t89.5 -132.5t33 -163t-33 -163t-89.5 -133t-132.5 -90t-163 -33t-163 33t-133 90t-90 133t-33 163t33 163t90 132.5t133 89.5t163 33zM529 508h-104l-183 -418h104zM542 90q27 0 46.5 19t19.5 46t-19.5 46t-46.5 19t-46 -19t-19 -46
t19 -46t46 -19z" />
    <glyph glyph-name="circleslideshare" unicode="circleslideshare" 
d="M425 717q87 0 163 -33t132.5 -89.5t89.5 -132.5t33 -163t-33 -163t-89.5 -133t-132.5 -90t-163 -33t-163 33t-133 90t-90 133t-33 163t33 163t90 132.5t133 89.5t163 33zM504 456q-23 0 -39.5 -17t-16.5 -42q0 -24 16.5 -41t39.5 -17t39.5 17t16.5 41q0 25 -16.5 42
t-39.5 17zM351 456q-23 0 -39.5 -17t-16.5 -42q0 -24 16.5 -41t39.5 -17t39.5 17t16.5 41q0 25 -16.5 42t-39.5 17zM678 332q8 16 7.5 22t-1.5 8q0 2 -3 2q-7 0 -17 -11q-6 -8 -21.5 -16t-32.5 -14.5t-32 -11t-19 -4.5h-83q-15 0 -31 -4t-16 -12v-14q-3 2 -6 5
q-9 9 -20 15.5t-28 6.5h-3h-8q-22 0 -54 3t-54 8q-12 3 -26.5 11.5t-28.5 17.5q-12 7 -21.5 12.5t-14.5 5.5q-1 0 -1 -1q-3 -8 1 -15.5t15 -21.5l5 -5q6 -8 21.5 -17.5t31 -17.5t28 -13l12.5 -5l1 -1v-94q0 -10 9 -22t21.5 -22t26.5 -16.5t24 -6.5q20 0 34 11t14 21v90l3 -2
q7 -5 18 -6v-82q0 -5 3.5 -12.5t12 -15t23 -13t35.5 -5.5t35 11t22 25.5t11 27.5t3 17v87l1 1q7 4 13.5 7t13.5 6q23 11 43.5 24t32.5 36z" />
    <glyph glyph-name="circlesmugmug" unicode="circlesmugmug" 
d="M425 717q87 0 163 -33t132.5 -89.5t89.5 -132.5t33 -163t-33 -163t-89.5 -133t-132.5 -90t-163 -33t-163 33t-133 90t-90 133t-33 163t33 163t90 132.5t133 89.5t163 33zM560 509q-20 0 -33.5 -10.5t-13.5 -25.5q0 -14 13.5 -24.5t33.5 -10.5t33.5 10.5t13.5 24.5
q0 15 -13.5 25.5t-33.5 10.5zM348 509q-20 0 -34 -10.5t-14 -25.5q0 -14 14 -24.5t34 -10.5t33.5 10.5t13.5 24.5q0 15 -13.5 25.5t-33.5 10.5zM398 37q52 0 93.5 19t73.5 48.5t55 65t37.5 68t21.5 57.5t7 34q0 13 -5.5 20.5t-12.5 11.5q-8 4 -17 6h-403q-3 -1 -7 -4
q-3 -3 -7.5 -8t-8.5 -14q-22 -44 -27 -96.5t13.5 -99t63.5 -77.5t123 -31zM265 143q-12 20 -17 43.5t-4 47.5t7.5 46t15.5 40h370q-3 -12 -11 -34t-21.5 -48t-32.5 -53.5t-44.5 -50t-58 -36.5t-71.5 -14q-17 0 -35.5 2.5t-36.5 9t-34 18t-27 29.5z" />
    <glyph glyph-name="circlesoundcloud" unicode="circlesoundcloud" 
d="M425 717q87 0 163 -33t132.5 -89.5t89.5 -132.5t33 -163t-33 -163t-89.5 -133t-132.5 -90t-163 -33t-163 33t-133 90t-90 133t-33 163t33 163t90 132.5t133 89.5t163 33zM186 291q-21 -18 -21 -44q0 -27 21 -43v87zM229 304h-5q-5 0 -8.5 -0.5t-8.5 -1.5v-110
q5 -1 8.5 -1.5t8.5 -0.5h5v114zM273 334q-13 -16 -18 -39q-1 1 -2 1.5t-2 1.5v-108h22v144zM316 365q-6 -2 -11.5 -5t-10.5 -6v-164h22v175zM360 368q-4 1 -7 1.5t-7 0.5q-2 0 -4 -0.5t-4 -0.5v-179h22v178zM403 370q-2 -4 -5 -7t-5 -6q-11 6 -22 9v-176h32v180zM621 190
q32 2 47.5 20t15.5 43q0 26 -17.5 44t-44.5 18q-11 0 -24 -5q-5 41 -36 69.5t-74 28.5q-22 0 -40.5 -7.5t-33.5 -20.5v-190h207z" />
    <glyph glyph-name="circlespotify" unicode="circlespotify" 
d="M425 717q87 0 163 -33t132.5 -89.5t89.5 -132.5t33 -163t-33 -163t-89.5 -133t-132.5 -90t-163 -33t-163 33t-133 90t-90 133t-33 163t33 163t90 132.5t133 89.5t163 33zM194 496q-14 -9 -14 -24q0 -12 8.5 -20.5t20.5 -8.5q2 0 3 0.5t3 0.5q48 19 98.5 29t104.5 10
t104.5 -10t97.5 -29q2 0 3.5 -0.5t3.5 -0.5q12 0 20 8.5t8 20.5q0 18 -16 24q-51 20 -106.5 31t-114.5 11q-60 0 -116 -11t-108 -31zM418 391q48 0 93.5 -10t87.5 -28q2 0 2.5 -0.5t2.5 -0.5q5 0 9 2.5t7 5.5l3 12q0 9 -6 14q-46 20 -95.5 31t-103.5 11t-103.5 -11
t-95.5 -31q-7 -7 -7 -14l4 -11q5 -8 15 -8q5 0 7 1q85 37 180 37zM591 275q4 8 0 15.5t-10 9.5q-37 19 -78 27.5t-85 8.5q-89 0 -166 -37q-3 -2 -7 -7.5t0 -15.5q4 -11 10 -12t10 1q73 34 153 34q40 0 77 -8.5t72 -23.5q17 -8 24 8zM617 59q20 0 37.5 7.5t31.5 19.5
q-18 35 -45 64t-60.5 49.5t-72.5 32t-81 11.5q-44 0 -84 -12t-74.5 -34t-61.5 -53t-44 -68q25 -17 55 -17h64q25 34 62.5 54t82.5 20t83 -20t62 -54h45z" />
    <glyph glyph-name="circlesquidoo" unicode="circlesquidoo" 
d="M425 717q87 0 163 -33t132.5 -89.5t89.5 -132.5t33 -163t-33 -163t-89.5 -133t-132.5 -90t-163 -33t-163 33t-133 90t-90 133t-33 163t33 163t90 132.5t133 89.5t163 33zM524 63q25 0 51 14t46.5 37.5t31 55t5.5 67.5t-22 57t-37.5 32t-41 14.5t-32.5 4.5q-25 1 -21 23.5
t25 58.5q7 13 9 29t-2.5 30.5t-14.5 27t-26 18.5h-54q14 0 25.5 -12t19.5 -27t2.5 -31t-15.5 -29q-12 -16 -30 -30q-1 8 -7 24t-19.5 35t-35 38t-53.5 32h-42q-3 0 -6 1t-7 1q16 -16 33.5 -27t31.5 -19q16 -9 24.5 -25.5t12.5 -33.5q4 -19 5 -40q-13 0 -28 4
q-14 3 -31.5 8.5t-38.5 14.5q-16 7 -25 18.5t-14.5 25t-9 28.5t-8.5 30q-8 -6 -14 -13t-11 -15q3 -8 5.5 -17.5t5.5 -20.5q9 -38 30.5 -64t44.5 -43q26 -19 58 -31q-26 -6 -52 -10q-22 -4 -45 -6.5t-40 -0.5q-6 1 -12 3.5t-6 6.5v-55q29 -8 66 -6t72 4q27 1 37 -9.5
t12.5 -26t2.5 -34.5t7 -36q19 -47 54.5 -64t83.5 -17zM554 301q18 -6 31 -18.5t20 -29t7.5 -35.5t-6.5 -38t-20 -34t-29 -24t-34 -11.5t-36 3.5t-31 18t-20 28.5t-8 35.5t6 39q7 19 20 34t29 24t34.5 11.5t36.5 -3.5zM542 164q17 0 28.5 12.5t11.5 30.5q0 15 -8.5 26.5
t-22.5 15.5q-3 -15 -12 -21q-6 -5 -15 -5.5t-18 0.5q-3 -8 -3 -16q0 -18 11 -30.5t28 -12.5z" />
    <glyph glyph-name="circlestackoverflow" unicode="circlestackoverflow" 
d="M425 717q87 0 163 -33t132.5 -89.5t89.5 -132.5t33 -163t-33 -163t-89.5 -133t-132.5 -90t-163 -33t-163 33t-133 90t-90 133t-33 163t33 163t90 132.5t133 89.5t163 33zM392 421l163 -132l33 40l-163 132zM333 310l188 -92l23 47l-188 92zM299 189l204 -47l12 51
l-204 47zM294 63h209v53h-209v-53zM608 273h-53v-236h-313v236h-53v-288h419v288zM645 382l-128 165l-41 -32l128 -165zM713 420l-88 190l-47 -22l88 -190z" />
    <glyph glyph-name="circlestar" unicode="circlestar" 
d="M425 717q87 0 163 -33t132.5 -89.5t89.5 -132.5t33 -163t-33 -163t-89.5 -133t-132.5 -90t-163 -33t-163 33t-133 90t-90 133t-33 163t33 163t90 132.5t133 89.5t163 33zM647 343q18 20 11 35t-34 15h-116l-56 116q-11 25 -27.5 25t-27.5 -25l-56 -116h-116
q-28 0 -34.5 -15t11.5 -35l1 -1l89 -108l-45 -131q-9 -26 2 -35.5t36 2.5l140 70l139 -70q25 -12 36 -2.5t2 35.5l-45 131l89 108z" />
    <glyph glyph-name="circlestumbleupon" unicode="circlestumbleupon" 
d="M425 717q87 0 163 -33t132.5 -89.5t89.5 -132.5t33 -163t-33 -163t-89.5 -133t-132.5 -90t-163 -33t-163 33t-133 90t-90 133t-33 163t33 163t90 132.5t133 89.5t163 33zM686 482h-78v-262q-2 -6 -10.5 -15t-13.5 -11h-34q-5 1 -12.5 9t-8.5 13v121q0 10 -3 26t-13.5 31
t-30.5 25.5t-54 10.5h-146q-19 0 -35 -9.5t-27.5 -24t-18 -31.5t-6.5 -32q0 -17 6.5 -29.5t15.5 -22.5t19.5 -17t18.5 -12l65 -25q8 -6 13 -14.5t7 -13.5q-2 -2 -4 -3.5t-5 -1.5h-168v-78h168q18 0 33.5 6.5t27.5 18t19 26t7 30.5q0 26 -17 54.5t-43 43.5l-65 26
q-9 5 -13 8.5t-6 5.5q2 5 5 9.5t5 6.5h144q11 0 17 -2q3 -1 4 -1q0 -1 1 -3.5t1 -7.5v-121q0 -18 8.5 -36t23 -32.5t32 -23t35.5 -8.5h34q18 0 36 9.5t33 24t24 33t9 36.5v263z" />
    <glyph glyph-name="circletechnorati" unicode="circletechnorati" 
d="M451 471q30 0 56.5 -9t46 -24t31 -35.5t11.5 -43.5t-11.5 -43.5t-31 -35.5t-46 -24t-56.5 -9t-57 9t-46.5 24t-31 35.5t-11.5 43.5t11.5 43.5t31 35.5t46.5 24t57 9zM425 717q87 0 163 -33t132.5 -89.5t89.5 -132.5t33 -163t-33 -163t-89.5 -133t-132.5 -90t-163 -33
t-163 33t-133 90t-90 133t-33 163t33 163t90 132.5t133 89.5t163 33zM451 157q49 0 91.5 16t74.5 43t50.5 64t18.5 79t-18.5 78.5t-50.5 63.5t-74.5 43t-91.5 16t-92 -16t-75 -43t-50.5 -63.5t-18.5 -78.5q0 -40 16.5 -74.5t45.5 -61.5l-17 -133l111 79q37 -12 80 -12z" />
    <glyph glyph-name="circletumblr" unicode="circletumblr" 
d="M425 717q87 0 163 -33t132.5 -89.5t89.5 -132.5t33 -163t-33 -163t-89.5 -133t-132.5 -90t-163 -33t-163 33t-133 90t-90 133t-33 163t33 163t90 132.5t133 89.5t163 33zM581 163q-38 -23 -75 -23q-21 0 -37 9q-13 8 -18 21q-2 6 -1 18t1 33v130h104v79h-104v104h-76
q-4 -35 -17 -60q-13 -24 -34 -40q-11 -9 -26.5 -15t-29.5 -11v-57h78v-175q0 -26 3 -45.5t20 -35.5q8 -8 19.5 -13.5t24.5 -9.5q14 -5 25.5 -7t28.5 -2q30 0 56 6q14 3 28 8t30 12v74z" />
    <glyph glyph-name="circletwitterbird" unicode="circletwitterbird" 
d="M424 718q87 0 163 -33t133 -89.5t90 -132.5t33 -163t-33 -163t-90 -133t-133 -90t-163 -33t-163 33t-132.5 90t-89.5 133t-33 163t33 163t89.5 132.5t132.5 89.5t163 33zM632 390q29 22 51 53q-14 -6 -28.5 -10t-30.5 -6q16 10 28 24.5t17 31.5q-15 -8 -31 -14.5
t-33 -9.5q-14 14 -33 23t-42 9q-21 0 -39.5 -8t-32 -22t-21.5 -32.5t-8 -39.5q0 -6 0.5 -12t1.5 -11q-63 3 -117 31t-92 75q-14 -23 -14 -51q0 -26 12.5 -48.5t32.5 -36.5q-26 2 -46 13v-1q0 -38 23.5 -65.5t58.5 -34.5q-7 -2 -13.5 -3t-13.5 -1q-5 0 -9.5 0.5t-9.5 1.5
q10 -30 35.5 -50t59.5 -20q-26 -21 -58.5 -32.5t-67.5 -11.5q-7 0 -13 0.5t-12 1.5q34 -22 73.5 -34t82.5 -12q70 0 124 26.5t90.5 68t55.5 93t19 101.5v13z" />
    <glyph glyph-name="circletwitter" unicode="circletwitter" 
d="M425 717q87 0 163 -33t132.5 -89.5t89.5 -132.5t33 -163t-33 -163t-89.5 -133t-132.5 -90t-163 -33t-163 33t-133 90t-90 133t-33 163t33 163t90 132.5t133 89.5t163 33zM398 168q-20 0 -36 16t-16 36v79h209q20 0 36.5 16t16.5 36t-16.5 36t-36.5 16h-209v79
q0 20 -16 36t-36 16t-36 -16t-16 -36v-262q0 -39 13.5 -68.5t35.5 -49t50 -29.5t57 -10h157q20 0 36.5 16.5t16.5 36.5t-16.5 36t-36.5 16h-157z" />
    <glyph glyph-name="circleviddler" unicode="circleviddler" 
d="M548 421q14 0 23.5 -10t9.5 -24t-9.5 -24t-23.5 -10q-13 0 -22.5 10t-9.5 24t9.5 24t22.5 10zM425 717q87 0 163 -33t132.5 -89.5t89.5 -132.5t33 -163t-33 -163t-89.5 -133t-132.5 -90t-163 -33t-163 33t-133 90t-90 133t-33 163t33 163t90 132.5t133 89.5t163 33z
M546 273q24 0 44.5 9t36 24.5t24.5 36.5t9 46t-9 46t-24.5 37t-36 25t-44.5 9q-21 0 -40 -8.5t-34 -23t-25 -33t-13 -38.5h-4q-3 20 -13 38.5t-25 33t-34 23t-40 8.5q-24 0 -46.5 -9.5t-40 -25.5t-28 -37.5t-10.5 -46.5t8.5 -45.5t22.5 -35.5t32 -24t38 -9h26v-47l-131 37
v-159l131 41v-55h191l-56 183h91zM318 421q14 0 23 -10t9 -24t-9 -24t-23 -10t-23 10t-9 24t9 24t23 10z" />
    <glyph glyph-name="circlevimeo" unicode="circlevimeo" 
d="M425 717q87 0 163 -33t132.5 -89.5t89.5 -132.5t33 -163t-33 -163t-89.5 -133t-132.5 -90t-163 -33t-163 33t-133 90t-90 133t-33 163t33 163t90 132.5t133 89.5t163 33zM657 388q7 35 -3.5 56.5t-31 30.5t-46.5 6t-50 -16t-43 -35.5t-24 -53.5q20 12 35 10.5t23 -11
t7.5 -26t-10.5 -34.5q-20 -37 -37.5 -59t-28.5 -22q-10 0 -18.5 23t-19.5 67q-6 22 -10 50.5t-11.5 53t-21 39.5t-37.5 11q-23 -5 -47.5 -21.5t-45.5 -34.5q-25 -21 -48 -47l19 -24q11 8 22 13q9 5 17.5 6t13.5 -4q3 -4 9 -20t13.5 -38.5t16 -48.5t16 -50t14.5 -43t11 -27
q6 -11 16 -22.5t23 -18.5t28 -8t32 9q16 10 48.5 36.5t66.5 65t63 86.5t39 101z" />
    <glyph glyph-name="circlevirb" unicode="circlevirb" 
d="M425 717q87 0 163 -33t132.5 -89.5t89.5 -132.5t33 -163t-33 -163t-89.5 -133t-132.5 -90t-163 -33t-163 33t-133 90t-90 133t-33 163t33 163t90 132.5t133 89.5t163 33zM555 482h-104l-79 -235l-82 235h-101l131 -366h105zM634 377q22 0 37 15.5t15 37.5q0 21 -15 36.5
t-37 15.5t-37.5 -15.5t-15.5 -36.5q0 -22 15.5 -37.5t37.5 -15.5z" />
    <glyph glyph-name="circlewww" unicode="circlewww" 
d="M425 717q87 0 163 -33t132.5 -89.5t89.5 -132.5t33 -163t-33 -163t-89.5 -133t-132.5 -90t-163 -33t-163 33t-133 90t-90 133t-33 163t33 163t90 132.5t133 89.5t163 33zM636 150q24 33 24 83q0 20 -5.5 37.5t-14.5 32.5q-8 15 -23 25t-32 16l56 115v23h-107h-46
l-62 -223l-63 223h-45l21 -73l-42 -150l-63 223h-45l104 -347h4l64 226l65 -226h4l89 306h4h73l-73 -114v-8h30q17 0 28.5 -8.5t19.5 -19.5q7 -9 10.5 -25t3.5 -33q0 -28 -13 -51q-12 -21 -31 -21q-17 0 -29 12q-13 12 -21 32l-35 -15q10 -35 33 -54q21 -20 52 -20
q40 0 65 34z" />
    <glyph glyph-name="circlewikipedia" unicode="circlewikipedia" 
d="M425 717q87 0 163 -33t132.5 -89.5t89.5 -132.5t33 -163t-33 -163t-89.5 -133t-132.5 -90t-163 -33t-163 33t-133 90t-90 133t-33 163t33 163t90 132.5t133 89.5t163 33zM686 481l-1 1h-108l-2 -1v-11q0 -1 2 -3q1 -1 3 -1l9 -1q8 0 11.5 -2t6.5 -5q7 -5 2 -21l-96 -251
l-3 1l-61 137q0 1 0.5 1.5t0.5 1.5v1l50 102q5 8 8.5 15t5.5 10q4 7 7.5 8.5t14.5 2.5q5 0 5 4v11l-1 1h-88l-2 -1v-11q0 -1 2 -3q1 -1 3 -1l4 -1q15 0 18 -5q2 -3 2.5 -7.5t-4.5 -15.5l-39 -84l-34 78q-8 19 -9 25.5t12 8.5l7 1q4 0 4 4v11l-2 1h-93l-2 -1v-11q0 -4 7 -4
q6 -1 9.5 -2.5t6.5 -5t6.5 -11t9.5 -20.5q1 -2 2 -5t3 -7t4 -9l36 -78q1 -3 3 -7t3.5 -8.5t4.5 -10.5l-53 -116l-3 1q-24 55 -44 103q-9 21 -17.5 42.5t-17 41.5t-15.5 37t-11 29q-3 10 -3 15q0 10 16 10l12 1q5 0 5 4v10l-1 1h-52h-66l-1 -1v-11q0 -3 7 -3q19 -2 24 -7
q4 -4 14 -27q11 -30 27 -69t33.5 -80t34 -80.5t28.5 -69.5q6 -16 14 -17.5t19 18.5q5 10 12.5 26.5t16 35.5t17 38.5t16.5 37.5q7 -18 15 -37.5t16 -38.5t14.5 -35t11.5 -27q8 -17 16.5 -18t16.5 18q6 14 14 34t17 43.5t19 49t20 49.5l48 120q6 18 16 26t32 10q4 0 4 4v11z
" />
    <glyph glyph-name="circlewindows" unicode="circlewindows" 
d="M425 717q87 0 163 -33t132.5 -89.5t89.5 -132.5t33 -163t-33 -163t-89.5 -133t-132.5 -90t-163 -33t-163 33t-133 90t-90 133t-33 163t33 163t90 132.5t133 89.5t163 33zM245 348q42 16 79 16q26 0 46.5 -8.5t36.5 -18.5l43 145q-7 4 -22 11.5t-28 10.5q-15 4 -35 4
q-18 -1 -37.5 -5t-42.5 -13zM266 170q28 0 48.5 -8.5t37.5 -19.5q4 13 10.5 34t12.5 43t11.5 41t8.5 29q-4 2 -8 5t-8 5q-34 17 -64 17q-5 0 -8 -1q-20 -2 -36.5 -5.5t-27.5 -8.5l-6 -2t-7 -2l-41 -143q42 16 77 16zM603 248q-39 -13 -76 -13q-34 0 -57 8.5t-38 19.5
l-42 -144q5 -3 14.5 -7.5t21.5 -9.5t25 -8.5t25 -3.5q39 0 88 20zM660 442q-41 -15 -79 -15q-32 0 -55 8.5t-38 19.5l-42 -145q41 -28 91 -28q41 0 80 19v1h2z" />
    <glyph glyph-name="circlewordpress" unicode="circlewordpress" 
d="M425 717q87 0 163 -33t132.5 -89.5t89.5 -132.5t33 -163t-33 -163t-89.5 -133t-132.5 -90t-163 -33t-163 33t-133 90t-90 133t-33 163t33 163t90 132.5t133 89.5t163 33zM189 325q0 -35 9.5 -67t27 -59.5t42 -49.5t54.5 -36l-112 308q-10 -23 -15.5 -46.5t-5.5 -49.5z
M425 90q42 0 78 13q-2 2 -2 3l-72 198l-71 -205q31 -9 67 -9zM542 182l24 79q17 46 17 76q0 22 -6 37.5t-13 27.5q-9 14 -16 27.5t-7 27.5q0 16 11 29t28 13q1 0 1.5 -0.5t1.5 -0.5q-31 29 -71.5 45.5t-86.5 16.5q-63 0 -114 -29t-83 -77h15h20t21 1l22 2q4 0 7 -2.5t3 -6
t-2 -7t-7 -3.5q-4 0 -8 -1q-10 -2 -19 -2l86 -255l52 155l-37 100q-5 0 -9 0.5t-8 1.5t-8 1q-5 0 -7 3t-1.5 7t3 6.5t7.5 2.5l22 -2q9 -1 20 -1h20h19.5t20.5 1l22 2q5 0 7.5 -2.5t3 -6t-1.5 -7t-7 -3.5q-4 0 -8 -1q-10 -2 -19 -2zM543 122q53 30 85 83.5t32 119.5
q0 31 -7.5 59t-21.5 54q1 -6 1.5 -12t0.5 -12q0 -18 -4 -38.5t-14 -46.5z" />
    <glyph glyph-name="circlexing" unicode="circlexing" 
d="M425 717q87 0 163 -33t132.5 -89.5t89.5 -132.5t33 -163t-33 -163t-89.5 -133t-132.5 -90t-163 -33t-163 33t-133 90t-90 133t-33 163t33 163t90 132.5t133 89.5t163 33zM294 194l78 132l-52 104h-105l53 -104l-79 -132h105zM477 247l157 287h-105l-157 -287l105 -184
h104z" />
    <glyph glyph-name="circleyahoobuzz" unicode="circleyahoobu&#x7a;&#x7a;" 
d="M425 717q87 0 163 -33t132.5 -89.5t89.5 -132.5t33 -163t-33 -163t-89.5 -133t-132.5 -90t-163 -33t-163 33t-133 90t-90 133t-33 163t33 163t90 132.5t133 89.5t163 33zM451 63q32 0 60.5 12.5t50 34t34 50t12.5 60.5q0 33 -12.5 61.5t-34 49.5t-50 33.5t-60.5 12.5h-53
v-78h53q32 0 55 -23t23 -56q0 -32 -23 -55t-55 -23q-33 0 -56 23t-23 55v79v235h-78v-314q0 -32 12.5 -60.5t33.5 -50t49.5 -34t61.5 -12.5z" />
    <glyph glyph-name="circleyahoo" unicode="circleyahoo" 
d="M425 717q87 0 163 -33t132.5 -89.5t89.5 -132.5t33 -163t-33 -163t-89.5 -133t-132.5 -90t-163 -33t-163 33t-133 90t-90 133t-33 163t33 163t90 132.5t133 89.5t163 33zM584 399l5 2.5t7 1.5h38l6 8l20 19h-209l8 -27h56l-94 -89q-7 11 -18.5 27t-24.5 35t-26.5 39.5
t-25.5 40.5h72v17l1 6h-1v3h-235v-26h69q10 -10 31.5 -37.5t44 -57.5t39.5 -55.5t19 -30.5q0 -5 0.5 -20t0.5 -31.5t-0.5 -30.5t-2.5 -16q-4 -4 -13.5 -6t-20 -3t-20 -1h-13.5l-4 -24h22h31t31 0.5t23 0.5h34.5h37.5t31.5 -0.5t17.5 -0.5l1 25q-4 1 -15 1h-23h-22t-13 1
q-1 4 -1.5 19.5t-1 33t-0.5 32t1 17.5q3 9 22.5 29.5t43.5 41.5t45 37.5t26 18.5zM651 179h-18l-20 3v-37l16 -2l17 -1zM686 357q-2 0 -12 1t-21.5 2.5t-22 2.5t-13.5 2l1 -158l31 -3z" />
    <glyph glyph-name="circleyelp" unicode="circleyelp" 
d="M425 717q87 0 163 -33t132.5 -89.5t89.5 -132.5t33 -163t-33 -163t-89.5 -133t-132.5 -90t-163 -33t-163 33t-133 90t-90 133t-33 163t33 163t90 132.5t133 89.5t163 33zM303 521q-12 -9 -16 -15t-3.5 -10.5t3.5 -8t6 -7.5l89 -145q5 -8 13.5 -13.5t15.5 -4.5
q6 2 10.5 9.5t4.5 18.5l-1 169q0 22 -30 28q-8 1 -19.5 0.5t-24.5 -3t-26 -7t-22 -11.5zM243 219q2 -11 11.5 -17.5t18.5 -2.5l90 31q10 4 17 12t8 16q2 8 -4.5 16t-15.5 12l-95 37q-9 4 -18.5 -3.5t-11.5 -21.5q-1 -19 -1 -35q0 -14 -0.5 -26.5t1.5 -17.5zM430 183
q1 10 -4 17.5t-12 8.5q-7 0 -16 -4.5t-15 -12.5l-63 -75q-7 -8 -4.5 -21.5t12.5 -17.5l66 -22q9 -4 21.5 4t12.5 18zM603 165q4 13 -1.5 23t-14.5 12l-79 23q-10 2 -19 2t-13 -3t-3.5 -11.5t5.5 -17.5l50 -90q2 -5 7.5 -6.5t11.5 -1.5t11.5 2.5t8.5 7.5q9 13 16 24l12 20
t8 16zM593 293q12 2 13.5 14t-0.5 20q-2 4 -6.5 12t-10.5 16.5t-13 16t-12 12.5q-10 8 -20 8t-17 -8l-51 -60q-6 -8 -8 -18t3 -18q5 -7 14.5 -10.5t19.5 -1.5z" />
    <glyph glyph-name="circleyoutube" unicode="circleyoutube" 
d="M610 206q8 0 11 -5q4 -4 4 -14v-17h-30v17q0 9 3 14q5 5 12 5zM493 206q7 0 10 -4q4 -4 4 -12v-84q0 -8 -3 -11q-3 -4 -9 -4q-4 0 -8 2q-5 2 -8 6v101q4 4 7 5q2 1 7 1zM425 717q87 0 163 -33t132.5 -89.5t89.5 -132.5t33 -163t-33 -163t-89.5 -133t-132.5 -90t-163 -33
t-163 33t-133 90t-90 133t-33 163t33 163t90 132.5t133 89.5t163 33zM307 288h-118v-32h40v-188h38v188h40v32zM308 392l50 142h-44l-26 -97h-3l-28 97h-43l51 -146v-96h43v100zM419 230h-34v-123q-2 -3 -5 -5l-6 -4q-6 -3 -9 -3q-5 0 -7 2t-2 9v124h-34v-136q0 -14 6 -21
q6 -8 17 -8q9 0 20 6q9 4 20 15v-18h34v162zM416 288q27 0 41 13q15 12 15 36v92q0 19 -15 33q-14 13 -39 13q-26 0 -41 -12q-16 -12 -16 -33v-93q0 -23 15 -36q14 -13 40 -13zM542 191q0 20 -9 31q-7 10 -24 10q-9 0 -16 -4q-8 -3 -14 -11v71h-35v-220h35v12q3 -4 6.5 -6.5
t7.5 -4.5q7 -3 18 -3q15 0 23 9q8 10 8 26v90zM530 290q12 0 22 5t22 17v-20h38v179h-38v-136q-4 -5 -12 -10q-6 -3 -10 -3q-7 0 -8 3q-3 3 -3 9v137h-38v-150q0 -16 7 -23q5 -8 20 -8zM660 186q0 24 -13 36q-12 12 -36 12q-23 0 -37 -13q-14 -14 -14 -35v-72q0 -24 13 -37
q14 -14 36 -14q25 0 38 13q13 12 13 38v8h-35v-7q0 -15 -3 -19q-4 -4 -12 -4q-10 0 -12 5q-3 4 -3 18v30h65v41zM416 444q7 0 13 -3q4 -4 4 -10v-97q0 -8 -4 -11q-4 -4 -13 -4q-8 0 -11 4q-5 3 -5 11v97q0 5 5 10q4 3 11 3z" />
    <glyph glyph-name="circleapple" unicode="circleapple" 
d="M425 720q87 0 163 -33t133 -89.5t90 -133t33 -163.5t-33 -163t-90 -133t-133 -90t-163 -33t-163.5 33t-133 90t-89.5 133t-33 163t33 163.5t89.5 133t133 89.5t163.5 33zM450 501q-12 -13 -20 -33t-6 -40q20 -2 39.5 8.5t32.5 25.5t20 34.5t5 40.5q-18 -1 -38 -11
t-33 -25zM588 124q17 25 25 45.5t8 21.5q-18 8 -32 21q-12 11 -22 29.5t-10 45.5q0 22 7.5 38.5t17 27.5t18 17t9.5 6q-11 15 -24 24.5t-25.5 14t-23 6.5t-16.5 2q-14 1 -27.5 -2t-25.5 -7.5t-22 -8.5t-17 -4q-14 0 -35 10.5t-45 10.5q-31 -1 -57 -16.5t-42 -42.5t-19 -59.5
t2.5 -64.5t18.5 -62t28 -52q15 -21 34 -40.5t42 -18.5q12 0 20.5 3t17 6.5t18 6.5t23.5 3t23.5 -3t18 -6.5t17.5 -6.5t21 -3q25 1 42 18.5t32 39.5z" />
    <glyph glyph-name="roundedfivehundredpx" unicode="roundedfivehundredpx" 
d="M634 717q43 0 81 -16.5t66.5 -45t45 -66.5t16.5 -81v-418q0 -43 -16.5 -81.5t-45 -67t-66.5 -45t-81 -16.5h-419q-43 0 -81 16.5t-66.5 45t-45 67t-16.5 81.5v418q0 43 16.5 81t45 66.5t66.5 45t81 16.5h419zM605 168q44 0 62.5 27.5t18.5 63.5q0 37 -18.5 64t-62.5 27
q-23 0 -40 -9.5t-29 -20.5q-14 -13 -24 -30q-10 17 -23 30q-11 11 -28.5 20.5t-41.5 9.5t-39 -8.5t-23 -18.5q-10 -12 -14 -27q-5 13 -15 24q-8 9 -21.5 16.5t-33.5 7.5q-13 0 -22.5 -3t-16.5 -6q-8 -4 -13 -9l12 55h104v49h-139l-29 -146h52q4 7 10 12q5 5 12.5 8.5
t18.5 3.5q22 0 31.5 -15t9.5 -34q0 -18 -15 -33t-32 -15q-14 0 -21.5 5.5t-12.5 12.5q-5 8 -7 18h-52q4 -22 15 -40q9 -15 26 -27t46 -12t46.5 7.5t28.5 16.5q12 11 18 25q4 -14 14 -25q8 -9 23 -16.5t39 -7.5t41.5 8t28.5 19q13 12 23 28q10 -16 24 -28q12 -11 29 -19
t40 -8zM599 302q22 0 34 -12t12 -31q0 -18 -12 -30t-34 -12q-11 0 -21.5 6.5t-18.5 14.5q-10 9 -18 21q8 11 18 21q8 8 18.5 15t21.5 7zM425 302q11 0 21.5 -7t18.5 -15q10 -10 18 -21q-8 -12 -18 -21q-8 -8 -18.5 -14.5t-21.5 -6.5q-23 0 -35 12t-12 30q0 19 12 31t35 12z
" />
    <glyph glyph-name="roundedaboutme" unicode="roundedaboutme" 
d="M590 379q27 0 45 -21q12 -15 13 -39h-118q1 27 19 43q17 17 41 17zM634 717q43 0 81 -16.5t66.5 -45t45 -66.5t16.5 -81v-418q0 -43 -16.5 -81.5t-45 -67t-66.5 -45t-81 -16.5h-419q-43 0 -81 16.5t-66.5 45t-45 67t-16.5 81.5v418q0 43 16.5 81t45 66.5t66.5 45t81 16.5
h419zM450 338q0 34 -17 53q-17 17 -49 17q-40 0 -65 -37q-6 18 -21 27q-14 10 -39 10q-21 0 -38 -10q-15 -8 -26 -24v29h-32v-209h36v109q0 28 6 43q4 14 18 23q12 8 28 8q20 0 29 -12q9 -11 9 -35v-136h36v122q0 33 14 47q16 14 37 14q13 0 22 -6q8 -4 13 -15q3 -9 3 -30
v-132h36v144zM686 299q0 51 -27 80t-69 29q-44 0 -71 -29q-28 -29 -28 -82q0 -51 27 -79t74 -28q37 0 60 17q24 18 33 50l-37 5q-9 -23 -22 -33t-34 -10q-26 0 -44 18q-19 18 -20 53h158v9z" />
    <glyph glyph-name="roundedaddme" unicode="roundedaddme" 
d="M634 717q43 0 81 -16.5t66.5 -45t45 -66.5t16.5 -81v-418q0 -43 -16.5 -81.5t-45 -67t-66.5 -45t-81 -16.5h-419q-43 0 -81 16.5t-66.5 45t-45 67t-16.5 81.5v418q0 43 16.5 81t45 66.5t66.5 45t81 16.5h419zM634 351h-157v157h-105v-157h-157v-104h157v-157h105v157h157
v104z" />
    <glyph glyph-name="roundedamazon" unicode="roundedama&#x7a;on" 
d="M634 717q43 0 81 -16.5t66.5 -45t45 -66.5t16.5 -81v-418q0 -43 -16.5 -81.5t-45 -67t-66.5 -45t-81 -16.5h-419q-43 0 -81 16.5t-66.5 45t-45 67t-16.5 81.5v418q0 43 16.5 81t45 66.5t66.5 45t81 16.5h419zM465 457q6 -9 6.5 -20t0.5 -22v-8q-9 -1 -20 -1.5t-22 -2.5
q-17 -2 -33 -5.5t-30 -10.5q-27 -12 -43.5 -36t-16.5 -59q0 -45 24.5 -67.5t59.5 -22.5q21 0 39 5q28 9 53 37q8 -11 13 -18.5t19 -19.5q8 -3 14 1q8 8 21.5 19t21.5 19q5 5 1 15q-8 11 -15 22.5t-7 31.5v91q0 29 -2 54.5t-22 45.5q-17 16 -41 22.5t-44 6.5h-12
q-18 -1 -36.5 -6t-34 -15.5t-27 -27t-15.5 -40.5q-2 -6 1 -8.5t6 -3.5l55 -7q8 1 10 11q3 17 15 25t26 10h4q9 0 17.5 -3.5t13.5 -11.5zM636 131q7 5 3 11t-12 3q-3 -2 -6.5 -3t-6.5 -3q-46 -18 -92.5 -27t-91.5 -9q-71 0 -137 19t-122 52q-5 3 -7.5 -0.5t2.5 -7.5
q51 -48 117 -75.5t141 -27.5q48 0 98 13.5t92 39.5q6 4 11.5 7t10.5 8zM686 169q0 6 -2 10q-4 5 -25.5 7t-44.5 -5q-13 -5 -23 -12q-4 -2 -3.5 -5t4.5 -3q5 1 10.5 1.5t11.5 1.5q14 2 27.5 1t18.5 -6q3 -3 1.5 -11.5t-4.5 -19t-6.5 -20.5t-6.5 -17q-2 -4 1 -5t7 2
q17 15 25 39t9 39v3zM389 302q0 24 12 36.5t29 17.5q10 2 20.5 3t21.5 1v-12q0 -17 -1 -31.5t-9 -29.5q-11 -22 -32 -27q-1 0 -3 -0.5t-4 -0.5q-17 0 -25.5 12t-8.5 31z" />
    <glyph glyph-name="roundedaol" unicode="roundedaol" 
d="M634 717q43 0 81 -16.5t66.5 -45t45 -66.5t16.5 -81v-418q0 -43 -16.5 -81.5t-45 -67t-66.5 -45t-81 -16.5h-419q-43 0 -81 16.5t-66.5 45t-45 67t-16.5 81.5v418q0 43 16.5 81t45 66.5t66.5 45t81 16.5h419zM483 534q-26 0 -45 -18.5t-19 -44.5t19 -44t45 -18
q27 0 45.5 18t18.5 44t-18.5 44.5t-45.5 18.5zM621 110l-5 8q-50 100 -145 147q-1 0 -2 1h-1l-1 1l-1 1q-3 1 -3 3q2 6 3.5 7t3.5 1h8q9 -2 18 -3t18 -1q20 0 42.5 6.5t50.5 20.5l8 5l-27 60l-9 -4q-11 -5 -26.5 -9t-33.5 -4q-20 0 -38 6l-4 2l-1 3q-1 1 -1 3t-1 4v3v13
l-8 1q-14 3 -31 12l-5 3l-5 -2q-33 -19 -49.5 -50.5t-21.5 -85.5q-2 -14 -3 -19.5t-2 -7.5q-11 -22 -25 -37.5t-29.5 -26t-30 -16.5t-25.5 -9l-11 -3l30 -80l9 3q33 8 56.5 20t40.5 25.5t29 27.5t23 28l7 10q2 2 4 2l4 -2q27 -12 47 -25t34.5 -26t23 -25t13.5 -20l5 -9z" />
    <glyph glyph-name="roundedappstorealt" unicode="roundedappstorealt" 
d="M425 534q48 0 91 -18.5t75 -50.5t50.5 -74.5t18.5 -91.5t-18.5 -92t-50.5 -75t-75 -50.5t-91 -18.5q-49 0 -92 18.5t-75 50.5t-50.5 75t-18.5 92t18.5 91.5t50.5 74.5t75 50.5t92 18.5zM555 273h-78v183h-105v-183h-78l131 -131zM634 717q43 0 81 -16.5t66.5 -45
t45 -66.5t16.5 -81v-418q0 -43 -16.5 -81.5t-45 -67t-66.5 -45t-81 -16.5h-419q-43 0 -81 16.5t-66.5 45t-45 67t-16.5 81.5v418q0 43 16.5 81t45 66.5t66.5 45t81 16.5h419zM425 37q54 0 101.5 20.5t83 56t56 83.5t20.5 102t-20.5 101.5t-56 83t-83 56t-101.5 20.5
t-102 -20.5t-83.5 -56t-56 -83t-20.5 -101.5t20.5 -102t56 -83.5t83.5 -56t102 -20.5z" />
    <glyph glyph-name="roundedappstore" unicode="roundedappstore" 
d="M634 717q43 0 81 -16.5t66.5 -45t45 -66.5t16.5 -81v-418q0 -43 -16.5 -81.5t-45 -67t-66.5 -45t-81 -16.5h-419q-43 0 -81 16.5t-66.5 45t-45 67t-16.5 81.5v418q0 43 16.5 81t45 66.5t66.5 45t81 16.5h419zM163 257q0 -10 12 -10h53l66 104h-119q-12 0 -12 -9v-85z
M252 124q11 7 0 13l-31 18q-10 5 -12 -6l-5 -47q-1 -5 1.5 -6t6.5 1zM262 151q10 -7 16 4l144 250q2 4 1 9t-6 7l-31 18q-4 2 -9 1t-7 -6l-143 -249q-7 -10 4 -17zM501 247l-44 104h-31l-67 -104h142zM549 230q9 -5 14 -3.5t11 4.5q7 2 14 10t2 19q-3 5 -15 27t-27 50.5
t-30.5 57t-26.5 46.5q-11 17 -23.5 38.5t-23.5 40.5t-20 30.5t-13 9.5q-6 -3 -1.5 -20.5t13.5 -40.5t19.5 -46t16.5 -37t19 -44t27.5 -60.5t26.5 -55t17 -26.5zM589 165q7 -10 19 -5l12 8q5 2 6.5 7.5t-1.5 10.5l-15 28q-2 5 -7 6.5t-10 -0.5l-18 -9q-5 -2 -6 -7t2 -10z
M658 87q2 26 -2 44q-3 15 -13 23.5t-30 -2.5q-3 -3 -7.5 -11t5.5 -22q5 -7 12.5 -11t14.5 -7t12.5 -6t7.5 -8zM686 342q0 9 -12 9h-105l53 -104h52q12 0 12 10v85z" />
    <glyph glyph-name="roundedapple" unicode="roundedapple" 
d="M634 717q43 0 81 -16.5t66.5 -45t45 -66.5t16.5 -81v-418q0 -43 -16.5 -81.5t-45 -67t-66.5 -45t-81 -16.5h-419q-43 0 -81 16.5t-66.5 45t-45 67t-16.5 81.5v418q0 43 16.5 81t45 66.5t66.5 45t81 16.5h419zM450 498q-12 -13 -20.5 -32.5t-5.5 -39.5q20 -2 39 8t32 25
t20.5 35t4.5 40q-18 -1 -37.5 -11t-32.5 -25zM587 122q17 25 25 45t9 22l-10.5 5t-22.5 16t-22 29t-10 45q0 22 7.5 39t17.5 28t18 16.5t9 6.5q-11 15 -23.5 24t-25 14t-23 6.5t-16.5 1.5q-14 1 -27.5 -2t-25.5 -7t-22 -8t-17 -4t-16 3.5t-19.5 7t-21.5 6.5t-23 3
q-31 0 -57 -16t-42 -43t-19 -59t2.5 -64.5t18.5 -62t28 -51.5q7 -11 15.5 -22t18 -19.5t20 -13.5t22.5 -4q12 0 20.5 3t17 6.5t18 6.5t23.5 3t23.5 -3t18 -6.5t17.5 -6.5t21 -3q24 1 41 18.5t32 39.5z" />
    <glyph glyph-name="roundedbebo" unicode="roundedbebo" 
d="M634 717q43 0 81 -16.5t66.5 -45t45 -66.5t16.5 -81v-418q0 -43 -16.5 -81.5t-45 -67t-66.5 -45t-81 -16.5h-419q-43 0 -81 16.5t-66.5 45t-45 67t-16.5 81.5v418q0 43 16.5 81t45 66.5t66.5 45t81 16.5h419zM474 63q38 0 72 13.5t59.5 36.5t40 54t14.5 66q0 36 -11 67
t-30 54t-44.5 36t-54.5 13h-93q-19 0 -32.5 -10t-13.5 -29t13.5 -29t32.5 -10h93q17 0 32 -22.5t15 -55.5q0 -17 -7.5 -31.5t-20 -25t-29.5 -16.5t-36 -6h-47q-38 0 -59.5 23.5t-21.5 61.5v235q0 20 -16.5 33t-35.5 13q-20 0 -36 -13t-16 -33v-235q0 -38 14.5 -72
t39.5 -60.5t59 -42t72 -15.5h47z" />
    <glyph glyph-name="roundedbehance" unicode="roundedbehance" 
d="M347 336q-6 -4 -13.5 -7.5t-17.5 -3.5h-48v78h41q11 0 19 -2t15 -5q8 -3 11.5 -11t3.5 -19q0 -22 -11 -30zM346 271q9 -5 13.5 -11.5t4.5 -19.5q0 -29 -19 -39q-12 -7 -29 -7h-48v79h49h16.5t12.5 -2zM634 717q43 0 81 -16.5t66.5 -45t45 -66.5t16.5 -81v-418
q0 -43 -16.5 -81.5t-45 -67t-66.5 -45t-81 -16.5h-419q-43 0 -81 16.5t-66.5 45t-45 67t-16.5 81.5v418q0 43 16.5 81t45 66.5t66.5 45t81 16.5h419zM503 403h105v53h-105v-53zM412 187q13 23 13 50q0 26 -12 46q-11 18 -33 27q14 8 22 18q13 17 13 46t-13 48q-21 32 -74 34
h-139v-314h130q11 0 21 1t19 3q19 5 32 16q7 5 11.5 11t9.5 14zM660 247q-1 9 -1 17q0 7 -0.5 14t-0.5 11q-2 14 -6 24.5t-10 20.5q-14 23 -34 33t-46 10q-44 0 -71 -30q-27 -32 -27 -89q0 -61 30 -88t70 -27q23 0 41.5 9t32.5 25q8 11 13 20t6 23h-53q-2 -14 -4.5 -14.5
t-5.5 -3.5q-6 -5 -13 -8.5t-16 -3.5q-17 0 -29 9q-9 6 -14 17t-6 31h144zM562 325q18 0 30 -12q7 -6 10 -13t4 -27h-89q2 20 5.5 26t8.5 13q11 13 31 13z" />
    <glyph glyph-name="roundedbing" unicode="roundedbing" 
d="M634 717q43 0 81 -16.5t66.5 -45t45 -66.5t16.5 -81v-418q0 -43 -16.5 -81.5t-45 -67t-66.5 -45t-81 -16.5h-419q-43 0 -81 16.5t-66.5 45t-45 67t-16.5 81.5v418q0 43 16.5 81t45 66.5t66.5 45t81 16.5h419zM425 63q48 0 91 13t75 36t50.5 53t18.5 65q0 34 -18.5 64.5
t-50.5 53t-75 35.5t-91 13q-21 0 -40 -2t-37.5 -8t-38 -16t-41.5 -25v189h-79v-309h1q1 -33 20 -62.5t50.5 -51.5t74 -35t90.5 -13zM425 341q31 0 58 -9t47 -24t32 -35t12 -43t-12 -43.5t-32 -35.5t-47 -23.5t-58 -8.5t-58.5 8.5t-47.5 23.5t-32 35.5t-12 43.5t12 43t32 35
t47.5 24t58.5 9zM425 159q20 0 38 5.5t31.5 15.5t21.5 23t8 28q0 31 -29 52t-70 21q-42 0 -71 -21t-29 -52q0 -15 8 -28t21.5 -23t31.5 -15.5t39 -5.5z" />
    <glyph glyph-name="roundedblip" unicode="roundedblip" 
d="M634 717q43 0 81 -16.5t66.5 -45t45 -66.5t16.5 -81v-418q0 -43 -16.5 -81.5t-45 -67t-66.5 -45t-81 -16.5h-419q-43 0 -81 16.5t-66.5 45t-45 67t-16.5 81.5v418q0 43 16.5 81t45 66.5t66.5 45t81 16.5h419zM346 90l-131 130v-78l-26 -26l53 -53l26 27h78zM509 90
q0 60 -23.5 113.5t-63.5 93.5t-93.5 63.5t-113.5 23.5v-85q42 0 81 -16t68 -45t44.5 -67.5t15.5 -80.5h85zM660 90q0 91 -35 172t-96 141.5t-142 95.5t-172 35v-85q74 0 139.5 -28.5t114.5 -77t77.5 -114t28.5 -139.5h85z" />
    <glyph glyph-name="roundedblogger" unicode="roundedblogger" 
d="M370 361q-12 0 -20.5 8.5t-8.5 19.5q0 12 8.5 20t20.5 8h82q12 0 20.5 -8t8.5 -20q0 -11 -8.5 -19.5t-20.5 -8.5h-82zM634 717q43 0 81 -16.5t66.5 -45t45 -66.5t16.5 -81v-418q0 -43 -16.5 -81.5t-45 -67t-66.5 -45t-81 -16.5h-419q-43 0 -81 16.5t-66.5 45t-45 67
t-16.5 81.5v418q0 43 16.5 81t45 66.5t66.5 45t81 16.5h419zM689 337l-1 7l-4 8l-7 5q-3 3 -12 3t-19 0.5t-19.5 1.5t-13.5 5q-7 6 -8.5 16t-3.5 24t-3.5 22t-3 13t-3.5 8t-4 8q-8 16 -21.5 30.5t-29.5 25t-33 17t-31 8.5h-104q-31 0 -58 -12t-47.5 -32t-32.5 -47t-12 -58
v-173q0 -31 12 -58t32.5 -47.5t47.5 -32t58 -11.5h171q31 0 58 11.5t47 32t32 47.5t12 58zM538 247q11 0 19.5 -8t8.5 -20q0 -11 -8.5 -19.5t-19.5 -8.5h-168q-12 0 -20.5 8.5t-8.5 19.5q0 12 8.5 20t20.5 8h168z" />
    <glyph glyph-name="roundedcoroflot" unicode="roundedcoroflot" 
d="M634 717q43 0 81 -16.5t66.5 -45t45 -66.5t16.5 -81v-418q0 -43 -16.5 -81.5t-45 -67t-66.5 -45t-81 -16.5h-419q-43 0 -81 16.5t-66.5 45t-45 67t-16.5 81.5v418q0 43 16.5 81t45 66.5t66.5 45t81 16.5h419zM225 454q-2 -15 18.5 -17t50.5 1q14 1 27 -9t22.5 -29t15 -46
t4.5 -61q14 5 31 7q-1 8 -3.5 27.5t-9.5 42.5t-20.5 46.5t-35.5 40.5q12 1 29 -1.5t37 -14.5t43 -35t48 -62q5 2 9.5 3t9.5 3q-9 15 -27.5 39.5t-43.5 47t-56.5 35.5t-65.5 5q1 12 0 23.5t-4.5 19.5t-10 11t-15.5 -2q-10 -6 -13 -11t-2.5 -11t2 -13t0.5 -16q-1 -10 -7 -12
t-12.5 -2t-13 -1.5t-7.5 -8.5zM406 66q21 0 40 8t33 22t22 33t8 40t-8 40t-22 33t-33 22t-40 8t-40 -8t-33.5 -22t-22.5 -33t-8 -40t8 -40t22.5 -33t33.5 -22t40 -8zM533 138q19 1 35.5 9t29 20.5t19.5 29.5t7 36q0 40 -28 68t-68 28q-23 0 -42.5 -10t-33.5 -27
q38 -14 61.5 -47.5t23.5 -75.5q0 -18 -4 -31zM375 231q9 0 15.5 -6.5t6.5 -15.5q0 -10 -6.5 -16.5t-15.5 -6.5q-10 0 -16.5 6.5t-6.5 16.5q0 9 6.5 15.5t16.5 6.5z" />
    <glyph glyph-name="roundeddaytum" unicode="roundeddaytum" 
d="M634 717q43 0 81 -16.5t66.5 -45t45 -66.5t16.5 -81v-418q0 -43 -16.5 -81.5t-45 -67t-66.5 -45t-81 -16.5h-419q-43 0 -81 16.5t-66.5 45t-45 67t-16.5 81.5v418q0 43 16.5 81t45 66.5t66.5 45t81 16.5h419zM268 194h-53v-157h53v157zM346 299h-52v-262h52v262zM425 247
h-53v-210h53v210zM503 403h-52v-366h52v366zM581 299h-52v-262h52v262zM660 456h-52v-419h52v419zM660 534h-445v-52h445v52z" />
    <glyph glyph-name="roundeddelicious" unicode="roundeddelicious" 
d="M634 717q43 0 81 -16.5t66.5 -45t45 -66.5t16.5 -81v-418q0 -43 -16.5 -81.5t-45 -67t-66.5 -45t-81 -16.5h-419q-43 0 -81 16.5t-66.5 45t-45 67t-16.5 81.5v418q0 43 16.5 81t45 66.5t66.5 45t81 16.5h419zM634 508h-209v-209h-210v-209h210v209h209v209z" />
    <glyph glyph-name="roundeddesignbump" unicode="roundeddesignbump" 
d="M634 717q43 0 81 -16.5t66.5 -45t45 -66.5t16.5 -81v-418q0 -43 -16.5 -81.5t-45 -67t-66.5 -45t-81 -16.5h-419q-43 0 -81 16.5t-66.5 45t-45 67t-16.5 81.5v418q0 43 16.5 81t45 66.5t66.5 45t81 16.5h419zM346 430h52v-53l105 -104h-105v-105l105 105v157h52l-104 104
zM372 299h53l-105 104l-105 -104h53v-236h104v236zM451 116h-53v-53h53v53zM634 142l-105 105l-104 -105h52v-79h104v79h53z" />
    <glyph glyph-name="roundeddesignfloat" unicode="roundeddesignfloat" 
d="M634 717q43 0 81 -16.5t66.5 -45t45 -66.5t16.5 -81v-418q0 -43 -16.5 -81.5t-45 -67t-66.5 -45t-81 -16.5h-419q-43 0 -81 16.5t-66.5 45t-45 67t-16.5 81.5v418q0 43 16.5 81t45 66.5t66.5 45t81 16.5h419zM425 63q48 0 91 18.5t75 50.5t50.5 75t18.5 92t-18.5 91.5
t-50.5 74.5t-75 50.5t-91 18.5q-49 0 -92 -18.5t-75 -50.5t-50.5 -74.5t-18.5 -91.5t18.5 -92t50.5 -75t75 -50.5t92 -18.5zM425 382q35 0 59 -24t24 -59t-24 -59.5t-59 -24.5q-18 0 -33 6.5t-26.5 18t-18 27t-6.5 32.5t6.5 32t18 26.5t26.5 18t33 6.5zM425 511
q43 0 81.5 -16.5t67.5 -45.5t45.5 -67.5t16.5 -82.5t-16.5 -82.5t-45.5 -67.5t-67.5 -45.5t-81.5 -16.5q-44 0 -82.5 16.5t-67.5 45.5t-45.5 67.5t-16.5 82.5t16.5 82.5t45.5 67.5t67.5 45.5t82.5 16.5zM372 478q-59 -13 -86.5 -54t-39.5 -99h51q11 39 33 64.5t42 36.5v52z
M372 172q-10 5 -21 10t-21 12.5t-19 20t-14 32.5h-51q6 -30 15.5 -51t24.5 -36t36 -24.5t50 -15.5v52zM317 299q0 -22 8.5 -41.5t23 -34t34 -23t42.5 -8.5q22 0 41.5 8.5t34 23t23 34t8.5 41.5t-8.5 41.5t-23 34t-34 23t-41.5 8.5q-23 0 -42.5 -8.5t-34 -23t-23 -34
t-8.5 -41.5zM451 120q29 6 54.5 15.5t45 24.5t33.5 36t20 51h-52q-5 -20 -14.5 -32.5t-22 -20t-29 -12.5t-35.5 -10v-52zM604 325q-13 59 -53.5 99.5t-99.5 53.5v-52q80 -21 101 -101h52z" />
    <glyph glyph-name="roundeddeviantart" unicode="roundeddeviantart" 
d="M634 717q43 0 81 -16.5t66.5 -45t45 -66.5t16.5 -81v-418q0 -43 -16.5 -81.5t-45 -67t-66.5 -45t-81 -16.5h-419q-43 0 -81 16.5t-66.5 45t-45 67t-16.5 81.5v418q0 43 16.5 81t45 66.5t66.5 45t81 16.5h419zM692 295q-25 33 -68 56q-37 20 -96.5 31t-147.5 -4h-4l-22 46
l-67 -8l27 -56q-27 -11 -44.5 -25t-28 -30t-15 -32.5t-5.5 -32.5q-2 -37 14 -76l216 62l-59 120q40 11 75 8t62 -12q31 -11 58 -28l-73 -19l-21 39q-15 2 -32 3t-35 -2l50 -102zM293 235q-6 14 -3 28q2 12 11 27t32 30l32 -65z" />
    <glyph glyph-name="roundeddiggalt" unicode="roundeddiggalt" 
d="M634 247h-26v78h26v-78zM634 717q43 0 81 -16.5t66.5 -45t45 -66.5t16.5 -81v-418q0 -43 -16.5 -81.5t-45 -67t-66.5 -45t-81 -16.5h-419q-43 0 -81 16.5t-66.5 45t-45 67t-16.5 81.5v418q0 43 16.5 81t45 66.5t66.5 45t81 16.5h419zM294 456h-52v-79h-79v-183h131v183
v79zM372 377h-52v-183h52v183zM372 456h-52v-53h52v53zM529 377h-131v-183h79v-26h-79v-52h131v52v26v183zM686 377h-131v-183h79v-26h-79v-52h131v52v26v183zM215 325h27v-78h-27v78zM477 247h-26v78h26v-78z" />
    <glyph glyph-name="roundeddigg" unicode="roundeddigg" 
d="M294 177q11 0 18.5 -6.5t7.5 -15.5v-22h-87v22q0 9 7.5 15.5t18.5 6.5h35zM215 383q19 17 37.5 27.5t28.5 10.5q9 0 27.5 -10.5t37.5 -27.5v-84h-131v84zM555 377h-78v79h78v-79zM634 717q43 0 81 -16.5t66.5 -45t45 -66.5t16.5 -81v-418q0 -43 -16.5 -81.5t-45 -67
t-66.5 -45t-81 -16.5h-419q-43 0 -81 16.5t-66.5 45t-45 67t-16.5 81.5v418q0 43 16.5 81t45 66.5t66.5 45t81 16.5h419zM686 399h-78v109h-183v-109h-27v3q-21 17 -41 31q-18 11 -38.5 21t-37.5 10q-18 0 -38.5 -10t-38.5 -21q-21 -14 -41 -31v-155h105v-27
q-14 -1 -28 -6.5t-25.5 -14t-18.5 -20t-7 -24.5v-49q0 -7 5 -11.5t13 -4.5h139q17 0 17 16v33v16q0 26 -21 44.5t-48 20.5v27h43h44h22v-157h231v157h52v152zM608 355h26v-56h-53v-157h-52v78h-22v-78h-56v157h-53v52h27v-26h183v30z" />
    <glyph glyph-name="roundeddribble" unicode="roundeddribble" 
d="M469 334q31 14 60.5 33t56.5 42q17 -24 25.5 -52t9.5 -57q-38 9 -75 9q-15 0 -31 -1.5t-33 -5.5l-6 16t-7 16zM634 717q43 0 81 -16.5t66.5 -45t45 -66.5t16.5 -81v-418q0 -43 -16.5 -81.5t-45 -67t-66.5 -45t-81 -16.5h-419q-43 0 -81 16.5t-66.5 45t-45 67t-16.5 81.5
v418q0 43 16.5 81t45 66.5t66.5 45t81 16.5h419zM425 63q48 0 91 18.5t75 50.5t50.5 75t18.5 92q0 48 -18.5 91t-50.5 75t-75 50.5t-91 18.5q-49 0 -92 -18.5t-75 -50.5t-50.5 -75t-18.5 -91q0 -49 18.5 -92t50.5 -75t75 -50.5t92 -18.5zM496 265q28 5 50 5q37 0 71 -10
q-8 -41 -32.5 -75t-60.5 -55q-4 35 -11 69t-17 66zM561 439q-26 -21 -53 -38.5t-56 -30.5q-17 31 -36 60.5t-42 57.5q12 3 24.5 5t26.5 2q38 0 73 -14.5t63 -41.5zM311 139q26 42 63.5 71.5t82.5 44.5q23 -69 29 -142q-29 -10 -61 -10q-65 0 -114 36zM444 292
q-50 -17 -92 -49t-71 -77q-49 52 -52 124q8 -1 14 -1h13q45 0 89.5 7.5t86.5 23.5q4 -7 6.5 -14t5.5 -14zM415 355q-77 -27 -159 -27h-13.5t-11.5 1q7 46 34.5 84t69.5 60q46 -55 80 -118z" />
    <glyph glyph-name="roundeddrupal" unicode="roundeddrupal" 
d="M634 717q43 0 81 -16.5t66.5 -45t45 -66.5t16.5 -81v-418q0 -43 -16.5 -81.5t-45 -67t-66.5 -45t-81 -16.5h-419q-43 0 -81 16.5t-66.5 45t-45 67t-16.5 81.5v418q0 43 16.5 81t45 66.5t66.5 45t81 16.5h419zM426 63q42 0 79.5 14.5t66 40.5t45.5 63t17 82t-14.5 78
t-33 55.5t-35.5 35t-22 15.5q-19 11 -36.5 17.5t-34.5 17.5q-11 8 -24.5 23t-26.5 29q-2 -23 -8.5 -34.5t-14.5 -18.5q-18 -14 -31 -20t-28 -14q-6 -3 -24 -15.5t-37 -34t-34 -54t-15 -76.5t17.5 -81.5t46.5 -64.5t67 -42.5t80 -15.5zM461 141q-11 -9 -14 -5q-3 5 4 11
q4 4 9.5 8.5t11.5 6.5q6 3 10 3h9q6 0 11 -0.5t10 -3.5q4 -3 6.5 -8t4.5 -8q2 -8 -4 -9q-3 -2 -7 5q-2 4 -6 7.5t-16 3.5t-17.5 -3t-11.5 -8zM526 118q6 4 6 -1q2 -5 -1 -8q-2 -2 -16 -9.5t-33 -9.5t-41 -0.5t-38 15.5q-2 2 -2 4.5t2 4.5q4 3 7 3t4 -1q7 -5 18.5 -9t34.5 -4
q22 0 37 5t22 10zM380 279q20 0 37.5 -8.5t32 -18t26.5 -17.5t23 -8q9 0 20.5 7t24 15t24 15t19.5 7q17 0 23.5 -13t6.5 -24t-4 -27.5t-12 -28.5q-8 -11 -14.5 -16t-16.5 -4q-6 0 -15 8.5t-18.5 18t-19.5 18t-18 8.5q-10 0 -25 -8.5t-32.5 -19t-36.5 -19t-36 -8.5
q-21 0 -29.5 2.5t-15.5 7.5q-22 14 -20 44q0 13 6 25.5t16.5 22t24 15.5t29.5 6zM382 428q-14 -15 -28 -26t-39 -26q-26 -14 -38 -16t-13 -1t-3.5 4.5t2.5 11.5q8 13 19.5 23.5t23 18.5t21 13.5t14.5 7.5q3 2 16.5 9t28.5 18q10 8 16.5 17t9.5 32q4 -13 4 -31
q-1 -8 -6.5 -13t-7.5 -7t-7 -4.5l-7 -3.5q-4 -1 0 -3q6 -2 6 -5q0 -2 -2 -6.5t-10 -12.5z" />
    <glyph glyph-name="roundedebay" unicode="roundedebay" 
d="M332 262v70q26 -11 32 -29t4 -41h-36zM239 218q-14 0 -22 4.5t-12 11t-4.5 14t-0.5 14.5h132v-17h-26h-29q0 -10 -7 -18.5t-31 -8.5zM522 407q32 -5 40 -20t8 -35v-40zM634 717q43 0 81 -16.5t66.5 -45t45 -66.5t16.5 -81v-418q0 -43 -16.5 -81.5t-45 -67t-66.5 -45
t-81 -16.5h-419q-43 0 -81 16.5t-66.5 45t-45 67t-16.5 81.5v418q0 43 16.5 81t45 66.5t66.5 45t81 16.5h419zM738 430h-64l-49 -102l-45 102h-69l11 -23q-5 1 -10.5 1h-11.5q-14 0 -25.5 -2.5t-19.5 -8.5q-18 -11 -18 -41h48q0 10 2.5 18t15.5 8q14 0 17 -7t3 -18v-13
q-21 1 -40 -1t-31 -12q-6 5 -13.5 8.5t-18.5 3.5q-25 0 -39 -19h-1v88h-48v-80q-5 3 -11.5 4.5t-14.5 3.5q-13 2 -29.5 3.5t-37.5 1.5q-44 0 -69 -6t-38.5 -16t-17 -24t-3.5 -29q0 -17 4 -31.5t17.5 -25t38.5 -16.5t68 -6q20 0 36.5 2t30.5 5t26 8v-34h46v18h1
q11 -22 40 -22q15 0 24.5 6t14.5 15.5t7 21t3 23.5q3 -1 11 -1q30 0 45 26h1l2 -23h46l-2 16t-1 16v44l20 -39v-82h64v82zM239 320q16 0 24.5 -3.5t12 -9t4 -11.5t0.5 -11h-80q0 4 0.5 10.5t4 11.5t11.5 9t23 4zM481 289q0 11 3 17t9 8t13.5 2.5t16.5 1.5v-16.5t-1.5 -18.5
t-7 -15t-15.5 -6q-12 0 -15 9t-3 18zM400 314q16 0 18 -16t2 -41q0 -32 -3.5 -46t-16.5 -14t-16.5 14t-3.5 46q0 25 2.5 41t17.5 16zM367 245q-2 -24 -34 -38q0 -1 -1 -1v39h35zM452 331q-19 -13 -19 -44q0 -20 8 -34.5t27 -18.5v22q0 18 -2 40t-14 35z" />
    <glyph glyph-name="roundedemail" unicode="roundedemail" 
d="M634 717q43 0 81 -16.5t66.5 -45t45 -66.5t16.5 -81v-418q0 -43 -16.5 -81.5t-45 -67t-66.5 -45t-81 -16.5h-419q-43 0 -81 16.5t-66.5 45t-45 67t-16.5 81.5v418q0 43 16.5 81t45 66.5t66.5 45t81 16.5h419zM189 189l126 90l-126 90v-180zM660 150l-153 110l-82 -59
l-83 59l-153 -110v-60h471v60zM660 369l-126 -90l126 -90v180zM660 508h-471v-61l236 -168l235 168v61z" />
    <glyph glyph-name="roundedemberapp" unicode="roundedemberapp" 
d="M611 300q0 -10 -1.5 -20.5t-1.5 -21.5q0 -29 -10 -57.5t-30 -53.5q-23 -30 -57 -46t-83 -18q-57 2 -98.5 29.5t-61.5 79.5q0 7 -7.5 13.5t-10.5 13.5q2 2 2.5 3t2.5 3v1q5 5 5.5 12.5t2.5 18.5q2 18 7 45.5t25 54.5q17 23 39.5 43t44.5 39q21 17 38 33t27 31
q19 -15 43 -36t45 -45t36.5 -49t18.5 -48l6 -48zM570 171q14 18 22.5 39t13.5 42l-13 -16l-6 48q-3 23 -18.5 48t-36.5 49t-45 44.5t-43 35.5q-10 -15 -27 -30.5t-38 -32.5q-22 -19 -44.5 -39.5t-39.5 -43.5q-20 -26 -25.5 -53.5t-7.5 -45.5q0 -4 -1 -5q55 -100 163 -104
q99 3 146 64zM634 717q43 0 81 -16.5t66.5 -45t45 -66.5t16.5 -81v-418q0 -43 -16.5 -81.5t-45 -67t-66.5 -45t-81 -16.5h-419q-43 0 -81 16.5t-66.5 45t-45 67t-16.5 81.5v418q0 43 16.5 81t45 66.5t66.5 45t81 16.5h419zM424 63q69 2 111 27.5t64 61.5t28.5 77t6 75
t-5 54.5t-3.5 15.5q2 -8 -0.5 -16t-6.5 -15q-4 -8 -10 -16q-5 35 -32 72t-59 67q-37 35 -82 68q-1 -16 -18.5 -34t-41.5 -38.5t-51 -43.5t-46 -50q-16 -22 -23 -44.5t-10 -41.5t-4 -31.5t-5 -13.5q-7 -3 -14 2q-4 2 -7 6q18 -61 45.5 -97t57.5 -54.5t58.5 -24t47.5 -6.5z
" />
    <glyph glyph-name="roundedetsy" unicode="roundedetsy" 
d="M634 717q43 0 81 -16.5t66.5 -45t45 -66.5t16.5 -81v-418q0 -43 -16.5 -81.5t-45 -67t-66.5 -45t-81 -16.5h-419q-43 0 -81 16.5t-66.5 45t-45 67t-16.5 81.5v418q0 43 16.5 81t45 66.5t66.5 45t81 16.5h419zM634 194h-15q-11 -20 -22.5 -40t-22.5 -32q-9 -9 -18 -15.5
t-18 -9.5q-10 -3 -25 -5t-36 -2h-82q-22 0 -30 5q-9 5 -12 13q-2 4 -4.5 14.5t-2.5 28.5v148h116q30 0 45 -9q15 -8 21 -21q3 -6 5.5 -17.5t4.5 -31.5h17v183h-17q-1 -20 -6 -37.5t-15 -25.5q-15 -15 -55 -15h-116v183h142q38 0 51 -5q18 -8 27 -22q5 -8 9 -19.5t8 -31.5h14
l-5 104h-377v-26h18q15 0 28 -1t19 -9q5 -5 9.5 -17.5t4.5 -37.5v-287q0 -20 -3.5 -31t-5.5 -17t-8 -9l-12 -6q-8 -5 -16 -4t-16 1h-18v-27h377z" />
    <glyph glyph-name="roundedfacebook" unicode="roundedfacebook" 
d="M634 717q43 0 81 -16.5t66.5 -45t45 -66.5t16.5 -81v-418q0 -43 -16.5 -81.5t-45 -67t-66.5 -45t-81 -16.5h-419q-43 0 -81 16.5t-66.5 45t-45 67t-16.5 81.5v418q0 43 16.5 81t45 66.5t66.5 45t81 16.5h419zM581 534h-88q-26 0 -48 -9t-38 -23.5t-25.5 -33.5t-9.5 -38
v-53h-78v-104h78v-210h105v210h78v104h-78v26q0 13 9.5 20t16.5 7h78v104z" />
    <glyph glyph-name="roundedfeedburner" unicode="roundedfeedburner" 
d="M634 717q43 0 81 -16.5t66.5 -45t45 -66.5t16.5 -81v-418q0 -43 -16.5 -81.5t-45 -67t-66.5 -45t-81 -16.5h-419q-43 0 -81 16.5t-66.5 45t-45 67t-16.5 81.5v418q0 43 16.5 81t45 66.5t66.5 45t81 16.5h419zM383 555q-24 -17 -46.5 -47.5t-40.5 -68t-29 -77.5t-11 -75
q0 -49 12.5 -88.5t33.5 -67.5t50 -43.5t63 -15.5q33 0 64 14.5t55.5 38.5t39.5 54t15 62q0 36 -9 62t-23.5 45t-33.5 33t-40 26q6 -32 0.5 -56.5t-20 -40.5t-35 -22t-44.5 1q23 39 29 65.5t2.5 47t-12.5 36.5t-17 33t-10.5 36.5t7.5 47.5zM425 42q48 0 91 8t75 22t50.5 32.5
t18.5 39.5q0 19 -14 35t-39 30q-9 -28 -28.5 -53t-45 -44t-56 -30t-62.5 -11q-60 1 -104 37.5t-64 102.5q-27 -14 -42.5 -30.5t-15.5 -36.5q0 -21 18.5 -39.5t50.5 -32.5t75 -22t92 -8zM415 106q-34 -1 -62.5 16t-43 48t-10.5 74.5t36 96.5q-7 -30 -2.5 -56t16 -45
t27.5 -29.5t33 -10.5q38 -1 61.5 31.5t34.5 79.5q31 -24 39.5 -58.5t-3.5 -67t-43.5 -55.5t-82.5 -24z" />
    <glyph glyph-name="roundedflickr" unicode="roundedflickr" 
d="M634 717q43 0 81 -16.5t66.5 -45t45 -66.5t16.5 -81v-418q0 -43 -16.5 -81.5t-45 -67t-66.5 -45t-81 -16.5h-419q-43 0 -81 16.5t-66.5 45t-45 67t-16.5 81.5v418q0 43 16.5 81t45 66.5t66.5 45t81 16.5h419zM294 194q22 0 41 8t33 22.5t22 33.5t8 41q0 44 -30 74t-74 30
q-22 0 -41 -8t-33.5 -22t-22.5 -33t-8 -41t8 -41t22.5 -33.5t33.5 -22.5t41 -8zM555 194q22 0 41 8t33 22.5t22.5 33.5t8.5 41t-8.5 41t-22.5 33t-33 22t-41 8q-21 0 -40 -8t-33.5 -22t-22.5 -33t-8 -41t8 -41t22.5 -33.5t33.5 -22.5t40 -8z" />
    <glyph glyph-name="roundedfoodspotting" unicode="roundedfoodspotting" 
d="M634 717q43 0 81 -16.5t66.5 -45t45 -66.5t16.5 -81v-418q0 -43 -16.5 -81.5t-45 -67t-66.5 -45t-81 -16.5h-419q-43 0 -81 16.5t-66.5 45t-45 67t-16.5 81.5v418q0 43 16.5 81t45 66.5t66.5 45t81 16.5h419zM189 247h53v261h-53v-261zM296 194h-96v-154h29v65h58v27h-58
v36h67v26zM402 54q15 16 15 42q0 25 -15 42q-15 16 -37 16q-16 0 -27 -7q-13 -8 -19 -21q-6 -14 -6 -29q0 -19 6 -32t19 -21q16 -7 27 -7q22 0 37 17zM521 54q14 17 14 42t-14 42q-15 16 -38 16q-16 0 -27 -7q-12 -8 -18 -21q-7 -16 -7 -29q0 -10 2 -17.5t5 -14.5
q6 -13 19 -21q14 -7 26 -7q23 0 38 17zM649 194h-27v-55q-12 15 -29 15q-19 0 -31 -15q-12 -14 -12 -43t13 -43q12 -16 29 -16q9 0 17 5q8 4 15 14v-16h25v154zM660 456q0 21 -15.5 36.5t-36.5 15.5h-53l-26 52h-104l-27 -52h-52q-22 0 -37 -15.5t-15 -36.5v-157
q0 -22 15 -37t37 -15h262q21 0 36.5 15t15.5 37v157zM483 130q10 0 18 -9q7 -8 7 -25q0 -18 -7 -26q-8 -9 -18 -9q-11 0 -17 9q-7 8 -7 26q0 17 7 25q6 9 17 9zM365 130q9 0 17 -9q7 -8 7 -25q0 -18 -7 -26q-8 -9 -17 -9q-11 0 -18 9q-7 8 -7 26q0 17 7 25q7 9 18 9z
M600 132q10 0 16 -9t6 -28q0 -17 -6 -26q-8 -8 -16 -8q-12 0 -18 11q-5 10 -5 26t7 25q6 9 16 9zM477 482q22 0 41 -8.5t33 -22.5t22 -33t8 -41q0 -44 -30 -74t-74 -30q-22 0 -41 8t-33.5 22t-22.5 33t-8 41t8 41t22.5 33t33.5 22.5t41 8.5zM477 325q22 0 37 15t15 37
t-15 37.5t-37 15.5t-37 -15.5t-15 -37.5t15 -37t37 -15z" />
    <glyph glyph-name="roundedforrst" unicode="roundedforrst" 
d="M634 717q43 0 81 -16.5t66.5 -45t45 -66.5t16.5 -81v-418q0 -43 -16.5 -81.5t-45 -67t-66.5 -45t-81 -16.5h-419q-43 0 -81 16.5t-66.5 45t-45 67t-16.5 81.5v418q0 43 16.5 81t45 66.5t66.5 45t81 16.5h419zM640 63l-215 471l-216 -471h194v107l-65 22v21l65 -21v85h43
v-42l43 21v-21l-43 -22v-43l86 43v-21l-86 -43v-86h194z" />
    <glyph glyph-name="roundedfoursquare" unicode="roundedfoursquare" 
d="M331 257l-8 -2q-14 -6 -26 -6q-33 0 -56 25t-23 60t23 59.5t56 24.5q16 0 30.5 -6.5t25 -18t17 -27t6.5 -32.5q0 -16 -6 -31l-2 -6l55 -83l206 224v-89l-206 -189zM634 717q43 0 81 -16.5t66.5 -45t45 -66.5t16.5 -81v-418q0 -43 -16.5 -81.5t-45 -67t-66.5 -45
t-81 -16.5h-419q-43 0 -81 16.5t-66.5 45t-45 67t-16.5 81.5v418q0 43 16.5 81t45 66.5t66.5 45t81 16.5h419zM660 514l-17 -19l-153 -164l-65 67l-27 -28q-11 34 -38.5 55.5t-62.5 21.5q-23 0 -42.5 -9t-34 -24.5t-23 -36t-8.5 -43.5t8.5 -43.5t23 -36t33.5 -25t41 -9.5
l130 -137l150 158l-15 16l100 80v21v133v16v7z" />
    <glyph glyph-name="roundedfriendsfeed" unicode="roundedfriendsfeed" 
d="M634 717q43 0 81 -16.5t66.5 -45t45 -66.5t16.5 -81v-418q0 -43 -16.5 -81.5t-45 -67t-66.5 -45t-81 -16.5h-419q-43 0 -81 16.5t-66.5 45t-45 67t-16.5 81.5v418q0 43 16.5 81t45 66.5t66.5 45t81 16.5h419zM617 481h-69q-27 0 -49.5 -15t-36.5 -38v53h-69
q-21 0 -39.5 -9t-32.5 -25t-22 -36.5t-8 -44.5v-45h-76v-76h76v-183h76v183h38h38h3v-183h76v183h76v76h-76v45q0 17 8.5 27.5t17.5 10.5h69v77zM452 404q-6 -18 -6 -38v-45h-3h-38h-38v45q0 17 8.5 27.5t17.5 10.5h59z" />
    <glyph glyph-name="roundedfriendstar" unicode="roundedfriendstar" 
d="M634 717q43 0 81 -16.5t66.5 -45t45 -66.5t16.5 -81v-418q0 -43 -16.5 -81.5t-45 -67t-66.5 -45t-81 -16.5h-419q-43 0 -81 16.5t-66.5 45t-45 67t-16.5 81.5v418q0 43 16.5 81t45 66.5t66.5 45t81 16.5h419zM484 364q0 -8 0.5 -19t2.5 -22t5.5 -20t8.5 -14q4 -5 10 -5h1
q35 0 35 57q0 13 -3.5 25t-8.5 22t-12 16t-14 6h-2q-20 -3 -23 -46zM396 352q-5 -16 -2 -34t11 -30q3 -5 8 -9.5t13 -5.5h4q17 0 25 16t9 36q0 15 -6 28.5t-14 21.5q-7 8 -16 8q-7 0 -15.5 -4t-16.5 -27zM657 278q5 28 2 50t-12 32q-8 9 -18 9h-3q-23 -2 -30 -18.5
t-13 -48.5q-3 -15 -9 -37.5t-19.5 -43t-36 -34.5t-56.5 -12q-37 2 -55 13t-26.5 26t-11 32t-8.5 32q-2 5 -3 9t-3 8q-5 12 -14 25.5t-22 25.5t-29 20t-35 8h-66v-49h48q11 0 27.5 -14.5t21.5 -39.5q17 -77 58.5 -116t104.5 -39h5q50 1 87 19.5t61.5 44t38 53t16.5 45.5z" />
    <glyph glyph-name="roundedgdgt" unicode="roundedgdgt" 
d="M294 456h183v-157h-183v157zM634 717q43 0 81 -16.5t66.5 -45t45 -66.5t16.5 -81v-418q0 -43 -16.5 -81.5t-45 -67t-66.5 -45t-81 -16.5h-419q-43 0 -81 16.5t-66.5 45t-45 67t-16.5 81.5v418q0 43 16.5 81t45 66.5t66.5 45t81 16.5h419zM634 508l-79 -154v154l-26 26
h-287l-27 -26v-261l27 -27h235v-78h-235v-52l26 -27h261l26 27v130l79 131v157z" />
    <glyph glyph-name="roundedgithub" unicode="roundedgithub" 
d="M412 186q26 0 44.5 -12.5t18.5 -29.5q0 -18 -18.5 -30.5t-44.5 -12.5q-27 0 -45.5 12.5t-18.5 30.5q0 17 18.5 29.5t45.5 12.5zM404 364q-23 0 -39.5 16t-16.5 39t16.5 39t39.5 16t39 -16t16 -39t-16 -39t-39 -16zM634 717q43 0 81 -16.5t66.5 -45t45 -66.5t16.5 -81
v-418q0 -43 -16.5 -81.5t-45 -67t-66.5 -45t-81 -16.5h-419q-43 0 -81 16.5t-66.5 45t-45 67t-16.5 81.5v418q0 43 16.5 81t45 66.5t66.5 45t81 16.5h419zM411 33q30 0 56 9t45.5 24t31 35t11.5 43q0 22 -11 42t-30.5 35t-45.5 24t-56 9q-3 0 -6 -0.5t-6 -0.5q-2 5 -3 11.5
t-1 12.5q0 7 1 15.5t3 8.5h4q25 0 46.5 9.5t37.5 25.5t25.5 37.5t9.5 45.5q0 11 -4.5 24.5t-10.5 19.5l41 23v78l-86 -47q-14 10 -29 15t-34 5q-25 0 -46.5 -9.5t-37.5 -25.5t-25 -37.5t-9 -45.5q0 -28 12.5 -51.5t32.5 -39.5q-12 -24 -12 -51q0 -12 2.5 -23.5t7.5 -22.5
q-26 -15 -41.5 -38t-15.5 -49q0 -23 11 -43t30.5 -35t45.5 -24t56 -9z" />
    <glyph glyph-name="roundedgooglebuzz" unicode="roundedgooglebu&#x7a;&#x7a;" 
d="M634 717q43 0 81 -16.5t66.5 -45t45 -66.5t16.5 -81v-418q0 -43 -16.5 -81.5t-45 -67t-66.5 -45t-81 -16.5h-419q-43 0 -81 16.5t-66.5 45t-45 67t-16.5 81.5v418q0 43 16.5 81t45 66.5t66.5 45t81 16.5h419zM425 508q-63 0 -116.5 -24t-85.5 -66l134 -128l201 185
q-29 16 -63.5 24.5t-69.5 8.5zM189 322q0 -74 65 -127l83 77l-129 122q-19 -35 -19 -72zM425 136q89 0 157 48l-148 140l-164 -152l-1 -2q-7 -14 -16.5 -28t-22.5 -23q6 -1 14 -2t19 -1q48 0 86 26l6 3l5 -1q34 -8 65 -8zM603 201q57 52 57 121q0 40 -20 76t-58 62
l-127 -118z" />
    <glyph glyph-name="roundedgoogletalk" unicode="roundedgoogletalk" 
d="M634 717q43 0 81 -16.5t66.5 -45t45 -66.5t16.5 -81v-418q0 -43 -16.5 -81.5t-45 -67t-66.5 -45t-81 -16.5h-419q-43 0 -81 16.5t-66.5 45t-45 67t-16.5 81.5v418q0 43 16.5 81t45 66.5t66.5 45t81 16.5h419zM396 486q38 -5 71 -19t57 -35.5t37.5 -49t13.5 -57.5
q0 -38 -20.5 -70t-55.5 -55q51 19 82 54.5t31 79.5q0 31 -16.5 59t-45 48.5t-66.5 32.5t-81 12h-7zM544 179q63 23 102.5 67.5t39.5 99.5q0 39 -20.5 73t-56 59.5t-83 40.5t-101.5 15t-102 -16t-83.5 -42.5t-56 -62t-20.5 -74.5q0 -34 16 -64t41.5 -54t57.5 -41t63 -24
q-7 -21 -23.5 -47t-44.5 -44q46 -5 87 4q35 7 72.5 29.5t60.5 69.5q-14 -18 -36 -34q-19 -14 -48 -26t-70 -16q12 16 21 31t15 26q7 13 13 25q-60 14 -109 44.5t-69 74.5q-3 10 -5 20t-2 21q0 37 16.5 69t45.5 55.5t70 36.5t89 13q49 0 90 -12.5t70.5 -35t46 -53.5t16.5 -69
q0 -51 -25.5 -93t-77.5 -66z" />
    <glyph glyph-name="roundedgowallapin" unicode="roundedgowallapin" 
d="M425 495q26 0 49 -10t40 -27t27 -40t10 -49t-10 -49t-27 -40t-40 -27t-49 -10t-49.5 10t-40.5 27t-27 40t-10 49t10 49t27 40t40.5 27t49.5 10zM425 299q29 0 49 20.5t20 49.5t-20 49.5t-49 20.5t-49.5 -20.5t-20.5 -49.5t20.5 -49.5t49.5 -20.5zM634 717q43 0 81 -16.5
t66.5 -45t45 -66.5t16.5 -81v-418q0 -43 -16.5 -81.5t-45 -67t-66.5 -45t-81 -16.5h-419q-43 0 -81 16.5t-66.5 45t-45 67t-16.5 81.5v418q0 43 16.5 81t45 66.5t66.5 45t81 16.5h419zM461 204q28 6 52.5 21.5t42 37.5t27.5 49t10 57q0 35 -13 65.5t-36 53.5t-53.5 36.5
t-65.5 13.5t-66 -13.5t-54 -36.5t-36 -53.5t-13 -65.5q0 -30 10 -57t27.5 -49t41.5 -37.5t53 -21.5l37 -144z" />
    <glyph glyph-name="roundedgowalla" unicode="roundedgowalla" 
d="M277 139v-18.5t-2 -20.5q-1 -1 -3 -2t-7 -1q-16 0 -16 13q0 11 7.5 21t20.5 21v-13zM398 154q-7 -10 -22 -13h-7l1 2q5 11 13.5 15.5t13.5 4.5h2q2 -5 -1 -9zM292 463q16 -17 20.5 -27t3.5 -13q0 -2 -4 -4q-2 0 -3 -0.5t-2 -0.5q-7 0 -11 9t-4 19v17zM634 717
q43 0 81 -16.5t66.5 -45t45 -66.5t16.5 -81v-418q0 -43 -16.5 -81.5t-45 -67t-66.5 -45t-81 -16.5h-419q-43 0 -81 16.5t-66.5 45t-45 67t-16.5 81.5v418q0 43 16.5 81t45 66.5t66.5 45t81 16.5h419zM679 79q5 11 7 26q-5 5 -9.5 8.5t-9.5 8.5q-5 4 -8.5 7t-7.5 7q0 6 -1 12
l-2 12q-19 97 -84.5 151t-185.5 74v5q3 22 6.5 48t4 50t-3 45t-13.5 34q-11 15 -31 17h-4q-17 0 -34 -13t-28 -55q-10 8 -22 14t-26 6q-19 0 -38 -12q-18 -10 -20 -33q0 -16 9.5 -34t24 -35.5t32 -33.5t32.5 -28q-12 -8 -28 -21.5t-32 -29t-28 -33t-15 -34.5q-5 -26 10 -45
q15 -17 39 -17q8 0 20 3t27.5 12.5t33.5 27.5t38 47q4 -14 2 -30t-19 -29l-11 -7q-33 -24 -56 -44.5t-23 -49.5q0 -17 11 -27.5t29 -10.5q11 0 21.5 4.5t13.5 14.5q5 15 5 32q7 -2 15.5 -3t17.5 -3q-4 -22 -4 -49.5t7 -53.5h25q-8 23 -8 51t4 51q8 -1 18 1q27 5 39 24
q8 14 3 30q-5 17 -25 17q-12 0 -26.5 -8.5t-22.5 -25.5q-2 -3 -3 -5.5t-3 -6.5q-9 1 -17.5 2.5t-15.5 3.5q-8 2 -15 3l-15 3q8 7 18 14t21 15l11 8q16 12 23 27.5t7 31t-4 30t-9 23.5l-9 19l-12 -18q-21 -35 -39.5 -54.5t-33 -29.5t-25 -12.5t-14.5 -2.5q-13 0 -20 9
q-7 7 -5 23q3 15 16 31.5t30 32.5t34 28.5t27 19.5l16 11l-16 10q-17 12 -35 28t-32.5 33t-24 32.5t-9.5 26.5q0 9 7 13q20 12 35.5 6.5t33.5 -22.5q-2 -15 -2.5 -26t-0.5 -15q0 -19 10 -36t30 -17q6 0 14 3q11 5 14.5 11t4.5 11q6 27 -33 66l-11 11q2 10 5 21.5t8.5 21.5
t12.5 16t17 5q10 -2 14 -8q7 -10 9.5 -28.5t1.5 -41t-4 -46t-6 -41.5l-4 -30l12 -2q119 -17 181.5 -66.5t80.5 -140.5q-4 2 -7 3l-6 2q-16 5 -35.5 8.5t-39.5 3.5q-66 0 -89 -47q-13 -26 -16.5 -56t3.5 -55h25q-7 21 -4.5 48.5t14.5 51.5q15 33 67 33q18 0 36.5 -3.5
t32.5 -7.5q10 -3 22 -13q-1 -29 -13.5 -47t-27.5 -28t-27.5 -13.5t-13.5 -3.5l-26 -5l14 -12h41q23 9 46 30.5t29 59.5q1 0 1 -0.5t1 -0.5q7 -6 13.5 -12.5t14.5 -11.5z" />
    <glyph glyph-name="roundedgrooveshark" unicode="roundedgrooveshark" 
d="M634 717q43 0 81 -16.5t66.5 -45t45 -66.5t16.5 -81v-418q0 -43 -16.5 -81.5t-45 -67t-66.5 -45t-81 -16.5h-419q-43 0 -81 16.5t-66.5 45t-45 67t-16.5 81.5v418q0 43 16.5 81t45 66.5t66.5 45t81 16.5h419zM425 37q54 0 101.5 20.5t83 56t56 83.5t20.5 102t-20.5 101.5
t-56 83t-83 56t-101.5 20.5t-102 -20.5t-83.5 -56t-56 -83t-20.5 -101.5t20.5 -102t56 -83.5t83.5 -56t102 -20.5zM425 534q48 0 91 -18.5t75 -50.5t50.5 -74.5t18.5 -91.5q0 -29 -7 -56.5t-20 -51.5q-18 12 -35.5 33.5t-33 43.5t-28 41.5t-19.5 27.5q-38 42 -75.5 70
t-92.5 44q-1 -29 0 -57.5t-1.5 -55t-11.5 -50t-29 -41.5q-9 -8 -22 -14t-27 -10t-28 -5.5t-26 -0.5q-7 20 -11 40t-4 42q0 49 18.5 91.5t50.5 74.5t75 50.5t92 18.5z" />
    <glyph glyph-name="roundedheart" unicode="roundedheart" 
d="M634 717q43 0 81 -16.5t66.5 -45t45 -66.5t16.5 -81v-418q0 -43 -16.5 -81.5t-45 -67t-66.5 -45t-81 -16.5h-419q-43 0 -81 16.5t-66.5 45t-45 67t-16.5 81.5v418q0 43 16.5 81t45 66.5t66.5 45t81 16.5h419zM431 90q16 0 41 15t53.5 40.5t55.5 58.5t46.5 68.5t28 71.5
t-0.5 68q-15 51 -49 73t-70 23q-30 0 -50.5 -12.5t-33.5 -27.5t-19.5 -27.5t-8.5 -12.5t-8 12.5t-18 27.5t-32.5 27.5t-50.5 12.5q-37 0 -71.5 -22t-49.5 -74q-10 -32 -0.5 -68t31 -71.5t50.5 -68.5t58.5 -58.5t55.5 -40.5t42 -15z" />
    <glyph glyph-name="roundedhyves" unicode="roundedhyves" 
d="M634 717q43 0 81 -16.5t66.5 -45t45 -66.5t16.5 -81v-418q0 -43 -16.5 -81.5t-45 -67t-66.5 -45t-81 -16.5h-419q-43 0 -81 16.5t-66.5 45t-45 67t-16.5 81.5v418q0 43 16.5 81t45 66.5t66.5 45t81 16.5h419zM618 122q7 11 -0.5 24.5t-16.5 16.5q-4 1 -11.5 0.5
t-10.5 2.5q-2 2 -1.5 15t0.5 21v194q0 19 -1 41.5t6 31.5q2 2 7.5 4t11 4.5t10 5t5.5 5.5q1 5 -1 13t-5.5 15.5t-9 12.5t-9.5 5h-33q-20 -4 -38.5 -7t-35.5 -11q-5 -2 -10 -5.5t-7 -7.5q-5 -16 5 -26.5t21 -15.5q4 -2 11.5 -2.5t10.5 -3.5q4 -4 3 -16t-2 -20q-2 -20 -2 -37
t2 -39q1 -7 2.5 -18.5t-4.5 -16.5q-2 -2 -7.5 -2.5t-12 -1l-13 -1t-10.5 -1.5q-16 -2 -28.5 -3.5t-24.5 -4l-24 -5t-27 -5.5l-10 -2.5t-11 0.5q-3 1 -4.5 10.5t-1.5 13.5q-2 29 0 51t2 50v18t2 12t7.5 5t12 3.5t12 3.5t8.5 6q3 5 2.5 12t-2.5 12q-5 12 -14 17.5t-21 6.5
t-26.5 -1t-29.5 -5q-22 -4 -40 -9.5t-26 -19.5v-9q5 -11 10.5 -17t14.5 -11q5 -2 12.5 -2.5t9.5 -3.5q3 -3 2.5 -15.5t-0.5 -21.5q0 -33 1.5 -59t1.5 -58q1 -27 2 -57t4 -56q2 -9 2.5 -20.5t-2.5 -15.5q-2 -2 -5.5 -2.5t-5.5 -1.5q-8 -2 -17 -7t-10 -13q-1 -10 8.5 -20.5
t19.5 -12.5q6 -2 11 -2t13 1q11 1 26.5 3t30 6t25 10.5t11.5 15.5q1 11 -6.5 20t-15.5 12q-3 1 -12 0t-12 4q-2 4 -1.5 11.5t0.5 12.5t-1 13t-1.5 16.5t0 15.5t2.5 10q5 7 17 10t19 5q23 8 41 10.5t45 6.5q3 0 10.5 1t15 1.5t14 0t8.5 -2.5t1.5 -9.5t-0.5 -12.5v-25
q0 -11 2 -25.5t-3 -19.5q-4 -3 -11.5 -3t-11.5 -2q-15 -7 -16 -15q-2 -12 12 -25t26 -14q20 -2 43 4t37 13l13.5 4.5t9.5 5.5z" />
    <glyph glyph-name="roundedicondock" unicode="roundedicondock" 
d="M634 717q43 0 81 -16.5t66.5 -45t45 -66.5t16.5 -81v-418q0 -43 -16.5 -81.5t-45 -67t-66.5 -45t-81 -16.5h-419q-43 0 -81 16.5t-66.5 45t-45 67t-16.5 81.5v418q0 43 16.5 81t45 66.5t66.5 45t81 16.5h419zM660 300q0 14 -7 21q-7 8 -20 8h-3l-78 -7q-16 -2 -19 -10
q-1 -2 -0.5 -5t5.5 -7q14 -14 27 -18l7 -3l-4 -6q-3 -4 -13 -13l-62 -52q-2 -2 -6 -4.5t-8 -2.5q-11 0 -11 17v149l3 1q21 13 33.5 33t12.5 44q0 18 -7.5 34.5t-20 28.5t-29 19t-35.5 7t-36 -7t-29.5 -19t-20 -28.5t-7.5 -34.5q0 -25 13.5 -46t36.5 -33l3 -1v-150
q0 -17 -11 -17q-8 0 -14 6l-66 56q-10 9 -13 13l-4 6l7 3q13 4 27 18q5 4 5.5 7t-0.5 5q-3 8 -19 10l-78 7h-3q-13 0 -20 -8q-9 -9 -7 -21l8 -75q3 -18 13 -18q2 0 4.5 0.5t5.5 4.5q7 6 12 13.5t7 12.5l2 7l7 -4q3 -2 14 -13l140 -154q9 -11 23 -11q13 0 22 11l140 154
q11 11 14 13l7 4l2 -7q2 -5 7 -12.5t12 -13.5q3 -4 5.5 -4.5t4.5 -0.5q10 0 13 18zM425 499q23 0 39 -16t16 -38q0 -23 -16 -38.5t-39 -15.5t-39.5 15.5t-16.5 38.5q0 22 16.5 38t39.5 16z" />
    <glyph glyph-name="roundedicq" unicode="roundedicq" 
d="M484 331l69 56l8 3q18 8 36 5q17 -2 23 -14l3 -9l-1 -7q-7 -18 -32 -28q-5 -3 -10.5 -4t-12.5 -2l-83 -10l-1 5l-1 2zM597 287q17 -5 25 -19q10 -13 10 -29l-2 -13q-6 -20 -23 -29q-20 -10 -38 -3q-13 3 -18 11l-71 58l4 9l2 8l77 7l27 1zM383 238q5 -2 10 -4.5t11 -2.5
q1 -17 3.5 -35t2.5 -38v-26v-7q-8 -20 -25 -27q-17 -10 -37 -5q-21 6 -29 22q-6 10 -6 23l3 15q1 8 10 19zM505 183q5 -8 7.5 -16.5t0.5 -18.5q-2 -18 -13 -24q-6 -4 -16 -2q-19 4 -30 29l-8 22l-10 58l11 4l9 4l28 -28l18 -22zM438 437l-1 27l1 6q2 10 9 17.5t16 12.5
q18 11 38 3q21 -4 31 -22q5 -10 5 -23l-2 -14q-4 -11 -10 -20l-61 -73q-10 7 -20 11zM329 433q-4 9 -6 17.5t-1 17.5q2 18 14 25q7 5 15 0q18 -4 31 -28l4 -10t4 -11l13 -79l-10 -3l-60 64zM248 310q-17 3 -25 18q-9 13 -2 29q8 21 27 28q18 10 38 6l18 -8l59 -42
q-9 -12 -11 -20l-97 -12zM357 264q-8 -6 -14 -12t-12 -11l-20 -17l-6 -3q-18 -9 -35 -7q-16 2 -22 10l-2 7l2 6q5 17 27 27q7 3 11.5 5t9.5 3l54 10l4 -13zM465 296q0 -9 -3 -17.5t-11 -14.5q-15 -13 -31 -13q-19 0 -32 13q-13 12 -13 32q0 18 13 31q14 12 32 12
q19 0 31 -12q14 -13 14 -31zM634 717q43 0 81 -16.5t66.5 -45t45 -66.5t16.5 -81v-418q0 -43 -16.5 -81.5t-45 -67t-66.5 -45t-81 -16.5h-419q-43 0 -81 16.5t-66.5 45t-45 67t-16.5 81.5v418q0 43 16.5 81t45 66.5t66.5 45t81 16.5h419zM657 218q8 32 -6 58l-4 5
q-4 6 -8.5 11.5t-10.5 9.5q-5 4 -11 6.5t-11 5.5q16 8 27 17.5t16 23.5q4 11 1 20.5t-3 18.5v1q-15 10 -19.5 16.5t-17.5 10.5q-8 2 -16 2t-16 -1l-23 -5l8 17q10 31 -7 61l-2 3q-14 24 -45 32q-32 9 -60 -6q-14 -8 -26.5 -19.5t-12.5 -26.5v-1v-4l-3 4l-7 12q-15 25 -41 31
q-20 5 -40 -4q-21 -13 -25 -41q-6 -28 10 -56l5 -7l-17 5q-29 7 -58 -8q-28 -13 -40 -43q-11 -29 3 -53q6 -10 16 -17q12 -12 30 -15l5 -1l-10 -9q-8 -6 -12 -12.5t-7 -14.5q-5 -19 5 -36q5 -9 12 -13q5 -3 9.5 -5.5t10.5 -2.5q23 -6 48 1l-12 -19l-4 -9q-10 -29 6 -59
q3 -5 7 -10l8 -10q12 -11 31 -15q31 -9 60 5q28 14 37 46l1 4q20 -21 38 -27q22 -6 39 5q18 10 24 32q4 21 0 46q10 -7 22 -10q31 -10 59 4q28 16 37 46z" />
    <glyph glyph-name="roundedidentica" unicode="roundedidentica" 
d="M468 310q-12 -10 -18 -20q-13 -11 -29.5 -18t-35.5 -7q-24 0 -46 11l-71 -29l22 85q-7 19 -7 37q0 22 8 41t22 33t32.5 22t39.5 8t39.5 -8t32 -22t21.5 -33t8 -41q0 -34 -18 -59zM634 717q43 0 81 -16.5t66.5 -45t45 -66.5t16.5 -81v-418q0 -43 -16.5 -81.5t-45 -67
t-66.5 -45t-81 -16.5h-419q-43 0 -81 16.5t-66.5 45t-45 67t-16.5 81.5v418q0 43 16.5 81t45 66.5t66.5 45t81 16.5h419zM579 140q25 13 40 37.5t15 53.5q0 22 -8 41t-21.5 33t-32 22t-39.5 8q-1 0 -2 -0.5t-2 -0.5q5 20 5 38q0 32 -12 60.5t-32.5 49.5t-48 33t-58.5 12
q-32 0 -59.5 -12t-47.5 -33t-32 -49.5t-12 -60.5q0 -34 12 -62l-29 -115l107 35q14 -6 29 -9.5t32 -3.5q26 0 50 9q2 -35 24 -61.5t54 -33.5l46 -60zM533 287q22 0 37 -15.5t15 -38.5q0 -16 -7.5 -28t-19.5 -19l-14 -40l-20 34q-19 4 -31 18.5t-12 34.5q0 15 8 29l6 6t5 7
q15 12 33 12z" />
    <glyph glyph-name="roundedimessage" unicode="roundedimessage" 
d="M634 717q43 0 81 -16.5t66.5 -45t45 -66.5t16.5 -81v-418q0 -43 -16.5 -81.5t-45 -67t-66.5 -45t-81 -16.5h-419q-43 0 -81 16.5t-66.5 45t-45 67t-16.5 81.5v418q0 43 16.5 81t45 66.5t66.5 45t81 16.5h419zM425 100q48 0 91 16t75 43.5t50.5 65t18.5 79.5t-18.5 79.5
t-50.5 65t-75 43.5t-91 16q-49 0 -92 -16t-75 -43.5t-50.5 -65t-18.5 -79.5q0 -51 26.5 -94t70.5 -72q-3 -18 -18 -30.5t-36 -14.5q16 -3 34 -3q48 0 79 22q37 -12 80 -12z" />
    <glyph glyph-name="roundeditunes" unicode="roundeditunes" 
d="M634 717q43 0 81 -16.5t66.5 -45t45 -66.5t16.5 -81v-418q0 -43 -16.5 -81.5t-45 -67t-66.5 -45t-81 -16.5h-419q-43 0 -81 16.5t-66.5 45t-45 67t-16.5 81.5v418q0 43 16.5 81t45 66.5t66.5 45t81 16.5h419zM425 37q54 0 101.5 20.5t83 56t56 83.5t20.5 102t-20.5 101.5
t-56 83t-83 56t-101.5 20.5t-102 -20.5t-83.5 -56t-56 -83t-20.5 -101.5t20.5 -102t56 -83.5t83.5 -56t102 -20.5zM425 534q48 0 91 -18.5t75 -50.5t50.5 -74.5t18.5 -91.5t-18.5 -92t-50.5 -75t-75 -50.5t-91 -18.5q-49 0 -92 18.5t-75 50.5t-50.5 75t-18.5 92t18.5 91.5
t50.5 74.5t75 50.5t92 18.5zM345 419h1v-180q0 2 -8.5 2.5t-14.5 -0.5q-19 -2 -31.5 -17.5t-10.5 -34.5q2 -20 15.5 -32t33.5 -10q18 2 30 15.5t11 31.5h1v165l131 30v-125q0 2 -8.5 2.5t-14.5 -0.5q-19 -2 -31.5 -17t-10.5 -35q2 -19 16 -31t33 -10q18 2 30 15.5t12 31.5
v236z" />
    <glyph glyph-name="roundedlastfm" unicode="roundedlastfm" 
d="M634 717q43 0 81 -16.5t66.5 -45t45 -66.5t16.5 -81v-418q0 -43 -16.5 -81.5t-45 -67t-66.5 -45t-81 -16.5h-419q-43 0 -81 16.5t-66.5 45t-45 67t-16.5 81.5v418q0 43 16.5 81t45 66.5t66.5 45t81 16.5h419zM566 160q40 0 67 23.5t27 58.5q0 34 -17.5 51t-54.5 28
q-27 9 -44.5 16.5t-17.5 29.5q0 15 10.5 25t27.5 10q23 0 40 -22l30 15q-23 41 -68 41q-35 0 -55.5 -19.5t-20.5 -51.5t20.5 -48.5t62.5 -30.5q23 -8 36 -15.5t13 -27.5t-16 -33.5t-42 -12.5q-27 1 -38 14t-21 35l-16 36t-14.5 33t-10.5 25.5t-5 12.5q-18 42 -51.5 64
t-78.5 22q-29 0 -54.5 -11t-44.5 -30t-30 -44.5t-11 -54.5t11 -54.5t30 -44.5t44.5 -30t54.5 -11q33 0 61 14t48 37l-18 42q-13 -25 -37 -40t-54 -15q-21 0 -39.5 8t-32 22t-21.5 32.5t-8 39.5t8 39.5t21.5 32.5t32 22t39.5 8q32 0 57.5 -17t36.5 -44l44 -102l6 -11
q14 -32 35 -49.5t58 -17.5z" />
    <glyph glyph-name="roundedlinkedin" unicode="roundedlinkedin" 
d="M634 717q43 0 81 -16.5t66.5 -45t45 -66.5t16.5 -81v-418q0 -43 -16.5 -81.5t-45 -67t-66.5 -45t-81 -16.5h-419q-43 0 -81 16.5t-66.5 45t-45 67t-16.5 81.5v418q0 43 16.5 81t45 66.5t66.5 45t81 16.5h419zM294 403h-105v-340h105v340zM242 430q21 0 36.5 15t15.5 37
t-15.5 37t-36.5 15q-22 0 -37.5 -15t-15.5 -37t15.5 -37t37.5 -15zM660 260q0 36 -20 70.5t-52 52.5q-29 16 -67.5 17t-69.5 -13v16h-105v-340h105v208l43 21q8 4 22 4t21 -5q6 -3 12 -13t6 -18v-197h105v197z" />
    <glyph glyph-name="roundedmeetup" unicode="roundedmeetup" 
d="M634 717q43 0 81 -16.5t66.5 -45t45 -66.5t16.5 -81v-418q0 -43 -16.5 -81.5t-45 -67t-66.5 -45t-81 -16.5h-419q-43 0 -81 16.5t-66.5 45t-45 67t-16.5 81.5v418q0 43 16.5 81t45 66.5t66.5 45t81 16.5h419zM272 232q-6 15 -10 32.5t-7 35.5l-10 44t-13 40h-3
q-7 0 -10 1q-2 0 -5 0.5t-5 0.5h-1h-2q-13 -17 -19 -41.5t-11 -48.5l-12 24q-5 10 -10.5 20.5t-10.5 18.5h-7q-15 0 -24 -4l-1 -21q-1 -27 0 -51t8 -46q1 -1 5 -1q8 0 14.5 3t9.5 5q1 11 -2 24q0 3 -0.5 6t1.5 7q10 -13 17 -26q3 -5 5.5 -9t4.5 -8h5q3 0 6 0.5t6 0.5
q3 1 12 1l2 -1q4 9 4.5 20.5t0.5 23.5q1 11 1.5 22t5.5 19q5 -25 12.5 -48.5t16.5 -48.5q3 0 6.5 1t7.5 2q6 2 8 2h4zM319 217q10 0 20.5 2.5t18.5 5.5q-5 6 -11 6q-4 0 -12 -2q-8 -3 -13 -3q-2 0 -3 1q-6 0 -11 7q-8 13 -2 35q5 -1 11.5 -2t14.5 -1h3h6q4 15 2.5 34
t-4.5 31q-2 0 -8 2q-8 3 -15 3h-3q-14 -2 -23.5 -19t-11.5 -36q-2 -18 2.5 -36.5t21.5 -25.5q4 -1 8 -1.5t9 -0.5zM404 220q19 0 29 10q-2 6 -10 8q-6 -11 -19 -11t-22 12q-8 11 -2 25l10 -2t10 -1q6 0 14 2q-1 11 0 20t3 18q1 7 2 14.5t1 16.5q-14 11 -28 12
q-38 -29 -36 -94q2 -14 17 -22t31 -8zM499 284q7 1 13 1.5t9 3.5q-5 3 -8 8l-8.5 8.5t-9.5 5.5q-2 0 -2 -5q0 -7 -5 -7h-3v1q1 10 0.5 21.5t-1.5 24.5q-1 18 -1.5 36t2.5 33q-4 5 -10.5 9.5t-17.5 4.5q-3 0 -3 1q-6 -19 -4.5 -41t4.5 -44q2 -13 2.5 -25t-1.5 -23q-6 0 -9 1
h-7q-6 0 -9 -3q-2 -4 -2 -9q5 -3 12 -4t15 -1l6 -1q0 -8 0.5 -14t1.5 -13q0 -9 0.5 -18.5t0.5 -20.5h8q4 1 13 1v15t-1 14q0 10 -0.5 19t0.5 19q5 2 15 2zM601 254q6 10 10.5 20.5t2.5 27.5q-5 4 -10.5 8t-12.5 4h-2h-2l-1 -7q0 -10 -0.5 -21t-3 -21t-7.5 -17.5t-14 -10.5
q-2 11 -2.5 23.5t-1.5 24.5v20q-2 1 -3.5 2t-3.5 2q-5 3 -9 5t-11 3q-6 -66 13 -87q7 -8 19 -8q9 0 18 3l2 4q3 5 6 8.5t8 7.5q1 3 5 9zM730 276q6 12 8.5 30t-8.5 40q-20 12 -35 12q-20 0 -35 -18q-8 -9 -12.5 -22t-7.5 -26.5t-4 -26.5t-2 -22q-2 -1 -4 -1q-7 -2 -8 -4
q8 -9 10 -23.5t4 -28.5q2 -12 3 -23t5 -19q2 -1 10 -1h7q7 0 10 -1q-5 14 -7 33t0 46q21 5 39 20t27 35zM701 336q8 -13 7 -25.5t-4 -20.5q-5 -14 -15.5 -25t-24.5 -15q5 23 12 47t23 39l1 2zM311 281q-1 1 -3 1h-4l1 2q1 16 12 28q2 -8 2.5 -16t-1.5 -14l-2 -1h-1h-4z
M388 274q-5 0 -6 3q0 8 2 13.5t4 11.5q2 4 4 10l2 4l1 -4q2 -8 1.5 -19t-3.5 -19h-5z" />
    <glyph glyph-name="roundedmetacafe" unicode="roundedmetacafe" 
d="M634 717q43 0 81 -16.5t66.5 -45t45 -66.5t16.5 -81v-418q0 -43 -16.5 -81.5t-45 -67t-66.5 -45t-81 -16.5h-419q-43 0 -81 16.5t-66.5 45t-45 67t-16.5 81.5v418q0 43 16.5 81t45 66.5t66.5 45t81 16.5h419zM465 81q7 20 13 38.5t8 24.5q-6 4 -22.5 16t-33.5 26
q-20 16 -45 34h125q2 0 8 18t13 40q8 26 17 59q9 -33 17 -59q7 -22 13.5 -40t8.5 -18h66l-105 314l-85 -255h-274zM660 201h-86l-26 80l-26 -80h-86l69 -52l-26 -86l69 54l69 -54l-26 86z" />
    <glyph glyph-name="roundedmixx" unicode="roundedmixx" 
d="M634 717q43 0 81 -16.5t66.5 -45t45 -66.5t16.5 -81v-418q0 -43 -16.5 -81.5t-45 -67t-66.5 -45t-81 -16.5h-419q-43 0 -81 16.5t-66.5 45t-45 67t-16.5 81.5v418q0 43 16.5 81t45 66.5t66.5 45t81 16.5h419zM617 270q-25 -48 -74 -82.5t-113 -43.5q-57 -8 -107.5 6
t-87.5 46q30 -36 74 -57t97 -21q38 0 72 11.5t62 32t48 48t29 60.5zM527 318q-13 -29 -39.5 -54.5t-63.5 -39.5q-32 -13 -63 -15t-57 6q17 -11 37.5 -17t43.5 -6q29 0 55 10t45.5 27t30.5 40t11 49zM297 542q-6 -14 -2 -27l95 -227q5 -15 11 -23t8 -8l7 3q2 1 3.5 9t-2.5 25
l-57 240q-3 11 -12 18.5t-20 7.5q-7 0 -10 -1q-15 -5 -21 -17zM419 37q55 0 103.5 22t85 59.5t57.5 88t21 107.5q0 17 -2 32.5t-5 30.5q0 -5 0.5 -11t0.5 -11q0 -59 -21.5 -110.5t-58.5 -89.5t-86.5 -60.5t-105.5 -22.5q-41 0 -78 12t-69 33.5t-57 51.5t-41 66
q12 -43 36.5 -79t58.5 -62.5t75 -41.5t86 -15z" />
    <glyph glyph-name="roundedmobileme" unicode="roundedmobileme" 
d="M634 717q43 0 81 -16.5t66.5 -45t45 -66.5t16.5 -81v-418q0 -43 -16.5 -81.5t-45 -67t-66.5 -45t-81 -16.5h-419q-43 0 -81 16.5t-66.5 45t-45 67t-16.5 81.5v418q0 43 16.5 81t45 66.5t66.5 45t81 16.5h419zM599 142q18 0 34 9.5t27.5 24.5t18.5 32.5t7 32.5
q0 31 -20 46t-41 22q2 7 3 14t1 15q0 24 -10 45.5t-27 37.5t-39.5 25.5t-48.5 9.5q-42 0 -74.5 -23.5t-44.5 -59.5q-21 26 -53 26q-30 0 -51.5 -24t-21.5 -58v-5q-3 1 -6.5 1h-6.5q-12 0 -26.5 -4t-27 -13t-21 -22.5t-8.5 -32.5q0 -18 7 -36t18.5 -32t27.5 -22.5t34 -8.5
h349z" />
    <glyph glyph-name="roundedmrwong" unicode="roundedmrwong" 
d="M634 717q43 0 81 -16.5t66.5 -45t45 -66.5t16.5 -81v-418q0 -43 -16.5 -81.5t-45 -67t-66.5 -45t-81 -16.5h-419q-43 0 -81 16.5t-66.5 45t-45 67t-16.5 81.5v418q0 43 16.5 81t45 66.5t66.5 45t81 16.5h419zM212 204q17 4 36.5 11t38 16t34 19.5t24.5 21.5q9 10 6.5 14
t-10 3t-18 -4t-17.5 -6q-8 -3 -25 -10t-35 -15q-21 -9 -45 -19q-8 -11 -11 -19q-2 -7 1.5 -11.5t20.5 -0.5zM566 103q2 30 -1 48.5t-9 29.5t-14.5 16.5t-15.5 10.5q-9 5 -29.5 7t-43.5 3q0 20 -0.5 37t-1.5 27q13 2 19 4q22 6 31.5 24.5t11.5 38.5v40q18 1 30.5 1h17.5
q6 0 14.5 0.5t16 2t12 4t4.5 7.5q-1 10 -10 12t-23 4q-5 0 -22 0.5t-40 0.5q0 15 -1 30.5t-1.5 29t-2 23.5t-3.5 14q-7 14 -16 7t-9 -17v-87h-88h-8q1 20 2 38t2 29q3 26 -3.5 35t-14.5 11t-12 -7t-6 -20q-1 -5 -1.5 -30t1.5 -55q-23 0 -48 0.5t-39 -1.5q-6 0 -10 -5
t-5.5 -11t-0.5 -11.5t6 -6.5q3 -1 13.5 -1h24.5t30 1t31 1q1 -18 3 -34.5t4 -28.5q5 -22 23 -31.5t38 -11.5q0 -11 0.5 -27.5t0.5 -36.5h-34q-31 -1 -51.5 -16.5t-25.5 -31.5q-3 -8 -4.5 -20t-2.5 -24q-1 -14 0 -29q-1 -17 4 -25t10.5 -8t10 8t3.5 24q-3 42 11 63t26 23
q5 1 20 1h33v-61t-1 -36q0 -9 4.5 -13t10.5 -3t11 7.5t5 19.5q0 10 0.5 33.5t-0.5 51.5q15 0 27.5 -0.5t19.5 -0.5q18 -1 26.5 -19t9.5 -61q0 -19 4.5 -28t9.5 -8.5t9.5 10.5t6.5 28zM623 225q6 -1 12.5 -3t12 -2.5t9 1.5t3.5 9q-1 7 -9.5 13.5t-21 12.5t-27.5 12t-29 12
q-29 12 -41 12t-16 -11q-2 -7 0.5 -11.5t8 -7.5t11.5 -4.5l10 -2.5t14 -5.5t22 -10t23.5 -9.5t17.5 -5zM479 344q0 -10 -8.5 -16.5t-21 -9t-26 -1.5t-22.5 7q-9 5 -12.5 23t-4.5 41q16 0 42.5 0.5t53.5 0.5v-27t-1 -18z" />
    <glyph glyph-name="roundedmsn" unicode="roundedmsn" 
d="M634 717q43 0 81 -16.5t66.5 -45t45 -66.5t16.5 -81v-418q0 -43 -16.5 -81.5t-45 -67t-66.5 -45t-81 -16.5h-419q-43 0 -81 16.5t-66.5 45t-45 67t-16.5 81.5v418q0 43 16.5 81t45 66.5t66.5 45t81 16.5h419zM251 272q33 -44 63 -66q-3 21 0 43t17 42q15 23 30.5 32
t26.5 11v3q-17 20 -37.5 34.5t-42.5 28.5q-17 11 -37.5 21.5t-40 19t-37 14t-29.5 5.5q-8 0 -10 -2q-1 -2 -1.5 -11t8 -30t29 -56t61.5 -89zM342 284q-14 -21 -16 -44t3 -45q19 -13 34.5 -18t26.5 -5q9 0 13 2q9 3 17 12t13 19q-5 9 -9 18t-9 20q-18 43 -24 78
q-10 -2 -22.5 -9.5t-26.5 -27.5zM459 51q3 2 6 11t5 22t3.5 27t0.5 25q0 2 -0.5 4t-0.5 4q-15 13 -33 48q-6 -10 -14 -18t-19 -13q-5 -2 -17 -2q-25 0 -56 17q10 -27 23 -42q6 -9 17.5 -23t25 -27.5t28 -23.5t27.5 -10q3 0 4 1zM421 246q20 -48 37 -72.5t25 -29.5v8
q-1 16 -6 46t-21 67q-14 32 -24.5 53t-18.5 34q-7 11 -11 15.5t-6 5.5q-2 -2 -2 -4q-1 -2 -1 -6v-1v-9.5t1 -12.5q2 -17 8.5 -41t18.5 -53zM431 333q8 -14 15.5 -30t15.5 -36q5 -11 8.5 -20.5t5.5 -19.5q5 -3 25.5 -12.5t58.5 -9.5h14t15 1q26 4 44.5 22.5t31.5 46.5
q-2 8 -4 11q-6 14 -21 26t-35 21t-43.5 14.5t-47.5 5.5q-46 0 -83 -20zM622 103q10 12 20.5 29t17.5 37.5t10 42.5t0 43q-14 -25 -33.5 -41.5t-45.5 -20.5q-8 -1 -16 -1.5t-15 -0.5q-29 0 -48.5 6t-30.5 12q8 -37 8 -55q16 -24 33 -36q24 -17 40 -26.5t27 -9.5q5 0 12.5 3.5
t20.5 17.5zM696 414q2 37 -5.5 68.5t-24.5 48.5q-15 16 -37 16q-5 0 -15 -2q-23 -5 -52.5 -24.5t-58 -46.5t-51 -59.5t-31.5 -63.5q1 -2 2 -3t2 -3q40 21 89 21q26 0 51 -5.5t46.5 -15.5t37.5 -23.5t24 -29.5q10 28 15.5 59.5t7.5 62.5z" />
    <glyph glyph-name="roundedmyspace" unicode="roundedmyspace" 
d="M634 717q43 0 81 -16.5t66.5 -45t45 -66.5t16.5 -81v-418q0 -43 -16.5 -81.5t-45 -67t-66.5 -45t-81 -16.5h-419q-43 0 -81 16.5t-66.5 45t-45 67t-16.5 81.5v418q0 43 16.5 81t45 66.5t66.5 45t81 16.5h419zM506 534q-29 0 -50 -20.5t-21 -49.5t21 -50t50 -21t49.5 21
t20.5 50t-20.5 49.5t-49.5 20.5zM369 518q-23 0 -38.5 -16t-15.5 -38q0 -23 15.5 -39t38.5 -16t38.5 16t15.5 39q0 22 -15.5 38t-38.5 16zM265 505q-17 0 -29 -12t-12 -29t12 -29.5t29 -12.5t29.5 12.5t12.5 29.5t-12.5 29t-29.5 12zM608 270q0 20 -8 37.5t-21.5 30.5
t-31.5 20.5t-38 7.5t-38 -7.5t-31 -20.5q-6 23 -25.5 38t-44.5 15q-17 0 -31 -7t-25 -18q-4 16 -17.5 26.5t-30.5 10.5q-21 0 -36 -14.5t-15 -35.5v-80h79v-79h104v-104h210v180z" />
    <glyph glyph-name="roundednewsvine" unicode="roundednewsvine" 
d="M634 717q43 0 81 -16.5t66.5 -45t45 -66.5t16.5 -81v-418q0 -43 -16.5 -81.5t-45 -67t-66.5 -45t-81 -16.5h-419q-43 0 -81 16.5t-66.5 45t-45 67t-16.5 81.5v418q0 43 16.5 81t45 66.5t66.5 45t81 16.5h419zM451 262v103l61 45q10 -5 19 -5q15 0 25.5 11t10.5 26
t-10.5 26t-26.5 11q-15 0 -26 -11t-11 -26q0 -2 1 -2.5t1 -2.5l-44 -33v156h-53v-82l-44 33q0 2 0.5 3.5t0.5 3.5q0 15 -10.5 26t-26.5 11q-15 0 -26 -11t-11 -26q0 -16 11 -26.5t26 -10.5q10 0 17 4l63 -46v-103l-44 33q0 2 0.5 3t0.5 3q0 15 -10.5 26t-26.5 11
q-15 0 -26 -11t-11 -26t11 -26t26 -11q9 0 17 5l63 -47v-109l-44 33q0 2 0.5 3t0.5 3q0 15 -10.5 26t-26.5 11q-15 0 -26 -11t-11 -26q0 -16 11 -26.5t26 -10.5q8 0 18 5l62 -47v-110h53v37l61 45q7 -6 19 -6q15 0 25.5 11t10.5 26q0 16 -10.5 26.5t-26.5 10.5
q-15 0 -26 -10.5t-11 -26.5q0 -1 1 -2t1 -2l-44 -33v110l61 45q9 -6 19 -6q15 0 25.5 11t10.5 26q0 16 -10.5 26.5t-26.5 10.5q-15 0 -26 -10.5t-11 -26.5q0 -1 1 -2t1 -2z" />
    <glyph glyph-name="roundedpaypal" unicode="roundedpaypal" 
d="M492 410q-9 -20 -28 -34.5t-40 -14.5h-2l11 49h59zM634 717q43 0 81 -16.5t66.5 -45t45 -66.5t16.5 -81v-418q0 -43 -16.5 -81.5t-45 -67t-66.5 -45t-81 -16.5h-419q-43 0 -81 16.5t-66.5 45t-45 67t-16.5 81.5v418q0 43 16.5 81t45 66.5t66.5 45t81 16.5h419zM316 138
l31 124h90q32 0 61.5 10.5t53 29.5t40 46t23.5 60q8 37 0 65.5t-25.5 47.5t-41.5 28.5t-48 9.5h-215l-96 -421h127zM656 351q8 35 1 60t-22 43q8 -16 9.5 -35t-3.5 -44q-7 -33 -23.5 -61.5t-40 -49.5t-53 -32.5t-61.5 -11.5h-91l-30 -132h-107l-5 -25h127l30 133h91
q32 0 61.5 11.5t53 32.5t40 49.5t23.5 61.5zM401 361h-36l27 124h62q21 0 33.5 -16t10.5 -38q-5 2 -9 3t-9 1h-62z" />
    <glyph glyph-name="roundedphotobucket" unicode="roundedphotobucket" 
d="M511 430q32 -22 51 -56t19 -75q0 -42 -19 -76t-51 -55q-6 -5 -18 -10q-1 -1 -1.5 -1t-1.5 -1q-5 -2 -9.5 -3.5t-9.5 -3.5h-1q-11 -4 -19 -5h-5q-5 -2 -10.5 -2h-10.5h-11.5t-10.5 2h-5q-8 1 -19 5h-1q-5 2 -9.5 3.5t-9.5 3.5q-1 1 -1.5 1t-1.5 1q-8 4 -18 10
q-32 21 -51 55t-19 76q0 41 19 75t51 56q5 2 9 4.5t9 5.5q1 0 1.5 0.5t1.5 0.5q10 5 19 8h1q5 2 9.5 2.5t9.5 1.5q2 1 5 1q5 1 10.5 1.5t11.5 0.5q5 0 10.5 -0.5t10.5 -1.5q3 0 5 -1q5 -1 9.5 -1.5t9.5 -2.5h1q9 -3 19 -8q1 0 1.5 -0.5t1.5 -0.5q5 -3 9.5 -5.5t8.5 -4.5z
M555 299q0 27 -10 51t-28 41.5t-41.5 28t-50.5 10.5v-27q21 0 40 -8t33.5 -22t22.5 -33t8 -41h26zM634 717q43 0 81 -16.5t66.5 -45t45 -66.5t16.5 -81v-418q0 -43 -16.5 -81.5t-45 -67t-66.5 -45t-81 -16.5h-419q-43 0 -81 16.5t-66.5 45t-45 67t-16.5 81.5v418
q0 43 16.5 81t45 66.5t66.5 45t81 16.5h419zM686 430q0 11 -7.5 18.5t-18.5 7.5h-142q-20 12 -43.5 19t-49.5 7t-50 -7t-44 -19h-11h-26q0 11 -7.5 18.5t-18.5 7.5h-53q-11 0 -18.5 -7.5t-7.5 -18.5q-11 0 -18.5 -7.5t-7.5 -18.5v-262q0 -11 7.5 -18.5t18.5 -7.5h142
q41 -26 94 -26q52 0 93 26h37h26h79q11 0 18.5 7.5t7.5 18.5v262zM297 430q-26 -26 -40.5 -59.5t-14.5 -71.5t14.5 -72t40.5 -59h-82h-26v262h26h53h26h3zM634 430h26v-262h-26h-53h-7h-11h-8h-3q26 25 41 59t15 72t-15 71.5t-41 59.5h11h71z" />
    <glyph glyph-name="roundedpicasa" unicode="roundedpicasa" 
d="M634 717q43 0 81 -16.5t66.5 -45t45 -66.5t16.5 -81v-418q0 -43 -16.5 -81.5t-45 -67t-66.5 -45t-81 -16.5h-419q-43 0 -81 16.5t-66.5 45t-45 67t-16.5 81.5v418q0 43 16.5 81t45 66.5t66.5 45t81 16.5h419zM422 560q-45 0 -90 -17q2 -2 17 -15t37 -32.5t47 -42
t46.5 -42t35.5 -33.5t14 -16v175q-20 11 -49 17t-58 6zM163 298q0 -35 10 -68q2 2 19.5 17.5t42.5 39t54.5 50t54.5 49.5t42 38.5t18 16.5q-2 1 -17 15t-33 30.5t-33 30t-16 14.5q-66 -34 -104 -96t-38 -137zM294 300q-29 -27 -53 -48q-20 -18 -37 -34t-18 -17
q16 -39 42.5 -71.5t65.5 -55.5v226zM448 37q69 7 125 43t86 114h-339v-135q38 -17 80 -22h48zM671 220q8 20 10.5 40t2.5 42q0 69 -34.5 126.5t-94.5 93.5v-302h116z" />
    <glyph glyph-name="roundedpinterest" unicode="roundedpinterest" 
d="M634 717q43 0 81 -16.5t66.5 -45t45 -66.5t16.5 -81v-418q0 -43 -16.5 -81.5t-45 -67t-66.5 -45t-81 -16.5h-419q-43 0 -81 16.5t-66.5 45t-45 67t-16.5 81.5v418q0 43 16.5 81t45 66.5t66.5 45t81 16.5h419zM557 209q18 15 30.5 36t20.5 46t11 50.5t0 49.5
q-3 26 -16 50.5t-34 43.5t-48 32t-57 16q-46 5 -88.5 -6t-75 -34.5t-52.5 -58.5t-20 -79q0 -42 15 -68t53 -40q13 12 13.5 22.5t-4.5 21t-12 22t-8 25.5q-4 37 14.5 70.5t49.5 54.5t71 25t80 -19q19 -11 30 -31.5t15.5 -46t2 -53t-12 -50.5t-25.5 -40t-38 -21
q-14 -3 -28.5 0.5t-20.5 9.5q-16 15 -13 34t11 41t14.5 45t-2.5 44q-8 18 -22.5 21.5t-28.5 -3.5t-25.5 -21t-14.5 -30q-2 -17 3 -33.5t5 -32.5q0 -18 -5 -38.5t-11.5 -42t-13 -42t-9.5 -38.5q-2 -14 -3.5 -38t2.5 -39l-1 -1h33q17 29 29 68t21 75q5 5 7.5 -2t7.5 -10
q15 -12 36 -14.5t42 0.5t40.5 11t31.5 18z" />
    <glyph glyph-name="roundedpodcast" unicode="roundedpodcast" 
d="M634 717q43 0 81 -16.5t66.5 -45t45 -66.5t16.5 -81v-418q0 -43 -16.5 -81.5t-45 -67t-66.5 -45t-81 -16.5h-419q-43 0 -81 16.5t-66.5 45t-45 67t-16.5 81.5v418q0 43 16.5 81t45 66.5t66.5 45t81 16.5h419zM424 63q32 0 54.5 28t22.5 84q0 28 -6.5 43t-17 22t-24.5 8
t-29 1t-29 -1t-24.5 -8t-17 -22t-6.5 -43q0 -56 22.5 -84t54.5 -28zM372 307q0 -20 15 -34.5t37 -14.5t37 14.5t15 34.5t-15 34t-37 14t-37 -14t-15 -34zM589 280q0 2 0.5 4.5t0.5 4.5q0 32 -13 62t-35.5 53.5t-52.5 37.5t-64 14q-35 0 -65 -14t-53 -37.5t-36 -53.5t-13 -62
q0 -2 0.5 -4.5t0.5 -4.5q2 30 15.5 53t36 38.5t52 23.5t62.5 8t62 -8t51 -23.5t35.5 -38.5t15.5 -53zM685 289q0 51 -20.5 95.5t-56 77.5t-83 52.5t-101.5 19.5t-101.5 -19.5t-83 -52.5t-56 -77.5t-20.5 -95.5v-10q2 49 23 87t56.5 63.5t82 39t99.5 13.5t99.5 -13.5
t81.5 -39t56.5 -63.5t23.5 -87v10z" />
    <glyph glyph-name="roundedposterous" unicode="roundedposterous" 
d="M447 513q52 0 84.5 -40.5t32.5 -104.5q0 -69 -32.5 -109.5t-86.5 -40.5q-38 0 -67.5 23t-39.5 61q-3 12 -3 29v66q0 12 4 28q10 39 40 63.5t68 24.5zM634 717q43 0 81 -16.5t66.5 -45t45 -66.5t16.5 -81v-418q0 -43 -16.5 -81.5t-45 -67t-66.5 -45t-81 -16.5h-419
q-43 0 -81 16.5t-66.5 45t-45 67t-16.5 81.5v418q0 43 16.5 81t45 66.5t66.5 45t81 16.5h419zM457 171q31 0 61.5 12t54.5 36.5t39 62.5t15 90q0 42 -11.5 76.5t-32.5 59t-50 38.5t-64 14q-90 0 -132 -71l-3 -2h-5l-4 65h-54q1 -27 2 -56t1 -64v-395h61v190l1 4h6l1 -2
q17 -27 47 -42.5t67 -15.5z" />
    <glyph glyph-name="roundedqik" unicode="roundedqik" 
d="M283 332q5 1 11.5 0t10.5 -4q7 -5 9 -14.5t0.5 -20t-6.5 -20t-11 -14.5t-17.5 -6t-20.5 5q-8 5 -10 14.5t0 20t6.5 19.5t10.5 14t17 6zM634 717q43 0 81 -16.5t66.5 -45t45 -66.5t16.5 -81v-418q0 -43 -16.5 -81.5t-45 -67t-66.5 -45t-81 -16.5h-419q-43 0 -81 16.5
t-66.5 45t-45 67t-16.5 81.5v418q0 43 16.5 81t45 66.5t66.5 45t81 16.5h419zM360 235q3 17 6 33t5 33q2 34 -15 52t-47 20q-33 2 -56 -7.5t-37 -25.5q-11 -12 -18 -26.5t-9 -34.5q-2 -31 19 -51.5t59 -16.5q5 1 9 2t8 3q6 2 10.5 6.5t9.5 7.5q-2 -9 -3.5 -20t-0.5 -20
t6.5 -15.5t17.5 -6.5h1h25q3 18 5.5 34.5t4.5 32.5zM453 318q2 9 3 18t-3 16q-5 10 -19 11t-31 1q-1 0 -1 -2q-3 -23 -7 -49.5t-8 -52.5q-2 -9 -2.5 -19t3.5 -16q5 -8 20 -9t30 0q4 23 7.5 49.5t7.5 52.5zM446 380q10 4 17 12.5t2 22.5q-3 10 -19 15h-11q-14 -5 -23.5 -12.5
t-5.5 -23.5q3 -12 16 -15.5t24 1.5zM587 298q4 5 14.5 15t22 20.5t22 20.5t14.5 15q-17 -2 -34 0t-28 -3q-5 -2 -9.5 -6t-8.5 -7q-8 -8 -15 -16t-15 -16q-4 -5 -7.5 -8.5l-7.5 -7.5q2 18 6.5 42t6.5 44q1 22 -14 26.5t-39 3.5q-1 0 -1 -2q-2 -15 -6.5 -42t-9 -54.5t-8 -50
t-3.5 -27.5q-1 -11 3 -17t11.5 -9t17.5 -3.5t21 -0.5q4 18 6 36.5t6 35.5q5 -7 10 -16l10 -18q5 -8 11 -17.5t12 -14.5q8 -6 18.5 -7t20.5 2t17 9t9 15q-12 3 -20 9t-13.5 14.5t-10 17.5t-9.5 17z" />
    <glyph glyph-name="roundedquora" unicode="roundedquora" 
d="M634 717q43 0 81 -16.5t66.5 -45t45 -66.5t16.5 -81v-418q0 -43 -16.5 -81.5t-45 -67t-66.5 -45t-81 -16.5h-419q-43 0 -81 16.5t-66.5 45t-45 67t-16.5 81.5v418q0 43 16.5 81t45 66.5t66.5 45t81 16.5h419zM589 110q-7 -2 -16 2q-8 3 -18.5 10.5t-21.5 22.5
q44 29 71.5 75t29.5 102q1 44 -14 82.5t-42.5 67.5t-65 45.5t-80.5 16.5q-44 0 -82.5 -16.5t-67.5 -45.5t-47 -67.5t-19 -82.5q-2 -44 13 -82.5t42.5 -67.5t65 -45.5t80.5 -16.5q31 0 60 9q9 -15 22 -31q14 -17 29.5 -21.5t29.5 -2.5q16 2 31 9v37zM434 482q22 0 41 -12.5
t33 -33.5t21.5 -49.5t6.5 -60.5q-1 -35 -11.5 -64.5t-27.5 -51.5q-15 22 -31.5 30t-30.5 9q-17 1 -33 -5v-37q7 2 13 1q5 -1 11.5 -4.5t12.5 -11.5q3 -4 5.5 -8t4.5 -9q-15 -5 -26 -5q-23 0 -42 12.5t-33 33.5t-21.5 49.5t-6.5 60.5t10.5 60.5t25 49.5t35.5 33.5t43 12.5z
" />
    <glyph glyph-name="roundedreddit" unicode="roundedreddit" 
d="M561 434q-15 0 -26 11t-11 27q0 15 11 26t26 11t25.5 -11t10.5 -26q0 -16 -10.5 -27t-25.5 -11zM240 344q-35 -27 -50 -64q-15 13 -15 31q0 17 12.5 29t29.5 12q13 0 23 -8zM407 362q40 0 76 -10.5t62.5 -28t42 -41.5t15.5 -51t-15.5 -50.5t-42 -41.5t-62.5 -28t-76 -10
q-41 0 -76.5 10t-62 28t-42 41.5t-15.5 50.5t15.5 51t42 41.5t62 28t76.5 10.5zM299 270q0 -12 8.5 -21t20.5 -9q13 0 21.5 9t8.5 21q0 13 -8.5 22t-21.5 9q-12 0 -20.5 -9t-8.5 -22zM505 166q9 9 0 18t-18 0t-29 -15t-48 -6q-29 0 -48 6q-20 6 -29 15t-18 0t0 -18
q14 -15 40 -22q26 -8 55 -8t55 8q25 7 40 22zM492 240q13 0 21.5 9t8.5 21q0 13 -8.5 22t-21.5 9q-12 0 -20.5 -9t-8.5 -22q0 -12 8.5 -21t20.5 -9zM605 352q18 0 30 -12t12 -29q0 -24 -21 -35q-13 36 -48 65q11 11 27 11zM634 717q43 0 81 -16.5t66.5 -45t45 -66.5
t16.5 -81v-418q0 -43 -16.5 -81.5t-45 -67t-66.5 -45t-81 -16.5h-419q-43 0 -81 16.5t-66.5 45t-45 67t-16.5 81.5v418q0 43 16.5 81t45 66.5t66.5 45t81 16.5h419zM633 251q17 8 28 24t11 36q0 28 -19.5 47.5t-47.5 19.5q-14 0 -26.5 -6t-21.5 -15q-28 17 -62.5 27.5
t-73.5 12.5l13 92l65 -15v-2q0 -27 18 -45.5t44 -18.5t43.5 18.5t17.5 45.5q0 26 -17.5 44.5t-43.5 18.5q-20 0 -35 -11t-22 -28l-77 18q-4 1 -9 -2q-4 -2 -4 -7l-16 -108q-39 -1 -73.5 -11t-62.5 -27q-19 19 -45 19q-28 0 -47.5 -19.5t-19.5 -47.5q0 -18 9 -33t23 -24
q-3 -11 -3 -23q0 -35 18 -65t49 -52.5t72.5 -35.5t88.5 -13t88.5 13t72.5 35.5t49 52.5t18 65q0 5 -0.5 10t-1.5 10z" />
    <glyph glyph-name="roundedretweet" unicode="roundedretweet" 
d="M634 717q43 0 81 -16.5t66.5 -45t45 -66.5t16.5 -81v-418q0 -43 -16.5 -81.5t-45 -67t-66.5 -45t-81 -16.5h-419q-43 0 -81 16.5t-66.5 45t-45 67t-16.5 81.5v418q0 43 16.5 81t45 66.5t66.5 45t81 16.5h419zM503 142l-78 78h-79v105h79l-131 131l-131 -131h79v-157
q0 -10 8 -18t18 -8h235zM686 273h-78v160q0 11 -8 17t-19 6h-235l79 -79h78v-104h-78l130 -131z" />
    <glyph glyph-name="roundedrss" unicode="roundedrss" 
d="M634 717q43 0 81 -16.5t66.5 -45t45 -66.5t16.5 -81v-418q0 -43 -16.5 -81.5t-45 -67t-66.5 -45t-81 -16.5h-419q-43 0 -81 16.5t-66.5 45t-45 67t-16.5 81.5v418q0 43 16.5 81t45 66.5t66.5 45t81 16.5h419zM242 63q21 0 36.5 15.5t15.5 37.5q0 21 -15.5 36.5
t-36.5 15.5q-22 0 -37.5 -15.5t-15.5 -36.5q0 -22 15.5 -37.5t37.5 -15.5zM477 63q0 60 -22.5 112.5t-61.5 91.5t-91.5 61.5t-112.5 22.5v-96q40 0 75 -15t61 -41t41 -61t15 -75h96zM660 63q0 97 -37 183t-101 150t-150 101t-183 37v-98q77 0 145 -29.5t118.5 -80t80 -118.5
t29.5 -145h98z" />
    <glyph glyph-name="roundedscribd" unicode="roundedscribd" 
d="M634 717q43 0 81 -16.5t66.5 -45t45 -66.5t16.5 -81v-418q0 -43 -16.5 -81.5t-45 -67t-66.5 -45t-81 -16.5h-419q-43 0 -81 16.5t-66.5 45t-45 67t-16.5 81.5v418q0 43 16.5 81t45 66.5t66.5 45t81 16.5h419zM485 89q3 3 6 6.5t6 6.5q-14 25 -14 52q0 25 9.5 45.5
t26.5 34.5v3q-7 22 -24 43q-16 20 -40 37q-23 16 -68 36q-23 10 -38 19t-25 17q-18 16 -18 38q0 24 21 41q21 15 55 15q24 0 42 -8q-5 -12 -5 -22q0 -23 15.5 -38.5t37.5 -15.5t37 15.5t15 38.5q0 24 -18 40q-24 27 -55 40q-39 17 -75 17q-56 0 -96 -36q-39 -36 -39 -86
q0 -22 7 -40q4 -9 9 -18.5t13 -18.5q16 -19 36 -32q11 -7 25 -14.5t34 -15.5q19 -8 33 -15t23 -14q16 -12 29 -31q12 -20 12 -39q0 -32 -23 -53t-56 -21q-47 0 -79 37q16 16 16 39t-15 38.5t-37 15.5t-37.5 -15.5t-15.5 -38.5q0 -8 3 -14l-2 -1q24 -63 68 -97
q44 -32 101 -32t100 41zM573 92q26 0 43.5 18t17.5 44t-17.5 44.5t-43.5 18.5q-25 0 -42.5 -18.5t-17.5 -44.5t17.5 -44t42.5 -18z" />
    <glyph glyph-name="roundedsharethis" unicode="roundedsharethis" 
d="M634 717q43 0 81 -16.5t66.5 -45t45 -66.5t16.5 -81v-418q0 -43 -16.5 -81.5t-45 -67t-66.5 -45t-81 -16.5h-419q-43 0 -81 16.5t-66.5 45t-45 67t-16.5 81.5v418q0 43 16.5 81t45 66.5t66.5 45t81 16.5h419zM355 304l168 84q11 -9 24.5 -14.5t29.5 -5.5q35 0 59 24
t24 59t-24 59t-59 24t-59 -24t-24 -59v-5l-168 -84q-11 9 -24.5 14.5t-29.5 5.5q-35 0 -59 -24t-24 -59t24 -59t59 -24q31 0 54 20l168 -85v-4q0 -35 24 -59.5t59 -24.5t59 24.5t24 59.5q0 34 -24 58.5t-59 24.5q-16 0 -29.5 -5.5t-24.5 -14.5l-168 84v5v5z" />
    <glyph glyph-name="roundedskype" unicode="roundedskype" 
d="M634 717q43 0 81 -16.5t66.5 -45t45 -66.5t16.5 -81v-418q0 -43 -16.5 -81.5t-45 -67t-66.5 -45t-81 -16.5h-419q-43 0 -81 16.5t-66.5 45t-45 67t-16.5 81.5v418q0 43 16.5 81t45 66.5t66.5 45t81 16.5h419zM452 64q37 2 70.5 18.5t56 41.5t31 56t-4.5 63
q-13 31 -36.5 50t-53.5 30.5t-63.5 19t-67.5 15.5t-43.5 25t-2 33.5t29 29t48.5 12.5t47.5 -12.5t37 -26.5t29.5 -25.5t25 -9.5q12 1 22 10.5t13.5 23t-2 30t-24.5 33.5q-33 29 -76.5 43t-107.5 8q-25 -2 -48.5 -11.5t-42.5 -26t-31.5 -41t-15.5 -56.5t12.5 -56t40.5 -41.5
t56.5 -28t60.5 -14.5q21 -3 43 -9.5t37 -17.5t18.5 -26t-13.5 -35q-15 -18 -36 -23t-41.5 -2.5t-38 9t-24.5 11.5q-8 5 -16.5 15t-18 19.5t-21.5 17t-26 6.5q-15 -1 -25 -10.5t-13 -24t3 -31.5t24 -34q16 -15 33.5 -27t39.5 -19.5t50 -10.5t65 -1z" />
    <glyph glyph-name="roundedslashdot" unicode="roundedslashdot" 
d="M634 717q43 0 81 -16.5t66.5 -45t45 -66.5t16.5 -81v-418q0 -43 -16.5 -81.5t-45 -67t-66.5 -45t-81 -16.5h-419q-43 0 -81 16.5t-66.5 45t-45 67t-16.5 81.5v418q0 43 16.5 81t45 66.5t66.5 45t81 16.5h419zM346 90l183 418h-104l-183 -418h104zM542 90q27 0 46.5 19
t19.5 46t-19.5 46t-46.5 19t-46 -19t-19 -46t19 -46t46 -19z" />
    </font>
</defs>
</svg>
